<?xml version="1.0" standalone="no"?>
<!DOCTYPE svg PUBLIC "-//W3C//DTD SVG 1.1//EN" "http://www.w3.org/Graphics/SVG/1.1/DTD/svg11.dtd" >
<svg xmlns="http://www.w3.org/2000/svg" xmlns:xlink="http://www.w3.org/1999/xlink" version="1.1">
<metadata>
Created by FontForge 20170731 at Tue Nov 30 17:21:12 2010
 By Aleksey,,,
Copyright (c) Mark Simonson, 2005. All rights reserved.
</metadata>
<defs>
<font id="ProximaNovaExCn-ThinIt" horiz-adv-x="342" >
  <font-face 
    font-family="Proxima Nova ExCn Th"
    font-weight="250"
    font-style="italic"
    font-stretch="normal"
    units-per-em="1000"
    panose-1="2 0 5 6 3 0 0 2 0 4"
    ascent="800"
    descent="-200"
    x-height="483"
    cap-height="667"
    bbox="-155 -252 830 886"
    underline-thickness="20"
    underline-position="-173"
    unicode-range="U+000D-FB04"
  />
<missing-glyph horiz-adv-x="495" 
d="M443 -90h-351v842h351v-842zM411 -60v782h-288v-782h288z" />
    <glyph glyph-name="f_f_j" unicode="ffj" horiz-adv-x="564" 
d="M54 0h-30l101 456h-50l6 27h50l23 107q8 40 32.5 63.5t59.5 23.5q39 0 55 -28l-23 -22q-12 23 -35 23q-46 0 -59 -60l-23 -107h70l-6 -27h-70zM256 0h-30l101 456h-50l6 27h50l23 107q19 87 92 87q18 0 35 -9l-16 -25q-10 7 -22 7q-46 0 -59 -60l-23 -107h70l-6 -27h-70z
M345 -196q-44 0 -56 39l30 12q3 -24 27 -24q31 0 47 73l129 579h30l-129 -579q-13 -57 -31.5 -78.5t-46.5 -21.5zM558 566q-11 0 -19 7.5t-8 18.5q0 14 10.5 23t22.5 9q11 0 19 -7.5t8 -18.5q0 -14 -10.5 -23t-22.5 -9z" />
    <glyph glyph-name="f_j" unicode="fj" horiz-adv-x="362" 
d="M54 0h-30l101 456h-50l6 27h50l23 107q19 87 92 87q18 0 35 -9l-16 -25q-10 7 -22 7q-46 0 -59 -60l-23 -107h70l-6 -27h-70zM143 -196q-44 0 -56 39l30 12q3 -24 27 -24q31 0 47 73l129 579h30l-129 -579q-13 -57 -31.5 -78.5t-46.5 -21.5zM356 566q-11 0 -19 7.5
t-8 18.5q0 14 10.5 23t22.5 9q11 0 19 -7.5t8 -18.5q0 -14 -10.5 -23t-22.5 -9z" />
    <glyph glyph-name="f_f" unicode="ff" horiz-adv-x="404" 
d="M54 0h-30l101 456h-50l6 27h50l23 107q8 40 32.5 63.5t59.5 23.5q39 0 55 -28l-23 -22q-12 23 -35 23q-46 0 -59 -60l-23 -107h70l-6 -27h-70zM256 0h-30l101 456h-50l6 27h50l23 107q8 40 32.5 63.5t59.5 23.5q39 0 55 -28l-23 -22q-12 23 -35 23q-46 0 -59 -60
l-23 -107h70l-6 -27h-70z" />
    <glyph glyph-name="fi" unicode="fi" horiz-adv-x="362" 
d="M54 0h-30l101 456h-50l6 27h50l23 107q19 87 92 87q18 0 35 -9l-16 -25q-10 7 -22 7q-46 0 -59 -60l-23 -107h70l-6 -27h-70zM356 566q-11 0 -19 7.5t-8 18.5q0 14 10.5 23t22.5 9q11 0 19 -7.5t8 -18.5q0 -14 -10.5 -23t-22.5 -9zM243 0h-30l107 483h30z" />
    <glyph glyph-name="fl" unicode="fl" horiz-adv-x="362" 
d="M54 0h-30l101 456h-50l6 27h50l23 107q19 87 92 87q18 0 35 -9l-16 -25q-10 7 -22 7q-46 0 -59 -60l-23 -107h70l-6 -27h-70zM243 0h-30l147 667h30z" />
    <glyph glyph-name="f_f_i" unicode="ffi" horiz-adv-x="564" 
d="M54 0h-30l101 456h-50l6 27h50l23 107q8 40 32.5 63.5t59.5 23.5q39 0 55 -28l-23 -22q-12 23 -35 23q-46 0 -59 -60l-23 -107h70l-6 -27h-70zM256 0h-30l101 456h-50l6 27h50l23 107q19 87 92 87q18 0 35 -9l-16 -25q-10 7 -22 7q-46 0 -59 -60l-23 -107h70l-6 -27h-70z
M558 566q-11 0 -19 7.5t-8 18.5q0 14 10.5 23t22.5 9q11 0 19 -7.5t8 -18.5q0 -14 -10.5 -23t-22.5 -9zM445 0h-30l107 483h30z" />
    <glyph glyph-name="f_f_l" unicode="ffl" horiz-adv-x="564" 
d="M54 0h-30l101 456h-50l6 27h50l23 107q8 40 32.5 63.5t59.5 23.5q39 0 55 -28l-23 -22q-12 23 -35 23q-46 0 -59 -60l-23 -107h70l-6 -27h-70zM256 0h-30l101 456h-50l6 27h50l23 107q19 87 92 87q18 0 35 -9l-16 -25q-10 7 -22 7q-46 0 -59 -60l-23 -107h70l-6 -27h-70z
M445 0h-30l147 667h30z" />
    <glyph glyph-name="f_b" unicode="fb" horiz-adv-x="553" 
d="M54 0h-30l101 456h-50l6 27h50l23 107q19 87 92 87q18 0 35 -9l-16 -25q-10 7 -22 7q-46 0 -59 -60l-23 -107h70l-6 -27h-70zM340 -12q-26 0 -48.5 22.5t-32.5 65.5l-16 -76h-30l147 667h30l-55 -250q43 78 100 78q42 0 64.5 -35.5t22.5 -97.5q0 -46 -11.5 -107t-33 -122
t-58 -103t-79.5 -42zM342 15q34 0 63.5 40t47 97t27.5 114t10 98q0 104 -62 104q-27 0 -56.5 -29.5t-47.5 -70.5l-56 -251q3 -42 24.5 -72t49.5 -30z" />
    <glyph glyph-name="f_h" unicode="fh" horiz-adv-x="544" 
d="M54 0h-30l101 456h-50l6 27h50l23 107q19 87 92 87q18 0 35 -9l-16 -25q-10 7 -22 7q-46 0 -59 -60l-23 -107h70l-6 -27h-70zM425 0h-30l87 394q4 14 4 29q0 45 -44 45q-29 0 -61.5 -28.5t-56.5 -68.5l-81 -371h-30l147 667h30l-55 -252q56 80 113 80q34 0 51.5 -18
t17.5 -49q0 -9 -5 -34z" />
    <glyph glyph-name="f_k" unicode="fk" horiz-adv-x="527" 
d="M54 0h-30l101 456h-50l6 27h50l23 107q19 87 92 87q18 0 35 -9l-16 -25q-10 7 -22 7q-46 0 -59 -60l-23 -107h70l-6 -27h-70zM449 0h-30l-56 244l-91 -112l-29 -132h-30l147 667h30l-107 -485l244 301h33l-177 -218z" />
    <glyph glyph-name=".notdef" horiz-adv-x="495" 
d="M443 -90h-351v842h351v-842zM411 -60v782h-288v-782h288z" />
    <glyph glyph-name=".null" horiz-adv-x="0" 
 />
    <glyph glyph-name=".null" horiz-adv-x="0" 
 />
    <glyph glyph-name="nonmarkingreturn" horiz-adv-x="333" 
 />
    <glyph glyph-name="CR" unicode="&#xd;" horiz-adv-x="0" 
 />
    <glyph glyph-name="space" unicode=" " horiz-adv-x="180" 
 />
    <glyph glyph-name="exclam" unicode="!" horiz-adv-x="208" 
d="M95 161h-20l101 506h42zM52 -9q-13 0 -21.5 8.5t-8.5 21.5q0 15 10.5 25t25.5 10q13 0 21.5 -8.5t8.5 -21.5q0 -15 -10.5 -25t-25.5 -10z" />
    <glyph glyph-name="quotedbl" unicode="&#x22;" horiz-adv-x="290" 
d="M140 443h-21l30 201q5 33 31 33q10 0 16.5 -7t6.5 -17q0 -5 -4 -17zM256 443h-21l30 201q5 33 31 33q10 0 16.5 -7t6.5 -17q0 -5 -4 -17z" />
    <glyph glyph-name="numbersign" unicode="#" horiz-adv-x="395" 
d="M137 0h-33l88 191h-78l-86 -191h-33l87 191h-76l12 29h77l104 227h-77l11 29h78l86 191h33l-86 -191h77l86 191h32l-86 -191h75l-11 -29h-77l-104 -227h78l-12 -29h-79zM203 220l105 227h-77l-104 -227h76z" />
    <glyph glyph-name="dollar" unicode="$" horiz-adv-x="304" 
d="M73 -100l19 88q-32 3 -60.5 20t-43.5 42l28 24q11 -24 34.5 -39.5t48.5 -16.5l71 318q-23 33 -34.5 51.5t-23 51.5t-11.5 65q0 71 44.5 121.5t100.5 52.5l20 90h32l-21 -93q47 -10 71 -44l-24 -24q-21 32 -53 39l-67 -299q59 -89 59 -161q0 -77 -39.5 -131.5t-98.5 -64.5
l-20 -90h-32zM134 504q0 -47 46 -121l59 264q-46 -5 -75.5 -46t-29.5 -97zM231 186q0 54 -37 114l-62 -278q42 13 70.5 56.5t28.5 107.5z" />
    <glyph glyph-name="percent" unicode="%" horiz-adv-x="555" 
d="M105 0h-32l416 667h33zM362 -12q-48 0 -71.5 34t-23.5 84q0 85 44 146.5t97 61.5q48 0 71.5 -34t23.5 -84q0 -85 -44 -146.5t-97 -61.5zM362 15q41 0 74.5 52.5t33.5 126.5q0 93 -62 93q-41 0 -74.5 -52.5t-33.5 -126.5q0 -93 62 -93zM186 351q-48 0 -71.5 34t-23.5 84
q0 85 44 146.5t97 61.5q48 0 71.5 -34t23.5 -84q0 -85 -44 -146.5t-97 -61.5zM186 378q41 0 74.5 52.5t33.5 126.5q0 93 -62 93q-41 0 -74.5 -52.5t-33.5 -126.5q0 -93 62 -93z" />
    <glyph glyph-name="ampersand" unicode="&#x26;" horiz-adv-x="358" 
d="M285 0h-37l-24 70q-58 -82 -118 -82q-39 0 -63 29t-24 80q0 88 35.5 147t100.5 120q-5 41 -5 98q0 83 36 149t81 66q60 0 60 -86q0 -36 -10 -68t-29.5 -59t-39 -48t-47.5 -47q-8 -7 -12 -11q5 -48 20 -110q17 -77 25 -106q35 61 75 161l28 -11q-49 -123 -91 -190
q17 -50 39 -102zM107 18q48 0 106 89q-20 62 -32 118q-15 66 -21 105q-50 -51 -78 -105.5t-28 -129.5q0 -36 14.5 -56.5t38.5 -20.5zM183 448q0 -18 2 -56q55 52 83.5 97t28.5 106q0 32 -8.5 42t-25.5 10q-31 0 -55.5 -63.5t-24.5 -135.5z" />
    <glyph glyph-name="quotesingle" unicode="'" horiz-adv-x="176" 
d="M140 443h-21l30 201q5 33 31 33q10 0 16.5 -7t6.5 -17q0 -5 -4 -17z" />
    <glyph glyph-name="parenleft" unicode="(" horiz-adv-x="167" 
d="M53 -194l-19 -5q-17 88 -17 185q0 364 212 699l17 -8q-87 -154 -143.5 -347t-56.5 -373q0 -85 7 -151z" />
    <glyph glyph-name="parenright" unicode=")" horiz-adv-x="167" 
d="M113 680l19 5q17 -88 17 -185q0 -364 -212 -699l-17 8q87 154 143.5 347t56.5 373q0 85 -7 151z" />
    <glyph glyph-name="asterisk" unicode="*" horiz-adv-x="288" 
d="M195 409h-31l33 120l-114 -53l-9 27l118 42l-93 64l20 24l85 -74l20 118h31l-33 -120l114 53l9 -27l-117 -42l92 -64l-20 -24l-85 74z" />
    <glyph glyph-name="plus" unicode="+" horiz-adv-x="374" 
d="M362 322h-142l-36 -162h-32l36 162h-142l7 30h142l34 156h32l-34 -156h142z" />
    <glyph glyph-name="comma" unicode="," horiz-adv-x="208" 
d="M89 18q0 -36 -27 -73.5t-62 -56.5l-18 20q27 15 47 38t25 46h-6q-10 0 -18 8.5t-8 19.5q0 15 10.5 25.5t24.5 10.5q32 0 32 -38z" />
    <glyph glyph-name="hyphen" unicode="-" horiz-adv-x="230" 
d="M196 227h-170l6 30h170z" />
    <glyph glyph-name="period" unicode="." horiz-adv-x="208" 
d="M52 -9q-13 0 -21.5 8.5t-8.5 21.5q0 15 10.5 25t25.5 10q13 0 21.5 -8.5t8.5 -21.5q0 -15 -10.5 -25t-25.5 -10z" />
    <glyph glyph-name="slash" unicode="/" horiz-adv-x="177" 
d="M-28 -20h-31l303 707h32z" />
    <glyph glyph-name="zero" unicode="0" horiz-adv-x="377" 
d="M145 -12q-99 0 -99 159q0 76 16 166t43.5 172t71.5 137t93 55q99 0 99 -159q0 -76 -16 -166t-43.5 -172t-71.5 -137t-93 -55zM147 18q53 0 99 95t68.5 210t22.5 201q0 123 -69 123q-53 0 -99 -95t-68.5 -210t-22.5 -201q0 -123 69 -123z" />
    <glyph glyph-name="one" unicode="1" horiz-adv-x="243" 
d="M117 0h-32l137 621l-130 -115l-17 23l159 138h30z" />
    <glyph glyph-name="two" unicode="2" horiz-adv-x="348" 
d="M241 0h-235l8 36q201 273 257 364.5t56 159.5q0 39 -19.5 63t-51.5 24q-57 0 -105 -81l-28 17q61 94 133 94q48 0 77.5 -29.5t29.5 -82.5q0 -74 -61 -175t-256 -360h201z" />
    <glyph glyph-name="three" unicode="3" horiz-adv-x="347" 
d="M126 -12q-49 0 -80.5 33t-41.5 100l34 10q13 -113 88 -113q55 0 90 67.5t35 148.5q0 48 -23 72t-56 24q-19 0 -26 -1l8 32q7 -1 41 -1q56 0 89 60t33 137q0 90 -71 90q-32 0 -59 -23.5t-44 -60.5l-28 16q20 42 56 70t79 28q48 0 76 -31t28 -89q0 -71 -34.5 -136
t-94.5 -80q60 -25 60 -120q0 -87 -45.5 -160t-113.5 -73z" />
    <glyph glyph-name="four" unicode="4" horiz-adv-x="310" 
d="M189 0h-32l43 195h-199l7 33l286 439h42l-98 -442h55l-6 -30h-55zM206 225l86 386l-251 -386h165z" />
    <glyph glyph-name="five" unicode="5" horiz-adv-x="348" 
d="M128 -12q-54 0 -80 34.5t-33 97.5l35 7q5 -109 80 -109q52 0 94.5 87t42.5 184q0 91 -63 91q-47 0 -99 -60l-22 18l73 329h214l-6 -30h-182l-61 -277q40 50 90 50q41 0 65.5 -33t24.5 -89q0 -112 -52 -206t-121 -94z" />
    <glyph glyph-name="six" unicode="6" horiz-adv-x="350" 
d="M137 -12q-94 0 -94 147q0 36 7 95.5t24.5 138.5t43 146.5t67.5 114.5t92 47q40 0 68.5 -31t31.5 -83l-31 -11q-2 44 -20.5 69.5t-50.5 25.5q-34 0 -63.5 -29.5t-51 -83t-35 -101.5t-26.5 -110q-1 -6 -1.5 -9.5t-1.5 -9.5q53 102 119 102q41 0 67 -31.5t26 -92.5
q0 -60 -18 -125.5t-58.5 -117t-94.5 -51.5zM143 18q32 0 58.5 29t41.5 72.5t23.5 87.5t8.5 79q0 90 -65 90t-125 -130q-12 -64 -12 -113q0 -115 70 -115z" />
    <glyph glyph-name="seven" unicode="7" horiz-adv-x="278" 
d="M60 0h-35l280 637h-194l6 30h230l-5 -22z" />
    <glyph glyph-name="eight" unicode="8" horiz-adv-x="348" 
d="M133 -12q-113 0 -113 121q0 73 38.5 136.5t111.5 101.5q-25 23 -42.5 62t-17.5 78q0 70 40.5 130t105.5 60q45 0 74.5 -29.5t29.5 -91.5q0 -141 -138 -214q28 -27 45.5 -67.5t17.5 -81.5q0 -88 -45 -146.5t-107 -58.5zM199 359q47 19 86.5 70t39.5 130q0 87 -74 87
q-43 0 -74.5 -49t-31.5 -117q0 -37 16 -71t38 -50zM132 18q45 0 81.5 52.5t36.5 124.5q0 50 -19 87t-38 49q-54 -21 -95.5 -80.5t-41.5 -136.5q0 -49 21.5 -72.5t54.5 -23.5z" />
    <glyph glyph-name="nine" unicode="9" horiz-adv-x="350" 
d="M252 678q94 0 94 -147q0 -36 -7 -95.5t-24.5 -138.5t-43 -146.5t-67.5 -114.5t-92 -47q-40 0 -68.5 31t-31.5 83l31 11q2 -44 20.5 -69.5t50.5 -25.5q34 0 63.5 29.5t51 83t35 101.5t26.5 110q1 6 1.5 9.5t1.5 9.5q-53 -102 -119 -102q-41 0 -67 31.5t-26 92.5
q0 60 18 125.5t58.5 117t94.5 51.5zM246 648q-32 0 -58.5 -29t-41.5 -72.5t-23.5 -87.5t-8.5 -79q0 -90 65 -90t125 130q12 64 12 113q0 115 -70 115z" />
    <glyph glyph-name="colon" unicode=":" horiz-adv-x="208" 
d="M52 -9q-13 0 -21.5 8.5t-8.5 21.5q0 15 10.5 25t25.5 10q13 0 21.5 -8.5t8.5 -21.5q0 -15 -10.5 -25t-25.5 -10zM148 425q-13 0 -21.5 8.5t-8.5 21.5q0 15 10.5 25t25.5 10q13 0 21.5 -8.5t8.5 -21.5q0 -15 -10.5 -25t-25.5 -10z" />
    <glyph glyph-name="semicolon" unicode=";" horiz-adv-x="208" 
d="M89 18q0 -36 -27 -73.5t-62 -56.5l-18 20q27 15 47 38t25 46h-6q-10 0 -18 8.5t-8 19.5q0 15 10.5 25.5t24.5 10.5q32 0 32 -38zM148 425q-13 0 -21.5 8.5t-8.5 21.5q0 15 10.5 25t25.5 10q13 0 21.5 -8.5t8.5 -21.5q0 -15 -10.5 -25t-25.5 -10z" />
    <glyph glyph-name="less" unicode="&#x3c;" horiz-adv-x="374" 
d="M327 166l-281 158l5 21l351 158l-9 -38l-304 -133l245 -132z" />
    <glyph glyph-name="equal" unicode="=" horiz-adv-x="374" 
d="M383 418h-316l7 30h316zM339 220h-316l7 30h316z" />
    <glyph glyph-name="greater" unicode="&#x3e;" horiz-adv-x="374" 
d="M362 324l-351 -158l9 38l305 132l-246 133l7 34l281 -158z" />
    <glyph glyph-name="question" unicode="?" horiz-adv-x="302" 
d="M161 186l-30 -17q-13 27 -13 63q0 39 19 73.5t46.5 61l55 53t46.5 62t19 75.5q0 37 -21.5 64t-59.5 27q-39 0 -76 -27l-13 27q41 30 89 30q53 0 83.5 -35t30.5 -80q0 -44 -19 -83t-46.5 -67.5t-55 -55t-46.5 -56.5t-19 -61q0 -33 10 -54zM103 -9q-13 0 -21.5 8.5
t-8.5 21.5q0 15 10.5 25t25.5 10q13 0 21.5 -8.5t8.5 -21.5q0 -15 -10.5 -25t-25.5 -10z" />
    <glyph glyph-name="at" unicode="@" horiz-adv-x="569" 
d="M276 -70q-97 0 -159 77.5t-62 208.5q0 106 43 203.5t116 158.5t154 61q85 0 135.5 -65t50.5 -182q0 -129 -42 -218t-90 -89q-31 0 -48 20.5t-17 51.5v6q-47 -78 -103 -78q-36 0 -62 28.5t-26 90.5q0 69 21 136t63 113.5t93 46.5q28 0 46.5 -22t24.5 -56l12 60h30
l-63 -299q-3 -15 -3 -28q0 -24 7 -33.5t23 -9.5q18 0 41.5 29.5t43.5 97.5t20 153q0 105 -43.5 161t-113.5 56q-73 0 -138.5 -57.5t-103.5 -148.5t-38 -187q0 -119 54.5 -188t137.5 -69q68 0 128 57l14 -23q-68 -63 -146 -63zM254 112q24 0 46.5 16.5t34.5 32.5t31 46
l40 183q-15 83 -63 83q-43 0 -77.5 -46t-50.5 -106t-16 -117q0 -92 55 -92z" />
    <glyph glyph-name="A" unicode="A" horiz-adv-x="312" 
d="M246 0h-32l7 179h-158l-71 -179h-34l272 667h38zM223 209l17 411l-165 -411h148z" />
    <glyph glyph-name="B" unicode="B" horiz-adv-x="360" 
d="M128 0h-110l147 667h76q54 0 84.5 -34t30.5 -92q0 -71 -31 -129.5t-86 -72.5q29 -9 43 -42t14 -70q0 -89 -46 -158t-122 -69zM204 358q56 0 87 60.5t31 122.5q0 48 -23 72t-64 24h-44l-62 -279h75zM134 30q55 0 91 60.5t36 136.5q0 101 -91 101h-48l-66 -298h78z" />
    <glyph glyph-name="C" unicode="C" horiz-adv-x="357" 
d="M151 -12q-104 0 -104 170q0 59 14 141.5t40.5 170t74.5 148t106 60.5q87 0 102 -123l-31 -6q-10 99 -76 99q-46 0 -85 -59t-62 -142t-35.5 -162t-12.5 -131q0 -72 17.5 -104t55.5 -32q28 0 51.5 22t50.5 66l26 -16q-61 -102 -132 -102z" />
    <glyph glyph-name="D" unicode="D" horiz-adv-x="386" 
d="M112 0h-94l147 667h91q48 0 81.5 -44.5t33.5 -140.5q0 -31 -6.5 -82.5t-24.5 -123t-45.5 -131.5t-75.5 -102.5t-107 -42.5zM115 30h2q47 0 86.5 39.5t63 96t40.5 122t23.5 115.5t6.5 79q0 79 -24.5 117t-62.5 38h-59l-135 -607h59z" />
    <glyph glyph-name="E" unicode="E" horiz-adv-x="330" 
d="M228 0h-210l147 667h210l-6 -30h-178l-62 -279h171l-7 -30h-171l-66 -298h178z" />
    <glyph glyph-name="F" unicode="F" horiz-adv-x="330" 
d="M50 0h-32l147 667h210l-6 -30h-178l-62 -279h171l-7 -30h-171z" />
    <glyph glyph-name="G" unicode="G" horiz-adv-x="375" 
d="M151 -12q-104 0 -104 170q0 61 14.5 145t41.5 170t74.5 145.5t104.5 59.5q49 0 73 -36t29 -87l-31 -6q-5 47 -21.5 73t-54.5 26q-44 0 -83 -57t-62.5 -138.5t-36.5 -162t-13 -136.5q0 -74 17.5 -105t55.5 -31q43 0 89 67l45 206h-101l6 30h133l-54 -247q-56 -86 -122 -86
z" />
    <glyph glyph-name="H" unicode="H" horiz-adv-x="395" 
d="M269 0h-32l72 328h-187l-72 -328h-32l147 667h32l-68 -309h187l68 309h32z" />
    <glyph glyph-name="I" unicode="I" horiz-adv-x="176" 
d="M50 0h-32l147 667h32z" />
    <glyph glyph-name="J" unicode="J" horiz-adv-x="298" 
d="M67 -12q-71 0 -102 57l25 20q24 -47 77 -47q41 0 64 24t35 79l121 546h32l-121 -546q-15 -70 -46.5 -101.5t-84.5 -31.5z" />
    <glyph glyph-name="K" unicode="K" horiz-adv-x="372" 
d="M300 0h-36l-96 321l-67 -90l-51 -231h-32l147 667h32l-82 -372l277 372h42l-244 -319z" />
    <glyph glyph-name="L" unicode="L" horiz-adv-x="306" 
d="M228 0h-210l147 667h32l-141 -637h178z" />
    <glyph glyph-name="M" unicode="M" horiz-adv-x="508" 
d="M382 0h-32l135 609l-276 -609h-18l-6 609l-135 -609h-32l147 667h51l7 -557l254 557h52z" />
    <glyph glyph-name="N" unicode="N" horiz-adv-x="395" 
d="M269 0h-32l-59 579l-128 -579h-32l147 667h32l60 -572l127 572h32z" />
    <glyph glyph-name="O" unicode="O" horiz-adv-x="396" 
d="M151 -12q-104 0 -104 170q0 56 14 138.5t40.5 170.5t74.5 149.5t106 61.5q55 0 80 -48t25 -123q0 -56 -14 -138t-41 -170t-75 -149.5t-106 -61.5zM155 18q44 0 83 56t62.5 136.5t37.5 161.5t14 138q0 138 -75 138q-44 0 -82.5 -56.5t-62 -137.5t-37 -161.5t-13.5 -138.5
q0 -136 73 -136z" />
    <glyph glyph-name="P" unicode="P" horiz-adv-x="341" 
d="M50 0h-32l147 667h90q47 0 77 -37t30 -99q0 -93 -49 -167.5t-134 -74.5h-65zM120 319h64q68 0 105.5 65t37.5 147q0 53 -21.5 79.5t-57.5 26.5h-57z" />
    <glyph glyph-name="Q" unicode="Q" horiz-adv-x="396" 
d="M151 -12q-104 0 -104 170q0 56 14 138.5t40.5 170.5t74.5 149.5t106 61.5q55 0 80 -48t25 -123q0 -62 -15 -151.5t-52.5 -188.5t-86.5 -144l8 -53l-30 -5l-6 38q-28 -15 -54 -15zM155 18q25 0 45 16l-26 166l31 5l22 -145q54 67 89.5 209.5t35.5 240.5q0 138 -75 138
q-44 0 -82.5 -56.5t-62 -137.5t-37 -161.5t-13.5 -138.5q0 -136 73 -136z" />
    <glyph glyph-name="R" unicode="R" horiz-adv-x="366" 
d="M259 0h-33l-35 289h-77l-64 -289h-32l147 667h87q50 0 81 -37.5t31 -95.5q0 -90 -41 -157.5t-103 -83.5zM181 319h4q68 0 105.5 65.5t37.5 149.5q0 51 -20 77t-56 26h-61l-71 -318h61z" />
    <glyph glyph-name="S" unicode="S" horiz-adv-x="319" 
d="M102 -12q-34 0 -65.5 17.5t-48.5 44.5l28 24q12 -25 36 -40.5t50 -15.5q51 0 90 46t39 122q0 41 -20.5 83.5t-44.5 73t-44.5 74t-20.5 87.5q0 73 46 123.5t103 50.5q66 0 98 -47l-24 -24q-27 41 -74 41q-50 0 -83 -42.5t-33 -101.5q0 -35 20 -75.5t44.5 -73t44.5 -78.5
t20 -91q0 -85 -47 -141.5t-114 -56.5z" />
    <glyph glyph-name="T" unicode="T" horiz-adv-x="287" 
d="M105 0h-32l141 637h-109l6 30h251l-6 -30h-110z" />
    <glyph glyph-name="U" unicode="U" horiz-adv-x="396" 
d="M158 -12q-51 0 -81 30.5t-30 87.5q0 26 5 48l113 513h32l-113 -513q-5 -20 -5 -42q0 -46 22.5 -70t59.5 -24q43 0 69 31t42 105l113 513h32l-113 -513q-20 -88 -53.5 -127t-92.5 -39z" />
    <glyph glyph-name="V" unicode="V" horiz-adv-x="312" 
d="M121 0h-38l22 667h32l-26 -620l248 620h34z" />
    <glyph glyph-name="W" unicode="W" horiz-adv-x="490" 
d="M312 0h-38l47 587l-213 -587h-38l47 667h35l-50 -604l219 604h34l-49 -604l218 604h35z" />
    <glyph glyph-name="X" unicode="X" horiz-adv-x="308" 
d="M246 0h-34l-45 300l-175 -300h-38l203 340l-49 327h35l39 -289l165 289h39l-194 -330z" />
    <glyph glyph-name="Y" unicode="Y" horiz-adv-x="322" 
d="M123 0h-32l64 289l-60 378h34l48 -339l200 339h36l-226 -378z" />
    <glyph glyph-name="Z" unicode="Z" horiz-adv-x="309" 
d="M219 0h-237l6 31l329 606h-194l6 30h230l-6 -30l-330 -607h202z" />
    <glyph glyph-name="bracketleft" unicode="[" horiz-adv-x="162" 
d="M48 -190h-110l192 868h111l-7 -30h-81l-179 -808h81z" />
    <glyph glyph-name="backslash" unicode="\" horiz-adv-x="177" 
d="M89 -20v707h30v-707h-30z" />
    <glyph glyph-name="bracketright" unicode="]" horiz-adv-x="162" 
d="M31 -190h-110l7 30h80l179 808h-81l7 30h111z" />
    <glyph glyph-name="asciicircum" unicode="^" horiz-adv-x="324" 
d="M324 333h-30l-44 303l-178 -303h-34l204 334h26z" />
    <glyph glyph-name="underscore" unicode="_" horiz-adv-x="279" 
d="M212 -70h-284l7 30h284z" />
    <glyph glyph-name="grave" unicode="`" horiz-adv-x="119" 
d="M188 556h-24l-63 144h41z" />
    <glyph glyph-name="a" unicode="a" horiz-adv-x="351" 
d="M212 495q26 0 48.5 -22.5t32.5 -65.5l16 76h30l-107 -483h-30l15 66q-43 -78 -100 -78q-42 0 -64.5 35.5t-22.5 97.5q0 46 11.5 107t33 122t58 103t79.5 42zM210 468q-34 0 -63.5 -40t-47 -97t-27.5 -114t-10 -98q0 -104 62 -104q27 0 56.5 29.5t47.5 70.5l56 251
q-3 42 -24.5 72t-49.5 30z" />
    <glyph glyph-name="b" unicode="b" horiz-adv-x="351" 
d="M138 -12q-26 0 -48.5 22.5t-32.5 65.5l-16 -76h-30l147 667h30l-55 -250q43 78 100 78q42 0 64.5 -35.5t22.5 -97.5q0 -46 -11.5 -107t-33 -122t-58 -103t-79.5 -42zM140 15q34 0 63.5 40t47 97t27.5 114t10 98q0 104 -62 104q-27 0 -56.5 -29.5t-47.5 -70.5l-56 -251
q3 -42 24.5 -72t49.5 -30z" />
    <glyph glyph-name="c" unicode="c" horiz-adv-x="294" 
d="M139 -12q-107 0 -107 153q0 49 12 107.5t34.5 115t62 94t86.5 37.5q53 0 81 -49l-24 -20q-20 42 -61 42q-39 0 -71 -37t-50 -91.5t-27.5 -108.5t-9.5 -97q0 -119 74 -119q37 0 66 36l18 -22q-40 -41 -84 -41z" />
    <glyph glyph-name="d" unicode="d" horiz-adv-x="351" 
d="M212 495q26 0 48.5 -22.5t32.5 -65.5l57 260h30l-148 -667h-30l15 66q-43 -78 -100 -78q-42 0 -64.5 35.5t-22.5 97.5q0 46 11.5 107t33 122t58 103t79.5 42zM210 468q-34 0 -63.5 -40t-47 -97t-27.5 -114t-10 -98q0 -104 62 -104q27 0 56.5 29.5t47.5 70.5l56 251
q-3 42 -24.5 72t-49.5 30z" />
    <glyph glyph-name="e" unicode="e" horiz-adv-x="346" 
d="M149 -12q-55 0 -86.5 38t-31.5 114q0 36 9.5 89.5t29 116t59 106t90.5 43.5q101 0 101 -136q0 -62 -18 -127h-228q-10 -47 -10 -91q0 -59 21.5 -92.5t62.5 -33.5q47 0 89 64l23 -19q-52 -72 -111 -72zM79 259h197q12 57 12 96q0 49 -17.5 81t-53.5 32t-66 -36.5
t-46.5 -80.5t-25.5 -92z" />
    <glyph glyph-name="f" unicode="f" horiz-adv-x="202" 
d="M54 0h-30l101 456h-50l6 27h50l23 107q8 40 32.5 63.5t59.5 23.5q39 0 55 -28l-23 -22q-12 23 -35 23q-46 0 -59 -60l-23 -107h70l-6 -27h-70z" />
    <glyph glyph-name="g" unicode="g" horiz-adv-x="351" 
d="M81 -196q-71 0 -110 52l24 24q12 -21 36 -35t52 -14q81 0 109 126l27 109q-44 -78 -102 -78q-39 0 -63 32.5t-24 100.5q0 46 11.5 106.5t32.5 122t58 103.5t81 42q27 0 50.5 -24t31.5 -64l15 76h29l-117 -526q-18 -80 -52.5 -116.5t-88.5 -36.5zM124 15q28 0 56.5 29.5
t47.5 70.5l56 251q-2 38 -23.5 70t-50.5 32q-33 0 -62 -38.5t-47 -95t-28.5 -114.5t-10.5 -101q0 -104 62 -104z" />
    <glyph glyph-name="h" unicode="h" 
d="M223 0h-30l87 394q4 14 4 29q0 45 -44 45q-29 0 -61.5 -28.5t-56.5 -68.5l-81 -371h-30l147 667h30l-55 -252q56 80 113 80q34 0 51.5 -18t17.5 -49q0 -9 -5 -34z" />
    <glyph glyph-name="i" unicode="i" horiz-adv-x="160" 
d="M154 566q-11 0 -19 7.5t-8 18.5q0 14 10.5 23t22.5 9q11 0 19 -7.5t8 -18.5q0 -14 -10.5 -23t-22.5 -9zM41 0h-30l107 483h30z" />
    <glyph glyph-name="j" unicode="j" horiz-adv-x="160" 
d="M-59 -196q-44 0 -56 39l30 12q3 -24 27 -24q31 0 47 73l129 579h30l-129 -579q-13 -57 -31.5 -78.5t-46.5 -21.5zM154 566q-11 0 -19 7.5t-8 18.5q0 14 10.5 23t22.5 9q11 0 19 -7.5t8 -18.5q0 -14 -10.5 -23t-22.5 -9z" />
    <glyph glyph-name="k" unicode="k" horiz-adv-x="325" 
d="M247 0h-30l-56 244l-91 -112l-29 -132h-30l147 667h30l-107 -485l244 301h33l-177 -218z" />
    <glyph glyph-name="l" unicode="l" horiz-adv-x="160" 
d="M41 0h-30l147 667h30z" />
    <glyph glyph-name="m" unicode="m" horiz-adv-x="524" 
d="M405 0h-30l87 394q4 24 4 29q0 45 -44 45q-29 0 -61.5 -28.5t-56.5 -68.5l-81 -371h-30l87 394q4 22 4 31q0 43 -44 43q-29 0 -61.5 -28.5t-56.5 -68.5l-81 -371h-30l107 483h30l-15 -68q54 80 113 80q33 0 51 -17.5t18 -46.5q0 -9 -1 -16q57 80 114 80q33 0 51 -17.5
t18 -47.5q0 -8 -5 -36z" />
    <glyph glyph-name="n" unicode="n" 
d="M223 0h-30l87 394q4 18 4 29q0 45 -44 45q-29 0 -61.5 -28.5t-56.5 -68.5l-81 -371h-30l107 483h30l-15 -68q56 80 113 80q33 0 51 -17t18 -50q0 -16 -5 -34z" />
    <glyph glyph-name="o" unicode="o" horiz-adv-x="352" 
d="M130 -12q-99 0 -99 140q0 54 12 115.5t34.5 118.5t60.5 95t83 38q99 0 99 -140q0 -54 -12 -115.5t-34.5 -118.5t-60.5 -95t-83 -38zM132 15q45 0 83 63t55.5 139.5t17.5 136.5q0 114 -69 114q-45 0 -83 -63.5t-55.5 -140t-17.5 -136.5q0 -113 69 -113z" />
    <glyph glyph-name="p" unicode="p" horiz-adv-x="351" 
d="M138 -12q-26 0 -48.5 22.5t-32.5 65.5l-57 -260h-30l148 667h30l-15 -66q43 78 100 78q42 0 64.5 -35.5t22.5 -97.5q0 -46 -11.5 -107t-33 -122t-58 -103t-79.5 -42zM140 15q34 0 63.5 40t47 97t27.5 114t10 98q0 104 -62 104q-27 0 -56.5 -29.5t-47.5 -70.5l-56 -251
q3 -42 24.5 -72t49.5 -30z" />
    <glyph glyph-name="q" unicode="q" horiz-adv-x="351" 
d="M212 495q26 0 48.5 -22.5t32.5 -65.5l16 76h30l-148 -667h-30l56 250q-43 -78 -100 -78q-42 0 -64.5 35.5t-22.5 97.5q0 46 11.5 107t33 122t58 103t79.5 42zM210 468q-34 0 -63.5 -40t-47 -97t-27.5 -114t-10 -98q0 -104 62 -104q27 0 56.5 29.5t47.5 70.5l56 251
q-3 42 -24.5 72t-49.5 30z" />
    <glyph glyph-name="r" unicode="r" horiz-adv-x="227" 
d="M41 0h-30l107 483h30l-16 -73q25 42 55.5 62t77.5 20l-8 -35q-5 2 -19 2q-68 0 -117 -97z" />
    <glyph glyph-name="s" unicode="s" horiz-adv-x="278" 
d="M91 -12q-74 0 -102 63l25 19q24 -55 81 -55q38 0 66 32.5t28 75.5q0 28 -12.5 54t-30 46t-35 40.5t-30 47.5t-12.5 57q0 52 34 89.5t87 37.5q63 0 90 -54l-24 -19q-18 46 -69 46q-38 0 -62.5 -27t-24.5 -68q0 -31 19 -62.5t41 -53.5t41 -56.5t19 -70.5q0 -59 -37 -100.5
t-92 -41.5z" />
    <glyph glyph-name="t" unicode="t" horiz-adv-x="212" 
d="M93 -12q-57 0 -57 57q0 15 4 31l85 380h-52l6 27h52l29 132h30l-29 -132h70l-6 -27h-70l-85 -380q-4 -15 -4 -31q0 -30 31 -30q20 0 36 19l17 -20q-26 -26 -57 -26z" />
    <glyph glyph-name="u" unicode="u" 
d="M118 483h30l-87 -394q-4 -18 -4 -29q0 -45 44 -45q30 0 60.5 26t54.5 65l84 377h30l-107 -483h-30l15 68q-56 -80 -113 -80q-33 0 -51 17t-18 50q0 17 5 34z" />
    <glyph glyph-name="v" unicode="v" horiz-adv-x="279" 
d="M102 0h-35l2 483h32l-10 -448l191 448h34z" />
    <glyph glyph-name="w" unicode="w" horiz-adv-x="484" 
d="M310 0h-30l5 440l-189 -440h-30l7 483h32l-15 -436l186 436h36l-8 -436l179 436h34z" />
    <glyph glyph-name="x" unicode="x" horiz-adv-x="286" 
d="M212 0h-32l-42 217l-138 -217h-34l160 245l-47 238h32l37 -209l131 209h34l-153 -238z" />
    <glyph glyph-name="y" unicode="y" horiz-adv-x="279" 
d="M-67 -188l12 26q6 -7 23 -7t27.5 11.5t25.5 42.5l45 97l3 501h32l-9 -443l190 443h34l-272 -606q-33 -73 -79 -73q-20 0 -32 8z" />
    <glyph glyph-name="z" unicode="z" horiz-adv-x="275" 
d="M180 0h-193l5 27l253 429h-157l6 27h189l-6 -27l-251 -429h159z" />
    <glyph glyph-name="braceleft" unicode="{" horiz-adv-x="187" 
d="M73 -190h-28q-27 0 -46 19t-19 51q0 12 4 28l55 249q3 15 3 21q0 51 -39 51l7 30q52 0 68 72l56 254q21 93 100 93h32l-7 -30h-32q-49 0 -63 -63l-57 -258q-14 -68 -64 -87q29 -15 29 -53q0 -18 -4 -34l-55 -250q-2 -12 -2 -16q0 -22 11 -34.5t26 -12.5h32z" />
    <glyph glyph-name="bar" unicode="|" horiz-adv-x="174" 
d="M122 -20h-30v707h30v-707z" />
    <glyph glyph-name="braceright" unicode="}" horiz-adv-x="187" 
d="M113 678h28q27 0 46 -19t19 -53q0 -10 -4 -26l-55 -249q-3 -15 -3 -22q0 -50 39 -50l-7 -30q-52 0 -68 -72l-56 -254q-21 -93 -100 -93h-32l7 30h32q49 0 63 63l57 258q14 68 64 87q-29 15 -29 53q0 18 4 34l55 250q2 12 2 16q0 22 -11 34.5t-26 12.5h-32z" />
    <glyph glyph-name="asciitilde" unicode="~" horiz-adv-x="376" 
d="M411 667l30 -3q-57 -231 -143 -231q-35 0 -47.5 31.5t-9.5 69.5t-3 69.5t-29 31.5q-33 0 -58.5 -50t-51.5 -154l-29 5q56 229 142 229q35 0 47.5 -31.5t9.5 -70t3 -70t29 -31.5q33 0 58.5 50t51.5 155z" />
    <glyph glyph-name="nbspace" unicode="&#xa0;" horiz-adv-x="180" 
 />
    <glyph glyph-name="exclamdown" unicode="&#xa1;" horiz-adv-x="208" 
d="M111 322h20l-101 -506h-42zM154 492q13 0 21.5 -8.5t8.5 -21.5q0 -15 -10.5 -25t-25.5 -10q-13 0 -21.5 8.5t-8.5 21.5q0 15 10.5 25t25.5 10z" />
    <glyph glyph-name="cent" unicode="&#xa2;" horiz-adv-x="294" 
d="M88 -100l20 92q-76 21 -76 149q0 48 11.5 105.5t33.5 113t59.5 94t83.5 40.5l16 71h30l-16 -73q35 -8 58 -46l-24 -20q-15 30 -41 38l-100 -449q34 1 62 36l18 -22q-40 -41 -84 -41h-2l-19 -88h-30zM65 134q0 -97 49 -115l100 448q-48 -5 -84 -68.5t-50.5 -135
t-14.5 -129.5z" />
    <glyph glyph-name="sterling" unicode="&#xa3;" 
d="M35 267l6 30h87q-2 9 -11.5 38t-14 51.5t-4.5 48.5q0 96 48 169t115 73q45 0 74.5 -27.5t33.5 -73.5l-29 -13q-10 84 -79 84q-48 0 -88.5 -60.5t-40.5 -149.5q0 -25 5 -48.5t14 -50t12 -41.5h77l-6 -30h-67q1 -5 1 -14q0 -62 -35.5 -121t-78.5 -89q22 11 35 11
q23 0 56 -18t49 -18q39 0 69 38l14 -24q-15 -19 -40 -31.5t-49 -12.5q-32 0 -60.5 20t-46.5 20q-30 0 -74 -35l-13 29q55 32 98 97t43 127q0 14 -1 21h-99z" />
    <glyph glyph-name="currency" unicode="&#xa4;" horiz-adv-x="348" 
d="M160 101q-57 0 -83 46l-84 -70l-21 27l92 75q-7 25 -7 59q0 69 19.5 140t53.5 120l-58 73l27 22l53 -69q38 40 84 40q57 0 84 -45l86 71l21 -27l-94 -77q7 -25 7 -59q0 -70 -19.5 -141.5t-54.5 -119.5l59 -74l-27 -22l-54 70q-37 -39 -84 -39zM90 241q0 -43 17.5 -74.5
t56.5 -31.5q44 0 78.5 53t49.5 117t15 118q0 106 -75 106q-34 0 -62 -31t-45 -77.5t-26 -94t-9 -85.5z" />
    <glyph glyph-name="yen" unicode="&#xa5;" horiz-adv-x="322" 
d="M127 0h-32l28 129h-130l7 30h130l29 130h-130l6 30h119l-55 348h34l48 -339l200 339h36l-208 -348h109l-6 -30h-121l-29 -130h121l-7 -30h-121z" />
    <glyph glyph-name="brokenbar" unicode="&#xa6;" horiz-adv-x="174" 
d="M122 -20h-30v316h30v-316zM122 371h-30v316h30v-316z" />
    <glyph glyph-name="section" unicode="&#xa7;" horiz-adv-x="278" 
d="M258 314q0 -107 -100 -138q45 -49 45 -106q0 -61 -34.5 -106t-89.5 -45q-76 0 -110 61l26 19q25 -53 84 -53q38 0 65.5 34.5t27.5 83.5q0 32 -18.5 61.5t-40 49t-40 52.5t-18.5 70q0 51 30.5 87t84.5 41q-60 55 -60 120q0 57 35 94.5t80 37.5q68 0 98 -53l-25 -18
q-22 44 -74 44q-34 0 -58.5 -30t-24.5 -71q0 -32 18.5 -62.5t40 -50.5t40 -53t18.5 -69zM228 310q0 48 -40 95q-56 -5 -79.5 -35t-23.5 -70q0 -55 56 -106q87 30 87 116z" />
    <glyph glyph-name="dieresis" unicode="&#xa8;" horiz-adv-x="252" 
d="M293 601q0 -13 -9 -22t-22 -9q-10 0 -17.5 7t-7.5 18q0 13 9 22t22 9q10 0 17.5 -7t7.5 -18zM171 601q0 -13 -9 -22t-22 -9q-10 0 -17.5 7t-7.5 18q0 13 9 22t22 9q10 0 17.5 -7t7.5 -18z" />
    <glyph glyph-name="copyright" unicode="&#xa9;" horiz-adv-x="778" 
d="M754 334q0 -142 -101.5 -243.5t-244.5 -101.5q-142 0 -243 101t-101 244t101 244t243 101q143 0 244.5 -101.5t101.5 -243.5zM728 334q0 131 -94.5 225t-225.5 94t-224.5 -94t-93.5 -225t93.5 -225t224.5 -94t225.5 94t94.5 225zM504 193l15 -23q-61 -51 -131 -51
q-89 0 -140.5 54t-51.5 134q0 101 72.5 172t164.5 71q106 0 153 -80l-24 -17q-37 70 -129 70q-79 0 -143.5 -63t-64.5 -153q0 -67 46 -114t117 -47q69 0 116 47z" />
    <glyph glyph-name="ordfeminine" unicode="&#xaa;" horiz-adv-x="273" 
d="M211 624q-29 0 -53 -36.5t-36 -82.5t-12 -85q0 -78 47 -78q19 0 39 19.5t33 46.5l34 155q-2 24 -17 42.5t-35 18.5zM280 640h28l-69 -314h-28l10 47q-32 -55 -73 -55q-66 0 -66 102q0 47 13.5 98t43.5 90.5t69 39.5q20 0 38 -15t24 -39z" />
    <glyph glyph-name="guillemotleft" unicode="&#xab;" horiz-adv-x="273" 
d="M110 63h-31l-50 180l130 177h35l-133 -181zM200 63h-31l-50 180l130 177h35l-133 -181z" />
    <glyph glyph-name="logicalnot" unicode="&#xac;" horiz-adv-x="374" 
d="M390 448l-51 -228h-32l44 198h-284l7 30h316z" />
    <glyph glyph-name="uni00AD" unicode="&#xad;" horiz-adv-x="230" 
d="M196 227h-170l6 30h170z" />
    <glyph glyph-name="registered" unicode="&#xae;" horiz-adv-x="494" 
d="M508 465q0 -88 -62.5 -150t-150.5 -62t-149.5 62t-61.5 150t62 150t150 62t150 -61.5t62 -150.5zM482 465q0 78 -54.5 132t-132.5 54q-77 0 -131 -54t-54 -132q0 -77 54 -131.5t131 -54.5t132 54.5t55 131.5zM365 343h-35l-42 96h-49l-21 -96h-29l53 243h90q29 0 49 -17
t20 -47q0 -34 -24.5 -58t-55.5 -24zM370 518q0 19 -12 30t-29 11h-64l-20 -92h70q23 0 39 15t16 36z" />
    <glyph glyph-name="macron" unicode="&#xaf;" horiz-adv-x="240" 
d="M313 581h-239l6 27h239z" />
    <glyph glyph-name="degree" unicode="&#xb0;" horiz-adv-x="273" 
d="M318 566q0 -46 -32.5 -78t-78.5 -32t-78 32t-32 78t32 78.5t78 32.5t78.5 -32.5t32.5 -78.5zM288 566q0 33 -24 57t-57 24t-56.5 -24t-23.5 -57t23 -56.5t56 -23.5t57.5 23.5t24.5 56.5z" />
    <glyph glyph-name="plusminus" unicode="&#xb1;" horiz-adv-x="374" 
d="M362 322h-142l-36 -162h-32l36 162h-142l7 30h142l34 156h32l-34 -156h142zM304 60h-316l6 30h316z" />
    <glyph glyph-name="twosuperior" unicode="&#xb2;" horiz-adv-x="240" 
d="M250 421h-177l5 24q132 151 171 204.5t39 95.5q0 27 -14.5 41.5t-36.5 14.5q-41 0 -75 -52l-21 18q44 60 96 60q34 0 58 -21.5t24 -60.5q0 -46 -40.5 -101t-166.5 -197h143z" />
    <glyph glyph-name="threesuperior" unicode="&#xb3;" horiz-adv-x="240" 
d="M278 545q0 -46 -29 -88.5t-80 -42.5q-35 0 -58.5 19.5t-30.5 51.5l26 13q5 -26 22 -42t41 -16q38 0 58.5 36.5t20.5 79.5q0 29 -14.5 44t-35.5 15q-20 0 -25 -1l6 27q5 -1 28 -1q32 0 56 28.5t24 74.5q0 26 -13.5 42t-37.5 16q-39 0 -75 -51l-20 17q40 60 97 60
q38 0 58.5 -21.5t20.5 -62.5q0 -38 -22.5 -74t-60.5 -44q44 -15 44 -80z" />
    <glyph glyph-name="acute" unicode="&#xb4;" horiz-adv-x="119" 
d="M220 700l-127 -144h-26l110 144h43z" />
    <glyph glyph-name="mu" unicode="&#xb5;" horiz-adv-x="349" 
d="M45 16l-44 -200h-30l147 667h30l-87 -394q-16 -76 40 -76q59 0 116 94l83 376h30l-90 -407q-8 -31 -3.5 -46t23.5 -15q8 0 15 1l-3 -26q-8 -2 -18 -2q-32 0 -43 20t-3 62q-53 -82 -113 -82q-35 0 -50 28z" />
    <glyph glyph-name="paragraph" unicode="&#xb6;" horiz-adv-x="449" 
d="M280 -100h-30l164 737h-98l-164 -737h-30l94 423q-57 0 -97 44.5t-40 111.5q0 73 56.5 130.5t137.5 57.5h177z" />
    <glyph glyph-name="periodcentered" unicode="&#xb7;" horiz-adv-x="208" 
d="M101 212q-13 0 -21.5 8.5t-8.5 21.5q0 15 10.5 25t25.5 10q13 0 21.5 -8.5t8.5 -21.5q0 -15 -10.5 -25t-25.5 -10z" />
    <glyph glyph-name="cedilla" unicode="&#xb8;" horiz-adv-x="151" 
d="M-17 -187q-45 0 -72 35l19 24q20 -32 56 -32q24 0 40.5 17.5t16.5 41.5q0 30 -28 30q-16 0 -31 -15l-18 12l50 85h30l-43 -70q10 10 24 10q21 0 33.5 -15t12.5 -37q0 -35 -27 -60.5t-63 -25.5z" />
    <glyph glyph-name="onesuperior" unicode="&#xb9;" horiz-adv-x="190" 
d="M169 421h-30l78 356l-72 -64l-17 20l102 88h27z" />
    <glyph glyph-name="ordmasculine" unicode="&#xba;" horiz-adv-x="272" 
d="M163 318q-80 0 -80 104q0 29 7.5 65.5t22.5 73.5t41.5 62t59.5 25q80 0 80 -104q0 -29 -7.5 -65.5t-22.5 -73.5t-41.5 -62t-59.5 -25zM163 344q33 0 57.5 39.5t34.5 83.5t10 77q0 77 -52 77q-33 0 -57.5 -39t-34 -82.5t-9.5 -77.5q0 -78 51 -78z" />
    <glyph glyph-name="guillemotright" unicode="&#xbb;" horiz-adv-x="273" 
d="M73 420h31l50 -180l-130 -177h-35l133 181zM163 420h31l50 -180l-130 -177h-35l133 181z" />
    <glyph glyph-name="onequarter" unicode="&#xbc;" horiz-adv-x="514" 
d="M498 667l-417 -667h-32l416 667h33zM467 113h-38l-25 -113h-29l25 113h-135l6 27l184 260h37l-58 -261h38zM405 139l49 218l-156 -218h107zM135 267h-30l78 356l-72 -64l-17 20l102 88h27z" />
    <glyph glyph-name="onehalf" unicode="&#xbd;" horiz-adv-x="544" 
d="M498 667l-417 -667h-32l416 667h33zM461 0h-177l5 24q132 151 171 204.5t39 95.5q0 27 -14.5 41.5t-36.5 14.5q-41 0 -75 -52l-21 18q44 60 96 60q34 0 58 -21.5t24 -60.5q0 -46 -40.5 -101t-166.5 -197h143zM135 267h-30l78 356l-72 -64l-17 20l102 88h27z" />
    <glyph glyph-name="threequarters" unicode="&#xbe;" horiz-adv-x="550" 
d="M534 667l-417 -667h-32l416 667h33zM503 113h-38l-25 -113h-29l25 113h-135l6 27l184 260h37l-58 -261h38zM441 139l49 218l-156 -218h107zM244 391q0 -46 -29 -88.5t-80 -42.5q-35 0 -58.5 19.5t-30.5 51.5l26 13q5 -26 22 -42t41 -16q38 0 58.5 36.5t20.5 79.5
q0 29 -14.5 44t-35.5 15q-20 0 -25 -1l6 27q5 -1 28 -1q32 0 56 28.5t24 74.5q0 26 -13.5 42t-37.5 16q-39 0 -75 -51l-20 17q40 60 97 60q38 0 58.5 -21.5t20.5 -62.5q0 -38 -22.5 -74t-60.5 -44q44 -15 44 -80z" />
    <glyph glyph-name="questiondown" unicode="&#xbf;" horiz-adv-x="256" 
d="M139 297l30 17q13 -27 13 -63q0 -39 -19 -73.5t-46.5 -61l-55 -53t-46.5 -62t-19 -75.5q0 -37 21.5 -64t59.5 -27q39 0 76 27l13 -27q-41 -30 -89 -30q-53 0 -83.5 35t-30.5 80q0 44 19 83t46.5 67.5t55 55t46.5 56.5t19 61q0 33 -10 54zM197 492q13 0 21.5 -8.5
t8.5 -21.5q0 -15 -10.5 -25t-25.5 -10q-13 0 -21.5 8.5t-8.5 21.5q0 15 10.5 25t25.5 10z" />
    <glyph glyph-name="Agrave" unicode="&#xc0;" horiz-adv-x="312" 
d="M292 723h-24l-63 144h41zM246 0h-32l7 179h-158l-71 -179h-34l272 667h38zM223 209l17 411l-165 -411h148z" />
    <glyph glyph-name="Aacute" unicode="&#xc1;" horiz-adv-x="312" 
d="M382 867l-127 -144h-26l110 144h43zM246 0h-32l7 179h-158l-71 -179h-34l272 667h38zM223 209l17 411l-165 -411h148z" />
    <glyph glyph-name="Acircumflex" unicode="&#xc2;" horiz-adv-x="312" 
d="M348 723h-21l-41 116l-88 -116h-25l100 144h36zM246 0h-32l7 179h-158l-71 -179h-34l272 667h38zM223 209l17 411l-165 -411h148z" />
    <glyph glyph-name="Atilde" unicode="&#xc3;" horiz-adv-x="312" 
d="M302 721q-21 0 -29.5 17.5t-7.5 39t-3.5 39t-18.5 17.5q-35 0 -58 -107h-23q14 63 34 98.5t54 35.5q21 0 29.5 -17.5t7.5 -39t3.5 -39t18.5 -17.5q35 0 59 107h23q-30 -134 -89 -134zM246 0h-32l7 179h-158l-71 -179h-34l272 667h38zM223 209l17 411l-165 -411h148z" />
    <glyph glyph-name="Adieresis" unicode="&#xc4;" horiz-adv-x="312" 
d="M359 768q0 -13 -9 -22t-22 -9q-10 0 -17.5 7.5t-7.5 17.5q0 13 9 22t22 9q10 0 17.5 -7.5t7.5 -17.5zM237 768q0 -13 -9 -22t-22 -9q-10 0 -17.5 7.5t-7.5 17.5q0 13 9 22t22 9q10 0 17.5 -7.5t7.5 -17.5zM246 0h-32l7 179h-158l-71 -179h-34l272 667h38zM223 209l17 411
l-165 -411h148z" />
    <glyph glyph-name="Aring" unicode="&#xc5;" horiz-adv-x="312" 
d="M264 692q-30 0 -49.5 20.5t-19.5 51.5q0 34 26 60t60 26q30 0 49.5 -20.5t19.5 -51.5q0 -34 -26 -60t-60 -26zM265 716q25 0 43 18t18 43q0 21 -13 35t-33 14q-25 0 -43 -18t-18 -43q0 -21 13 -35t33 -14zM246 0h-32l7 179h-158l-71 -179h-34l272 667h38zM223 209l17 411
l-165 -411h148z" />
    <glyph glyph-name="AE" unicode="&#xc6;" horiz-adv-x="509" 
d="M402 0h-210l39 179h-134l-94 -179h-35l358 667h223l-6 -30h-178l-62 -279h171l-7 -30h-171l-66 -298h178zM238 209l90 406l-215 -406h125z" />
    <glyph glyph-name="Ccedilla" unicode="&#xc7;" horiz-adv-x="357" 
d="M106 -187q-45 0 -72 35l19 24q20 -32 56 -32q24 0 40.5 17.5t16.5 41.5q0 30 -28 30q-16 0 -31 -15l-18 12l38 65q-80 20 -80 167q0 59 14 141.5t40.5 170t74.5 148t106 60.5q87 0 102 -123l-31 -6q-10 99 -76 99q-46 0 -85 -59t-62 -142t-35.5 -162t-12.5 -131
q0 -72 17.5 -104t55.5 -32q28 0 51.5 22t50.5 66l26 -16q-59 -99 -128 -102l-29 -47q10 10 24 10q21 0 33.5 -15t12.5 -37q0 -35 -27 -60.5t-63 -25.5z" />
    <glyph glyph-name="Egrave" unicode="&#xc8;" horiz-adv-x="330" 
d="M310 723h-24l-63 144h41zM228 0h-210l147 667h210l-6 -30h-178l-62 -279h171l-7 -30h-171l-66 -298h178z" />
    <glyph glyph-name="Eacute" unicode="&#xc9;" horiz-adv-x="330" 
d="M402 867l-127 -144h-26l110 144h43zM228 0h-210l147 667h210l-6 -30h-178l-62 -279h171l-7 -30h-171l-66 -298h178z" />
    <glyph glyph-name="Ecircumflex" unicode="&#xca;" horiz-adv-x="330" 
d="M370 723h-21l-41 116l-88 -116h-25l100 144h36zM228 0h-210l147 667h210l-6 -30h-178l-62 -279h171l-7 -30h-171l-66 -298h178z" />
    <glyph glyph-name="Edieresis" unicode="&#xcb;" horiz-adv-x="330" 
d="M380 768q0 -13 -9 -22t-22 -9q-11 0 -18 7.5t-7 17.5q0 13 9 22t22 9q11 0 18 -7.5t7 -17.5zM258 768q0 -13 -9 -22t-22 -9q-11 0 -18 7.5t-7 17.5q0 13 9 22t22 9q11 0 18 -7.5t7 -17.5zM228 0h-210l147 667h210l-6 -30h-178l-62 -279h171l-7 -30h-171l-66 -298h178z
" />
    <glyph glyph-name="Igrave" unicode="&#xcc;" horiz-adv-x="176" 
d="M224 723h-24l-63 144h41zM50 0h-32l147 667h32z" />
    <glyph glyph-name="Iacute" unicode="&#xcd;" horiz-adv-x="176" 
d="M314 867l-127 -144h-26l110 144h43zM50 0h-32l147 667h32z" />
    <glyph glyph-name="Icircumflex" unicode="&#xce;" horiz-adv-x="176" 
d="M282 723h-21l-41 116l-88 -116h-25l100 144h36zM50 0h-32l147 667h32z" />
    <glyph glyph-name="Idieresis" unicode="&#xcf;" horiz-adv-x="176" 
d="M293 768q0 -13 -9 -22t-22 -9q-10 0 -17.5 7.5t-7.5 17.5q0 13 9 22t22 9q10 0 17.5 -7.5t7.5 -17.5zM171 768q0 -13 -9 -22t-22 -9q-10 0 -17.5 7.5t-7.5 17.5q0 13 9 22t22 9q10 0 17.5 -7.5t7.5 -17.5zM50 0h-32l147 667h32z" />
    <glyph glyph-name="Eth" unicode="&#xd0;" horiz-adv-x="402" 
d="M128 0h-94l70 319h-62l7 30h62l70 318h91q48 0 81.5 -44.5t33.5 -140.5q0 -31 -6.5 -82.5t-24.5 -123t-45.5 -131.5t-75.5 -102.5t-107 -42.5zM233 319h-97l-64 -289h61q47 0 86.5 39.5t63 96t40.5 122t23.5 115.5t6.5 79q0 79 -24.5 117t-62.5 38h-59l-64 -288h97z" />
    <glyph glyph-name="Ntilde" unicode="&#xd1;" horiz-adv-x="395" 
d="M345 721q-21 0 -29.5 17.5t-7.5 39t-3.5 39t-18.5 17.5q-35 0 -58 -107h-23q14 63 34 98.5t54 35.5q21 0 29.5 -17.5t7.5 -39t3.5 -39t18.5 -17.5q35 0 59 107h23q-30 -134 -89 -134zM269 0h-32l-59 579l-128 -579h-32l147 667h32l60 -572l127 572h32z" />
    <glyph glyph-name="Ograve" unicode="&#xd2;" horiz-adv-x="396" 
d="M333 723h-24l-63 144h41zM151 -12q-104 0 -104 170q0 56 14 138.5t40.5 170.5t74.5 149.5t106 61.5q55 0 80 -48t25 -123q0 -56 -14 -138t-41 -170t-75 -149.5t-106 -61.5zM155 18q44 0 83 56t62.5 136.5t37.5 161.5t14 138q0 138 -75 138q-44 0 -82.5 -56.5t-62 -137.5
t-37 -161.5t-13.5 -138.5q0 -136 73 -136z" />
    <glyph glyph-name="Oacute" unicode="&#xd3;" horiz-adv-x="396" 
d="M425 867l-127 -144h-26l110 144h43zM151 -12q-104 0 -104 170q0 56 14 138.5t40.5 170.5t74.5 149.5t106 61.5q55 0 80 -48t25 -123q0 -56 -14 -138t-41 -170t-75 -149.5t-106 -61.5zM155 18q44 0 83 56t62.5 136.5t37.5 161.5t14 138q0 138 -75 138q-44 0 -82.5 -56.5
t-62 -137.5t-37 -161.5t-13.5 -138.5q0 -136 73 -136z" />
    <glyph glyph-name="Ocircumflex" unicode="&#xd4;" horiz-adv-x="396" 
d="M392 723h-21l-41 116l-88 -116h-25l100 144h36zM151 -12q-104 0 -104 170q0 56 14 138.5t40.5 170.5t74.5 149.5t106 61.5q55 0 80 -48t25 -123q0 -56 -14 -138t-41 -170t-75 -149.5t-106 -61.5zM155 18q44 0 83 56t62.5 136.5t37.5 161.5t14 138q0 138 -75 138
q-44 0 -82.5 -56.5t-62 -137.5t-37 -161.5t-13.5 -138.5q0 -136 73 -136z" />
    <glyph glyph-name="Otilde" unicode="&#xd5;" horiz-adv-x="396" 
d="M345 721q-21 0 -29.5 17.5t-7.5 39t-3.5 39t-18.5 17.5q-35 0 -58 -107h-23q14 63 34 98.5t54 35.5q21 0 29.5 -17.5t7.5 -39t3.5 -39t18.5 -17.5q35 0 59 107h23q-30 -134 -89 -134zM151 -12q-104 0 -104 170q0 56 14 138.5t40.5 170.5t74.5 149.5t106 61.5q55 0 80 -48
t25 -123q0 -56 -14 -138t-41 -170t-75 -149.5t-106 -61.5zM155 18q44 0 83 56t62.5 136.5t37.5 161.5t14 138q0 138 -75 138q-44 0 -82.5 -56.5t-62 -137.5t-37 -161.5t-13.5 -138.5q0 -136 73 -136z" />
    <glyph glyph-name="Odieresis" unicode="&#xd6;" horiz-adv-x="396" 
d="M401 768q0 -13 -9 -22t-22 -9q-10 0 -17.5 7.5t-7.5 17.5q0 13 9 22t22 9q10 0 17.5 -7.5t7.5 -17.5zM279 768q0 -13 -9 -22t-22 -9q-10 0 -17.5 7.5t-7.5 17.5q0 13 9 22t22 9q10 0 17.5 -7.5t7.5 -17.5zM151 -12q-104 0 -104 170q0 56 14 138.5t40.5 170.5t74.5 149.5
t106 61.5q55 0 80 -48t25 -123q0 -56 -14 -138t-41 -170t-75 -149.5t-106 -61.5zM155 18q44 0 83 56t62.5 136.5t37.5 161.5t14 138q0 138 -75 138q-44 0 -82.5 -56.5t-62 -137.5t-37 -161.5t-13.5 -138.5q0 -136 73 -136z" />
    <glyph glyph-name="multiply" unicode="&#xd7;" horiz-adv-x="374" 
d="M290 201l-86 112l-138 -114l-19 24l139 113l-88 111l25 20l86 -112l138 114l19 -24l-138 -113l87 -111z" />
    <glyph glyph-name="Oslash" unicode="&#xd8;" horiz-adv-x="396" 
d="M151 -12q-58 0 -84 56l-26 -44h-33l46 80q-7 34 -7 78q0 56 14 138.5t40.5 170.5t74.5 149.5t106 61.5t85 -58l27 47h33l-48 -84q8 -37 8 -76q0 -56 -14 -138t-41 -170t-75 -149.5t-106 -61.5zM82 154v-25l263 453q-16 66 -68 66q-44 0 -82.5 -56.5t-62 -137.5
t-37 -161.5t-13.5 -138.5zM155 18q44 0 83 56t62.5 136.5t37.5 161.5t14 138q0 17 -1 26l-263 -454q16 -64 67 -64z" />
    <glyph glyph-name="Ugrave" unicode="&#xd9;" horiz-adv-x="396" 
d="M333 723h-24l-63 144h41zM158 -12q-51 0 -81 30.5t-30 87.5q0 26 5 48l113 513h32l-113 -513q-5 -20 -5 -42q0 -46 22.5 -70t59.5 -24q43 0 69 31t42 105l113 513h32l-113 -513q-20 -88 -53.5 -127t-92.5 -39z" />
    <glyph glyph-name="Uacute" unicode="&#xda;" horiz-adv-x="396" 
d="M425 867l-127 -144h-26l110 144h43zM158 -12q-51 0 -81 30.5t-30 87.5q0 26 5 48l113 513h32l-113 -513q-5 -20 -5 -42q0 -46 22.5 -70t59.5 -24q43 0 69 31t42 105l113 513h32l-113 -513q-20 -88 -53.5 -127t-92.5 -39z" />
    <glyph glyph-name="Ucircumflex" unicode="&#xdb;" horiz-adv-x="396" 
d="M391 723h-21l-41 116l-88 -116h-25l100 144h36zM158 -12q-51 0 -81 30.5t-30 87.5q0 26 5 48l113 513h32l-113 -513q-5 -20 -5 -42q0 -46 22.5 -70t59.5 -24q43 0 69 31t42 105l113 513h32l-113 -513q-20 -88 -53.5 -127t-92.5 -39z" />
    <glyph glyph-name="Udieresis" unicode="&#xdc;" horiz-adv-x="396" 
d="M401 768q0 -13 -9 -22t-22 -9q-10 0 -17.5 7.5t-7.5 17.5q0 13 9 22t22 9q10 0 17.5 -7.5t7.5 -17.5zM279 768q0 -13 -9 -22t-22 -9q-10 0 -17.5 7.5t-7.5 17.5q0 13 9 22t22 9q10 0 17.5 -7.5t7.5 -17.5zM158 -12q-51 0 -81 30.5t-30 87.5q0 26 5 48l113 513h32
l-113 -513q-5 -20 -5 -42q0 -46 22.5 -70t59.5 -24q43 0 69 31t42 105l113 513h32l-113 -513q-20 -88 -53.5 -127t-92.5 -39z" />
    <glyph glyph-name="Yacute" unicode="&#xdd;" horiz-adv-x="322" 
d="M388 867l-127 -144h-26l110 144h43zM123 0h-32l64 289l-60 378h34l48 -339l200 339h36l-226 -378z" />
    <glyph glyph-name="Thorn" unicode="&#xde;" horiz-adv-x="341" 
d="M50 0h-32l147 667h32l-28 -129h57q49 0 78 -37.5t29 -98.5q0 -39 -10.5 -79.5t-31.5 -78t-57.5 -61t-83.5 -23.5h-65zM155 190q68 0 105.5 65t37.5 147q0 49 -20.5 77.5t-58.5 28.5h-57l-70 -318h63z" />
    <glyph glyph-name="germandbls" unicode="&#xdf;" horiz-adv-x="396" 
d="M352 126q0 -54 -35.5 -96t-90.5 -42q-72 0 -108 62l26 21q31 -56 82 -56q38 0 66.5 31.5t28.5 80.5q0 30 -18.5 58.5t-40.5 48t-40.5 51t-18.5 68.5q0 35 15.5 61.5t37.5 43.5t43.5 33t37 37.5t15.5 48.5q0 34 -20 53.5t-57 19.5q-35 0 -62 -26t-39 -80l-120 -544h-30
l120 544q15 65 51 99t83 34t75 -26.5t28 -70.5q0 -29 -11 -51.5t-27.5 -36.5t-35.5 -28.5t-35.5 -27.5t-27.5 -33t-11 -45q0 -31 18.5 -60t41 -49t41 -52.5t18.5 -70.5z" />
    <glyph glyph-name="agrave" unicode="&#xe0;" horiz-adv-x="351" 
d="M212 495q26 0 48.5 -22.5t32.5 -65.5l16 76h30l-107 -483h-30l15 66q-43 -78 -100 -78q-42 0 -64.5 35.5t-22.5 97.5q0 46 11.5 107t33 122t58 103t79.5 42zM210 468q-34 0 -63.5 -40t-47 -97t-27.5 -114t-10 -98q0 -104 62 -104q27 0 56.5 29.5t47.5 70.5l56 251
q-3 42 -24.5 72t-49.5 30zM268 556h-24l-63 144h41z" />
    <glyph glyph-name="aacute" unicode="&#xe1;" horiz-adv-x="351" 
d="M212 495q26 0 48.5 -22.5t32.5 -65.5l16 76h30l-107 -483h-30l15 66q-43 -78 -100 -78q-42 0 -64.5 35.5t-22.5 97.5q0 46 11.5 107t33 122t58 103t79.5 42zM210 468q-34 0 -63.5 -40t-47 -97t-27.5 -114t-10 -98q0 -104 62 -104q27 0 56.5 29.5t47.5 70.5l56 251
q-3 42 -24.5 72t-49.5 30zM359 700l-127 -144h-26l110 144h43z" />
    <glyph glyph-name="acircumflex" unicode="&#xe2;" horiz-adv-x="351" 
d="M212 495q26 0 48.5 -22.5t32.5 -65.5l16 76h30l-107 -483h-30l15 66q-43 -78 -100 -78q-42 0 -64.5 35.5t-22.5 97.5q0 46 11.5 107t33 122t58 103t79.5 42zM210 468q-34 0 -63.5 -40t-47 -97t-27.5 -114t-10 -98q0 -104 62 -104q27 0 56.5 29.5t47.5 70.5l56 251
q-3 42 -24.5 72t-49.5 30zM325 556h-21l-41 116l-88 -116h-25l100 144h36z" />
    <glyph glyph-name="atilde" unicode="&#xe3;" horiz-adv-x="351" 
d="M212 495q26 0 48.5 -22.5t32.5 -65.5l16 76h30l-107 -483h-30l15 66q-43 -78 -100 -78q-42 0 -64.5 35.5t-22.5 97.5q0 46 11.5 107t33 122t58 103t79.5 42zM210 468q-34 0 -63.5 -40t-47 -97t-27.5 -114t-10 -98q0 -104 62 -104q27 0 56.5 29.5t47.5 70.5l56 251
q-3 42 -24.5 72t-49.5 30zM278 554q-21 0 -29.5 17.5t-7.5 39t-3.5 39t-18.5 17.5q-35 0 -58 -107h-23q14 63 34 98.5t54 35.5q21 0 29.5 -17.5t7.5 -39t3.5 -39t18.5 -17.5q35 0 59 107h23q-30 -134 -89 -134z" />
    <glyph glyph-name="adieresis" unicode="&#xe4;" horiz-adv-x="351" 
d="M212 495q26 0 48.5 -22.5t32.5 -65.5l16 76h30l-107 -483h-30l15 66q-43 -78 -100 -78q-42 0 -64.5 35.5t-22.5 97.5q0 46 11.5 107t33 122t58 103t79.5 42zM210 468q-34 0 -63.5 -40t-47 -97t-27.5 -114t-10 -98q0 -104 62 -104q27 0 56.5 29.5t47.5 70.5l56 251
q-3 42 -24.5 72t-49.5 30zM336 601q0 -13 -9 -22t-22 -9q-11 0 -18 7t-7 18q0 13 9 22t22 9q11 0 18 -7t7 -18zM214 601q0 -13 -9 -22t-22 -9q-11 0 -18 7t-7 18q0 13 9 22t22 9q11 0 18 -7t7 -18z" />
    <glyph glyph-name="aring" unicode="&#xe5;" horiz-adv-x="351" 
d="M212 495q26 0 48.5 -22.5t32.5 -65.5l16 76h30l-107 -483h-30l15 66q-43 -78 -100 -78q-42 0 -64.5 35.5t-22.5 97.5q0 46 11.5 107t33 122t58 103t79.5 42zM210 468q-34 0 -63.5 -40t-47 -97t-27.5 -114t-10 -98q0 -104 62 -104q27 0 56.5 29.5t47.5 70.5l56 251
q-3 42 -24.5 72t-49.5 30zM244 546q-30 0 -49.5 20.5t-19.5 51.5q0 34 26 60t60 26q30 0 49.5 -20.5t19.5 -51.5q0 -34 -26 -60t-60 -26zM245 570q25 0 43 18t18 43q0 21 -13 35t-33 14q-25 0 -43 -18t-18 -43q0 -21 13 -35t33 -14z" />
    <glyph glyph-name="ae" unicode="&#xe6;" horiz-adv-x="553" 
d="M210 468q-34 0 -63.5 -40t-47 -97t-27.5 -114t-10 -98q0 -104 62 -104q27 0 56.5 29.5t47.5 70.5l56 251q-3 42 -24.5 72t-49.5 30zM257 111l-25 -111h-30l15 66q-43 -78 -100 -78q-42 0 -64.5 35.5t-22.5 97.5q0 46 11.5 107t33 122t58 103t79.5 42q26 0 48.5 -22.5
t32.5 -65.5l16 76h30l-17 -78q46 90 109 90q96 0 96 -136q0 -62 -18 -127h-225q-10 -47 -10 -91q0 -59 22.5 -92.5t63.5 -33.5q45 0 87 64l23 -19q-52 -72 -109 -72q-94 0 -104 123zM289 259h194q12 57 12 96q0 113 -66 113q-36 0 -66.5 -36.5t-47.5 -80.5t-26 -92z" />
    <glyph glyph-name="ccedilla" unicode="&#xe7;" horiz-adv-x="294" 
d="M93 -187q-45 0 -72 35l19 24q20 -32 56 -32q24 0 40.5 17.5t16.5 41.5q0 30 -28 30q-16 0 -31 -15l-18 12l38 65q-82 16 -82 150q0 49 12 107.5t34.5 115t62 94t86.5 37.5q53 0 81 -49l-24 -20q-20 42 -61 42q-39 0 -71 -37t-50 -91.5t-27.5 -108.5t-9.5 -97
q0 -119 74 -119q37 0 66 36l18 -22q-38 -40 -81 -41l-29 -47q10 10 24 10q21 0 33.5 -15t12.5 -37q0 -35 -27 -60.5t-63 -25.5z" />
    <glyph glyph-name="egrave" unicode="&#xe8;" horiz-adv-x="346" 
d="M149 -12q-55 0 -86.5 38t-31.5 114q0 36 9.5 89.5t29 116t59 106t90.5 43.5q101 0 101 -136q0 -62 -18 -127h-228q-10 -47 -10 -91q0 -59 21.5 -92.5t62.5 -33.5q47 0 89 64l23 -19q-52 -72 -111 -72zM79 259h197q12 57 12 96q0 49 -17.5 81t-53.5 32t-66 -36.5
t-46.5 -80.5t-25.5 -92zM282 556h-24l-63 144h41z" />
    <glyph glyph-name="eacute" unicode="&#xe9;" horiz-adv-x="346" 
d="M149 -12q-55 0 -86.5 38t-31.5 114q0 36 9.5 89.5t29 116t59 106t90.5 43.5q101 0 101 -136q0 -62 -18 -127h-228q-10 -47 -10 -91q0 -59 21.5 -92.5t62.5 -33.5q47 0 89 64l23 -19q-52 -72 -111 -72zM79 259h197q12 57 12 96q0 49 -17.5 81t-53.5 32t-66 -36.5
t-46.5 -80.5t-25.5 -92zM371 700l-127 -144h-26l110 144h43z" />
    <glyph glyph-name="ecircumflex" unicode="&#xea;" horiz-adv-x="346" 
d="M149 -12q-55 0 -86.5 38t-31.5 114q0 36 9.5 89.5t29 116t59 106t90.5 43.5q101 0 101 -136q0 -62 -18 -127h-228q-10 -47 -10 -91q0 -59 21.5 -92.5t62.5 -33.5q47 0 89 64l23 -19q-52 -72 -111 -72zM79 259h197q12 57 12 96q0 49 -17.5 81t-53.5 32t-66 -36.5
t-46.5 -80.5t-25.5 -92zM336 556h-21l-41 116l-88 -116h-25l100 144h36z" />
    <glyph glyph-name="edieresis" unicode="&#xeb;" horiz-adv-x="346" 
d="M149 -12q-55 0 -86.5 38t-31.5 114q0 36 9.5 89.5t29 116t59 106t90.5 43.5q101 0 101 -136q0 -62 -18 -127h-228q-10 -47 -10 -91q0 -59 21.5 -92.5t62.5 -33.5q47 0 89 64l23 -19q-52 -72 -111 -72zM79 259h197q12 57 12 96q0 49 -17.5 81t-53.5 32t-66 -36.5
t-46.5 -80.5t-25.5 -92zM348 601q0 -13 -9 -22t-22 -9q-11 0 -18 7t-7 18q0 13 9 22t22 9q11 0 18 -7t7 -18zM226 601q0 -13 -9 -22t-22 -9q-11 0 -18 7t-7 18q0 13 9 22t22 9q11 0 18 -7t7 -18z" />
    <glyph glyph-name="igrave" unicode="&#xec;" horiz-adv-x="160" 
d="M179 556h-24l-63 144h41zM41 0h-30l107 483h30z" />
    <glyph glyph-name="iacute" unicode="&#xed;" horiz-adv-x="160" 
d="M270 700l-127 -144h-26l110 144h43zM41 0h-30l107 483h30z" />
    <glyph glyph-name="icircumflex" unicode="&#xee;" horiz-adv-x="160" 
d="M237 556h-21l-41 116l-88 -116h-25l100 144h36zM41 0h-30l107 483h30z" />
    <glyph glyph-name="idieresis" unicode="&#xef;" horiz-adv-x="160" 
d="M247 601q0 -13 -9 -22t-22 -9q-10 0 -17.5 7t-7.5 18q0 13 9 22t22 9q10 0 17.5 -7t7.5 -18zM125 601q0 -13 -9 -22t-22 -9q-10 0 -17.5 7t-7.5 18q0 13 9 22t22 9q10 0 17.5 -7t7.5 -18zM41 0h-30l107 483h30z" />
    <glyph glyph-name="eth" unicode="&#xf0;" horiz-adv-x="352" 
d="M165 530l-6 25l112 34q-11 45 -23 78l33 11q16 -52 22 -80l79 24l6 -24l-80 -25q16 -78 16 -168q0 -60 -11 -128t-32.5 -135t-60 -110.5t-86.5 -43.5q-53 0 -77.5 36.5t-24.5 112.5q0 72 21 152.5t65.5 143t99.5 62.5q27 0 48 -17t28 -50q-2 61 -17 136zM134 15
q35 0 66 40t49 97t28.5 113t10.5 95q0 42 -17 75t-53 33q-47 0 -84.5 -67.5t-53.5 -142.5t-16 -127q0 -116 70 -116z" />
    <glyph glyph-name="ntilde" unicode="&#xf1;" 
d="M223 0h-30l87 394q4 18 4 29q0 45 -44 45q-29 0 -61.5 -28.5t-56.5 -68.5l-81 -371h-30l107 483h30l-15 -68q56 80 113 80q33 0 51 -17t18 -50q0 -16 -5 -34zM282 554q-21 0 -29.5 17.5t-7.5 39t-3.5 39t-18.5 17.5q-35 0 -58 -107h-23q14 63 34 98.5t54 35.5
q21 0 29.5 -17.5t7.5 -39t3.5 -39t18.5 -17.5q35 0 59 107h23q-30 -134 -89 -134z" />
    <glyph glyph-name="ograve" unicode="&#xf2;" horiz-adv-x="352" 
d="M130 -12q-99 0 -99 140q0 54 12 115.5t34.5 118.5t60.5 95t83 38q99 0 99 -140q0 -54 -12 -115.5t-34.5 -118.5t-60.5 -95t-83 -38zM132 15q45 0 83 63t55.5 139.5t17.5 136.5q0 114 -69 114q-45 0 -83 -63.5t-55.5 -140t-17.5 -136.5q0 -113 69 -113zM276 556h-24
l-63 144h41z" />
    <glyph glyph-name="oacute" unicode="&#xf3;" horiz-adv-x="352" 
d="M130 -12q-99 0 -99 140q0 54 12 115.5t34.5 118.5t60.5 95t83 38q99 0 99 -140q0 -54 -12 -115.5t-34.5 -118.5t-60.5 -95t-83 -38zM132 15q45 0 83 63t55.5 139.5t17.5 136.5q0 114 -69 114q-45 0 -83 -63.5t-55.5 -140t-17.5 -136.5q0 -113 69 -113zM365 700l-127 -144
h-26l110 144h43z" />
    <glyph glyph-name="ocircumflex" unicode="&#xf4;" horiz-adv-x="352" 
d="M130 -12q-99 0 -99 140q0 54 12 115.5t34.5 118.5t60.5 95t83 38q99 0 99 -140q0 -54 -12 -115.5t-34.5 -118.5t-60.5 -95t-83 -38zM132 15q45 0 83 63t55.5 139.5t17.5 136.5q0 114 -69 114q-45 0 -83 -63.5t-55.5 -140t-17.5 -136.5q0 -113 69 -113zM333 556h-21
l-41 116l-88 -116h-25l100 144h36z" />
    <glyph glyph-name="otilde" unicode="&#xf5;" horiz-adv-x="352" 
d="M130 -12q-99 0 -99 140q0 54 12 115.5t34.5 118.5t60.5 95t83 38q99 0 99 -140q0 -54 -12 -115.5t-34.5 -118.5t-60.5 -95t-83 -38zM132 15q45 0 83 63t55.5 139.5t17.5 136.5q0 114 -69 114q-45 0 -83 -63.5t-55.5 -140t-17.5 -136.5q0 -113 69 -113zM286 554
q-21 0 -29.5 17.5t-7.5 39t-3.5 39t-18.5 17.5q-35 0 -58 -107h-23q14 63 34 98.5t54 35.5q21 0 29.5 -17.5t7.5 -39t3.5 -39t18.5 -17.5q35 0 59 107h23q-30 -134 -89 -134z" />
    <glyph glyph-name="odieresis" unicode="&#xf6;" horiz-adv-x="352" 
d="M130 -12q-99 0 -99 140q0 54 12 115.5t34.5 118.5t60.5 95t83 38q99 0 99 -140q0 -54 -12 -115.5t-34.5 -118.5t-60.5 -95t-83 -38zM132 15q45 0 83 63t55.5 139.5t17.5 136.5q0 114 -69 114q-45 0 -83 -63.5t-55.5 -140t-17.5 -136.5q0 -113 69 -113zM343 601
q0 -13 -9 -22t-22 -9q-10 0 -17.5 7t-7.5 18q0 13 9 22t22 9q10 0 17.5 -7t7.5 -18zM221 601q0 -13 -9 -22t-22 -9q-10 0 -17.5 7t-7.5 18q0 13 9 22t22 9q10 0 17.5 -7t7.5 -18z" />
    <glyph glyph-name="divide" unicode="&#xf7;" horiz-adv-x="374" 
d="M362 322h-316l7 30h316zM174 161q-13 0 -21.5 8.5t-8.5 21.5q0 15 10.5 25t25.5 10q13 0 21.5 -8.5t8.5 -21.5q0 -15 -10.5 -25t-25.5 -10zM237 443q-13 0 -21.5 8.5t-8.5 21.5q0 15 10.5 25t25.5 10q13 0 21.5 -8.5t8.5 -21.5q0 -15 -10.5 -25t-25.5 -10z" />
    <glyph glyph-name="oslash" unicode="&#xf8;" horiz-adv-x="352" 
d="M33 0h-31l38 58q-9 28 -9 70q0 54 12 115.5t34.5 118.5t60.5 95t83 38q53 0 78 -41l19 29h31l-38 -58q9 -34 9 -70q0 -54 -12 -115.5t-34.5 -118.5t-60.5 -95t-83 -38q-54 0 -78 41zM132 15q45 0 83 63t55.5 139.5t17.5 136.5q0 13 -2 33l-214 -327q15 -45 60 -45z
M63 128q0 -23 1 -32l214 327q-15 45 -59 45q-45 0 -83 -63.5t-55.5 -140t-17.5 -136.5z" />
    <glyph glyph-name="ugrave" unicode="&#xf9;" 
d="M118 483h30l-87 -394q-4 -18 -4 -29q0 -45 44 -45q30 0 60.5 26t54.5 65l84 377h30l-107 -483h-30l15 68q-56 -80 -113 -80q-33 0 -51 17t-18 50q0 17 5 34zM272 556h-24l-63 144h41z" />
    <glyph glyph-name="uacute" unicode="&#xfa;" 
d="M118 483h30l-87 -394q-4 -18 -4 -29q0 -45 44 -45q30 0 60.5 26t54.5 65l84 377h30l-107 -483h-30l15 68q-56 -80 -113 -80q-33 0 -51 17t-18 50q0 17 5 34zM361 700l-127 -144h-26l110 144h43z" />
    <glyph glyph-name="ucircumflex" unicode="&#xfb;" 
d="M118 483h30l-87 -394q-4 -18 -4 -29q0 -45 44 -45q30 0 60.5 26t54.5 65l84 377h30l-107 -483h-30l15 68q-56 -80 -113 -80q-33 0 -51 17t-18 50q0 17 5 34zM329 556h-21l-41 116l-88 -116h-25l100 144h36z" />
    <glyph glyph-name="udieresis" unicode="&#xfc;" 
d="M118 483h30l-87 -394q-4 -18 -4 -29q0 -45 44 -45q30 0 60.5 26t54.5 65l84 377h30l-107 -483h-30l15 68q-56 -80 -113 -80q-33 0 -51 17t-18 50q0 17 5 34zM339 601q0 -13 -9 -22t-22 -9q-10 0 -17.5 7t-7.5 18q0 13 9 22t22 9q10 0 17.5 -7t7.5 -18zM217 601
q0 -13 -9 -22t-22 -9q-10 0 -17.5 7t-7.5 18q0 13 9 22t22 9q10 0 17.5 -7t7.5 -18z" />
    <glyph glyph-name="yacute" unicode="&#xfd;" horiz-adv-x="279" 
d="M-67 -188l12 26q6 -7 23 -7t27.5 11.5t25.5 42.5l45 97l3 501h32l-9 -443l190 443h34l-272 -606q-33 -73 -79 -73q-20 0 -32 8zM326 700l-127 -144h-26l110 144h43z" />
    <glyph glyph-name="thorn" unicode="&#xfe;" horiz-adv-x="351" 
d="M138 -12q-26 0 -48.5 22.5t-32.5 65.5l-57 -260h-30l188 851h30l-55 -250q43 78 100 78q42 0 64.5 -35.5t22.5 -97.5q0 -46 -11.5 -107t-33 -122t-58 -103t-79.5 -42zM140 15q34 0 63.5 40t47 97t27.5 114t10 98q0 104 -62 104q-27 0 -56.5 -29.5t-47.5 -70.5l-56 -251
q3 -42 24.5 -72t49.5 -30z" />
    <glyph glyph-name="ydieresis" unicode="&#xff;" horiz-adv-x="279" 
d="M-67 -188l12 26q6 -7 23 -7t27.5 11.5t25.5 42.5l45 97l3 501h32l-9 -443l190 443h34l-272 -606q-33 -73 -79 -73q-20 0 -32 8zM304 601q0 -13 -9 -22t-22 -9q-11 0 -18 7t-7 18q0 13 9 22t22 9q11 0 18 -7t7 -18zM182 601q0 -13 -9 -22t-22 -9q-11 0 -18 7t-7 18
q0 13 9 22t22 9q11 0 18 -7t7 -18z" />
    <glyph glyph-name="Amacron" unicode="&#x100;" horiz-adv-x="312" 
d="M246 0h-32l7 179h-158l-71 -179h-34l272 667h38zM223 209l17 411l-165 -411h148zM387 748h-239l6 27h239z" />
    <glyph glyph-name="amacron" unicode="&#x101;" horiz-adv-x="351" 
d="M212 495q26 0 48.5 -22.5t32.5 -65.5l16 76h30l-107 -483h-30l15 66q-43 -78 -100 -78q-42 0 -64.5 35.5t-22.5 97.5q0 46 11.5 107t33 122t58 103t79.5 42zM210 468q-34 0 -63.5 -40t-47 -97t-27.5 -114t-10 -98q0 -104 62 -104q27 0 56.5 29.5t47.5 70.5l56 251
q-3 42 -24.5 72t-49.5 30zM363 581h-239l6 27h239z" />
    <glyph glyph-name="Abreve" unicode="&#x102;" horiz-adv-x="312" 
d="M246 0h-32l7 179h-158l-71 -179h-34l272 667h38zM223 209l17 411l-165 -411h148zM385 784q-55 -58 -128 -58t-102 58l23 18q10 -22 33 -35.5t50 -13.5t56 13.5t47 35.5z" />
    <glyph glyph-name="abreve" unicode="&#x103;" horiz-adv-x="351" 
d="M212 495q26 0 48.5 -22.5t32.5 -65.5l16 76h30l-107 -483h-30l15 66q-43 -78 -100 -78q-42 0 -64.5 35.5t-22.5 97.5q0 46 11.5 107t33 122t58 103t79.5 42zM210 468q-34 0 -63.5 -40t-47 -97t-27.5 -114t-10 -98q0 -104 62 -104q27 0 56.5 29.5t47.5 70.5l56 251
q-3 42 -24.5 72t-49.5 30zM362 617q-55 -58 -128 -58t-102 58l23 18q10 -22 33 -35.5t50 -13.5t56 13.5t47 35.5z" />
    <glyph glyph-name="Aogonek" unicode="&#x104;" horiz-adv-x="312" 
d="M217 -122l22 -15q-24 -49 -68 -49q-53 0 -53 53q0 80 96 142l7 170h-158l-71 -179h-34l272 667h38l-22 -667q-100 -59 -100 -130q0 -29 29 -29q30 0 42 37zM223 209l17 411l-165 -411h148z" />
    <glyph glyph-name="aogonek" unicode="&#x105;" horiz-adv-x="351" 
d="M203 -122l22 -15q-24 -49 -68 -49q-53 0 -53 53q0 83 101 145l12 54q-43 -78 -100 -78q-42 0 -64.5 35.5t-22.5 97.5q0 46 11.5 107t33 122t58 103t79.5 42q26 0 48.5 -22.5t32.5 -65.5l16 76h30l-107 -483q-100 -59 -100 -130q0 -29 29 -29q30 0 42 37zM210 468
q-34 0 -63.5 -40t-47 -97t-27.5 -114t-10 -98q0 -104 62 -104q27 0 56.5 29.5t47.5 70.5l56 251q-3 42 -24.5 72t-49.5 30z" />
    <glyph glyph-name="Cacute" unicode="&#x106;" horiz-adv-x="357" 
d="M151 -12q-104 0 -104 170q0 59 14 141.5t40.5 170t74.5 148t106 60.5q87 0 102 -123l-31 -6q-10 99 -76 99q-46 0 -85 -59t-62 -142t-35.5 -162t-12.5 -131q0 -72 17.5 -104t55.5 -32q28 0 51.5 22t50.5 66l26 -16q-61 -102 -132 -102zM425 872l-127 -144h-26l110 144h43
z" />
    <glyph glyph-name="cacute" unicode="&#x107;" horiz-adv-x="294" 
d="M139 -12q-107 0 -107 153q0 49 12 107.5t34.5 115t62 94t86.5 37.5q53 0 81 -49l-24 -20q-20 42 -61 42q-39 0 -71 -37t-50 -91.5t-27.5 -108.5t-9.5 -97q0 -119 74 -119q37 0 66 36l18 -22q-40 -41 -84 -41zM371 700l-127 -144h-26l110 144h43z" />
    <glyph glyph-name="Ccircumflex" unicode="&#x108;" horiz-adv-x="357" 
d="M151 -12q-104 0 -104 170q0 59 14 141.5t40.5 170t74.5 148t106 60.5q87 0 102 -123l-31 -6q-10 99 -76 99q-46 0 -85 -59t-62 -142t-35.5 -162t-12.5 -131q0 -72 17.5 -104t55.5 -32q28 0 51.5 22t50.5 66l26 -16q-61 -102 -132 -102zM391 723h-21l-41 116l-88 -116h-25
l100 144h36z" />
    <glyph glyph-name="ccircumflex" unicode="&#x109;" horiz-adv-x="294" 
d="M139 -12q-107 0 -107 153q0 49 12 107.5t34.5 115t62 94t86.5 37.5q53 0 81 -49l-24 -20q-20 42 -61 42q-39 0 -71 -37t-50 -91.5t-27.5 -108.5t-9.5 -97q0 -119 74 -119q37 0 66 36l18 -22q-40 -41 -84 -41zM338 556h-21l-41 116l-88 -116h-25l100 144h36z" />
    <glyph glyph-name="Cdotaccent" unicode="&#x10a;" horiz-adv-x="357" 
d="M151 -12q-104 0 -104 170q0 59 14 141.5t40.5 170t74.5 148t106 60.5q87 0 102 -123l-31 -6q-10 99 -76 99q-46 0 -85 -59t-62 -142t-35.5 -162t-12.5 -131q0 -72 17.5 -104t55.5 -32q28 0 51.5 22t50.5 66l26 -16q-61 -102 -132 -102zM340 765q0 -13 -9.5 -22.5
t-22.5 -9.5q-11 0 -18.5 7.5t-7.5 18.5q0 13 9.5 22.5t22.5 9.5q11 0 18.5 -7.5t7.5 -18.5z" />
    <glyph glyph-name="cdotaccent" unicode="&#x10b;" horiz-adv-x="294" 
d="M139 -12q-107 0 -107 153q0 49 12 107.5t34.5 115t62 94t86.5 37.5q53 0 81 -49l-24 -20q-20 42 -61 42q-39 0 -71 -37t-50 -91.5t-27.5 -108.5t-9.5 -97q0 -119 74 -119q37 0 66 36l18 -22q-40 -41 -84 -41zM289 598q0 -13 -9.5 -22.5t-22.5 -9.5q-11 0 -18.5 7.5
t-7.5 18.5q0 13 9.5 22.5t22.5 9.5q11 0 18.5 -7.5t7.5 -18.5z" />
    <glyph glyph-name="Ccaron" unicode="&#x10c;" horiz-adv-x="357" 
d="M151 -12q-104 0 -104 170q0 59 14 141.5t40.5 170t74.5 148t106 60.5q87 0 102 -123l-31 -6q-10 99 -76 99q-46 0 -85 -59t-62 -142t-35.5 -162t-12.5 -131q0 -72 17.5 -104t55.5 -32q28 0 51.5 22t50.5 66l26 -16q-61 -102 -132 -102zM324 723h-36l-39 144h21l40 -116
l89 116h25z" />
    <glyph glyph-name="ccaron" unicode="&#x10d;" horiz-adv-x="294" 
d="M139 -12q-107 0 -107 153q0 49 12 107.5t34.5 115t62 94t86.5 37.5q53 0 81 -49l-24 -20q-20 42 -61 42q-39 0 -71 -37t-50 -91.5t-27.5 -108.5t-9.5 -97q0 -119 74 -119q37 0 66 36l18 -22q-40 -41 -84 -41zM270 556h-36l-39 144h21l40 -116l89 116h25z" />
    <glyph glyph-name="Dcaron" unicode="&#x10e;" horiz-adv-x="386" 
d="M112 0h-94l147 667h91q48 0 81.5 -44.5t33.5 -140.5q0 -31 -6.5 -82.5t-24.5 -123t-45.5 -131.5t-75.5 -102.5t-107 -42.5zM115 30h2q47 0 86.5 39.5t63 96t40.5 122t23.5 115.5t6.5 79q0 79 -24.5 117t-62.5 38h-59l-135 -607h59zM327 723h-36l-39 144h21l40 -116
l89 116h25z" />
    <glyph glyph-name="dcaron" unicode="&#x10f;" horiz-adv-x="407" 
d="M212 495q26 0 48.5 -22.5t32.5 -65.5l57 260h30l-148 -667h-30l15 66q-43 -78 -100 -78q-42 0 -64.5 35.5t-22.5 97.5q0 46 11.5 107t33 122t58 103t79.5 42zM210 468q-34 0 -63.5 -40t-47 -97t-27.5 -114t-10 -98q0 -104 62 -104q27 0 56.5 29.5t47.5 70.5l56 251
q-3 42 -24.5 72t-49.5 30zM493 641q0 -36 -27 -73.5t-62 -56.5l-18 20q27 15 47 38t25 46h-6q-10 0 -18 8.5t-8 19.5q0 15 10.5 25.5t24.5 10.5q32 0 32 -38z" />
    <glyph glyph-name="Dcroat" unicode="&#x110;" horiz-adv-x="402" 
d="M128 0h-94l70 319h-62l7 30h62l70 318h91q48 0 81.5 -44.5t33.5 -140.5q0 -31 -6.5 -82.5t-24.5 -123t-45.5 -131.5t-75.5 -102.5t-107 -42.5zM233 319h-97l-64 -289h61q47 0 86.5 39.5t63 96t40.5 122t23.5 115.5t6.5 79q0 79 -24.5 117t-62.5 38h-59l-64 -288h97z" />
    <glyph glyph-name="dcroat" unicode="&#x111;" horiz-adv-x="366" 
d="M212 495q26 0 48.5 -22.5t32.5 -65.5l29 134h-132l5 27h133l22 99h30l-22 -99h41l-5 -27h-42l-120 -541h-30l15 66q-43 -78 -100 -78q-42 0 -64.5 35.5t-22.5 97.5q0 46 11.5 107t33 122t58 103t79.5 42zM210 468q-34 0 -63.5 -40t-47 -97t-27.5 -114t-10 -98
q0 -104 62 -104q27 0 56.5 29.5t47.5 70.5l56 251q-3 42 -24.5 72t-49.5 30z" />
    <glyph glyph-name="Emacron" unicode="&#x112;" horiz-adv-x="330" 
d="M228 0h-210l147 667h210l-6 -30h-178l-62 -279h171l-7 -30h-171l-66 -298h178zM407 748h-239l6 27h239z" />
    <glyph glyph-name="emacron" unicode="&#x113;" horiz-adv-x="346" 
d="M149 -12q-55 0 -86.5 38t-31.5 114q0 36 9.5 89.5t29 116t59 106t90.5 43.5q101 0 101 -136q0 -62 -18 -127h-228q-10 -47 -10 -91q0 -59 21.5 -92.5t62.5 -33.5q47 0 89 64l23 -19q-52 -72 -111 -72zM79 259h197q12 57 12 96q0 49 -17.5 81t-53.5 32t-66 -36.5
t-46.5 -80.5t-25.5 -92zM376 581h-239l6 27h239z" />
    <glyph glyph-name="Ebreve" unicode="&#x114;" horiz-adv-x="330" 
d="M228 0h-210l147 667h210l-6 -30h-178l-62 -279h171l-7 -30h-171l-66 -298h178zM406 784q-55 -58 -128 -58t-102 58l23 18q10 -22 33 -35.5t50 -13.5t56 13.5t47 35.5z" />
    <glyph glyph-name="ebreve" unicode="&#x115;" horiz-adv-x="346" 
d="M149 -12q-55 0 -86.5 38t-31.5 114q0 36 9.5 89.5t29 116t59 106t90.5 43.5q101 0 101 -136q0 -62 -18 -127h-228q-10 -47 -10 -91q0 -59 21.5 -92.5t62.5 -33.5q47 0 89 64l23 -19q-52 -72 -111 -72zM79 259h197q12 57 12 96q0 49 -17.5 81t-53.5 32t-66 -36.5
t-46.5 -80.5t-25.5 -92zM375 617q-55 -58 -128 -58t-102 58l23 18q10 -22 33 -35.5t50 -13.5t56 13.5t47 35.5z" />
    <glyph glyph-name="Edotaccent" unicode="&#x116;" horiz-adv-x="330" 
d="M228 0h-210l147 667h210l-6 -30h-178l-62 -279h171l-7 -30h-171l-66 -298h178zM320 765q0 -13 -9.5 -22.5t-22.5 -9.5q-11 0 -18.5 7.5t-7.5 18.5q0 13 9.5 22.5t22.5 9.5q11 0 18.5 -7.5t7.5 -18.5z" />
    <glyph glyph-name="edotaccent" unicode="&#x117;" horiz-adv-x="346" 
d="M149 -12q-55 0 -86.5 38t-31.5 114q0 36 9.5 89.5t29 116t59 106t90.5 43.5q101 0 101 -136q0 -62 -18 -127h-228q-10 -47 -10 -91q0 -59 21.5 -92.5t62.5 -33.5q47 0 89 64l23 -19q-52 -72 -111 -72zM79 259h197q12 57 12 96q0 49 -17.5 81t-53.5 32t-66 -36.5
t-46.5 -80.5t-25.5 -92zM289 598q0 -13 -9.5 -22.5t-22.5 -9.5q-11 0 -18.5 7.5t-7.5 18.5q0 13 9.5 22.5t22.5 9.5q11 0 18.5 -7.5t7.5 -18.5z" />
    <glyph glyph-name="Eogonek" unicode="&#x118;" horiz-adv-x="330" 
d="M199 -122l22 -15q-24 -49 -68 -49q-53 0 -53 53q0 74 82 133h-164l147 667h210l-6 -30h-178l-62 -279h171l-7 -30h-171l-66 -298h178l-6 -30q-100 -59 -100 -130q0 -29 29 -29q30 0 42 37z" />
    <glyph glyph-name="eogonek" unicode="&#x119;" horiz-adv-x="346" 
d="M167 -122l22 -15q-24 -49 -68 -49q-53 0 -53 53q0 66 68 122q-105 10 -105 151q0 36 9.5 89.5t29 116t59 106t90.5 43.5q101 0 101 -136q0 -62 -18 -127h-228q-10 -47 -10 -91q0 -59 21.5 -92.5t62.5 -33.5q47 0 89 64l23 -19q-34 -46 -68 -62q-96 -58 -96 -128
q0 -29 29 -29q30 0 42 37zM79 259h197q12 57 12 96q0 49 -17.5 81t-53.5 32t-66 -36.5t-46.5 -80.5t-25.5 -92z" />
    <glyph glyph-name="Ecaron" unicode="&#x11a;" horiz-adv-x="330" 
d="M228 0h-210l147 667h210l-6 -30h-178l-62 -279h171l-7 -30h-171l-66 -298h178zM302 723h-36l-39 144h21l40 -116l89 116h25z" />
    <glyph glyph-name="ecaron" unicode="&#x11b;" horiz-adv-x="346" 
d="M149 -12q-55 0 -86.5 38t-31.5 114q0 36 9.5 89.5t29 116t59 106t90.5 43.5q101 0 101 -136q0 -62 -18 -127h-228q-10 -47 -10 -91q0 -59 21.5 -92.5t62.5 -33.5q47 0 89 64l23 -19q-52 -72 -111 -72zM79 259h197q12 57 12 96q0 49 -17.5 81t-53.5 32t-66 -36.5
t-46.5 -80.5t-25.5 -92zM270 556h-36l-39 144h21l40 -116l89 116h25z" />
    <glyph glyph-name="Gcircumflex" unicode="&#x11c;" horiz-adv-x="375" 
d="M151 -12q-104 0 -104 170q0 61 14.5 145t41.5 170t74.5 145.5t104.5 59.5q49 0 73 -36t29 -87l-31 -6q-5 47 -21.5 73t-54.5 26q-44 0 -83 -57t-62.5 -138.5t-36.5 -162t-13 -136.5q0 -74 17.5 -105t55.5 -31q43 0 89 67l45 206h-101l6 30h133l-54 -247q-56 -86 -122 -86
zM390 723h-21l-41 116l-88 -116h-25l100 144h36z" />
    <glyph glyph-name="gcircumflex" unicode="&#x11d;" horiz-adv-x="351" 
d="M81 -196q-71 0 -110 52l24 24q12 -21 36 -35t52 -14q81 0 109 126l27 109q-44 -78 -102 -78q-39 0 -63 32.5t-24 100.5q0 46 11.5 106.5t32.5 122t58 103.5t81 42q27 0 50.5 -24t31.5 -64l15 76h29l-117 -526q-18 -80 -52.5 -116.5t-88.5 -36.5zM124 15q28 0 56.5 29.5
t47.5 70.5l56 251q-2 38 -23.5 70t-50.5 32q-33 0 -62 -38.5t-47 -95t-28.5 -114.5t-10.5 -101q0 -104 62 -104zM323 551h-21l-41 116l-88 -116h-25l100 144h36z" />
    <glyph glyph-name="Gbreve" unicode="&#x11e;" horiz-adv-x="375" 
d="M151 -12q-104 0 -104 170q0 61 14.5 145t41.5 170t74.5 145.5t104.5 59.5q49 0 73 -36t29 -87l-31 -6q-5 47 -21.5 73t-54.5 26q-44 0 -83 -57t-62.5 -138.5t-36.5 -162t-13 -136.5q0 -74 17.5 -105t55.5 -31q43 0 89 67l45 206h-101l6 30h133l-54 -247q-56 -86 -122 -86
zM428 784q-55 -58 -128 -58t-102 58l23 18q10 -22 33 -35.5t50 -13.5t56 13.5t47 35.5z" />
    <glyph glyph-name="gbreve" unicode="&#x11f;" horiz-adv-x="351" 
d="M81 -196q-71 0 -110 52l24 24q12 -21 36 -35t52 -14q81 0 109 126l27 109q-44 -78 -102 -78q-39 0 -63 32.5t-24 100.5q0 46 11.5 106.5t32.5 122t58 103.5t81 42q27 0 50.5 -24t31.5 -64l15 76h29l-117 -526q-18 -80 -52.5 -116.5t-88.5 -36.5zM124 15q28 0 56.5 29.5
t47.5 70.5l56 251q-2 38 -23.5 70t-50.5 32q-33 0 -62 -38.5t-47 -95t-28.5 -114.5t-10.5 -101q0 -104 62 -104zM362 617q-55 -58 -128 -58t-102 58l23 18q10 -22 33 -35.5t50 -13.5t56 13.5t47 35.5z" />
    <glyph glyph-name="Gdotaccent" unicode="&#x120;" horiz-adv-x="375" 
d="M151 -12q-104 0 -104 170q0 61 14.5 145t41.5 170t74.5 145.5t104.5 59.5q49 0 73 -36t29 -87l-31 -6q-5 47 -21.5 73t-54.5 26q-44 0 -83 -57t-62.5 -138.5t-36.5 -162t-13 -136.5q0 -74 17.5 -105t55.5 -31q43 0 89 67l45 206h-101l6 30h133l-54 -247q-56 -86 -122 -86
zM340 765q0 -13 -9.5 -22.5t-22.5 -9.5q-11 0 -18.5 7.5t-7.5 18.5q0 13 9.5 22.5t22.5 9.5q11 0 18.5 -7.5t7.5 -18.5z" />
    <glyph glyph-name="gdotaccent" unicode="&#x121;" horiz-adv-x="351" 
d="M81 -196q-71 0 -110 52l24 24q12 -21 36 -35t52 -14q81 0 109 126l27 109q-44 -78 -102 -78q-39 0 -63 32.5t-24 100.5q0 46 11.5 106.5t32.5 122t58 103.5t81 42q27 0 50.5 -24t31.5 -64l15 76h29l-117 -526q-18 -80 -52.5 -116.5t-88.5 -36.5zM124 15q28 0 56.5 29.5
t47.5 70.5l56 251q-2 38 -23.5 70t-50.5 32q-33 0 -62 -38.5t-47 -95t-28.5 -114.5t-10.5 -101q0 -104 62 -104zM276 598q0 -13 -9.5 -22.5t-22.5 -9.5q-11 0 -18.5 7.5t-7.5 18.5q0 13 9.5 22.5t22.5 9.5q11 0 18.5 -7.5t7.5 -18.5z" />
    <glyph glyph-name="Gcommaaccent" unicode="&#x122;" horiz-adv-x="375" 
d="M151 -12q-104 0 -104 170q0 61 14.5 145t41.5 170t74.5 145.5t104.5 59.5q49 0 73 -36t29 -87l-31 -6q-5 47 -21.5 73t-54.5 26q-44 0 -83 -57t-62.5 -138.5t-36.5 -162t-13 -136.5q0 -74 17.5 -105t55.5 -31q43 0 89 67l45 206h-101l6 30h133l-54 -247q-56 -86 -122 -86
zM152 -122q0 -36 -27 -73.5t-62 -56.5l-18 20q27 15 47 38t25 46h-6q-10 0 -18 8.5t-8 19.5q0 15 10.5 25.5t24.5 10.5q32 0 32 -38z" />
    <glyph glyph-name="gcommaaccent" unicode="&#x123;" horiz-adv-x="351" 
d="M213 605q0 36 27 73.5t62 56.5l18 -20q-27 -15 -47 -38t-25 -46h6q10 0 18 -8.5t8 -19.5q0 -15 -10.5 -25.5t-24.5 -10.5q-32 0 -32 38zM81 -196q-71 0 -110 52l24 24q12 -21 36 -35t52 -14q81 0 109 126l27 109q-44 -78 -102 -78q-39 0 -63 32.5t-24 100.5
q0 46 11.5 106.5t32.5 122t58 103.5t81 42q27 0 50.5 -24t31.5 -64l15 76h29l-117 -526q-18 -80 -52.5 -116.5t-88.5 -36.5zM124 15q28 0 56.5 29.5t47.5 70.5l56 251q-2 38 -23.5 70t-50.5 32q-33 0 -62 -38.5t-47 -95t-28.5 -114.5t-10.5 -101q0 -104 62 -104z" />
    <glyph glyph-name="Hcircumflex" unicode="&#x124;" horiz-adv-x="395" 
d="M269 0h-32l72 328h-187l-72 -328h-32l147 667h32l-68 -309h187l68 309h32zM391 723h-21l-41 116l-88 -116h-25l100 144h36z" />
    <glyph glyph-name="hcircumflex" unicode="&#x125;" 
d="M223 0h-30l87 394q4 14 4 29q0 45 -44 45q-29 0 -61.5 -28.5t-56.5 -68.5l-81 -371h-30l147 667h30l-55 -252q56 80 113 80q34 0 51.5 -18t17.5 -49q0 -9 -5 -34zM366 723h-21l-41 116l-88 -116h-25l100 144h36z" />
    <glyph glyph-name="Hbar" unicode="&#x126;" horiz-adv-x="446" 
d="M295 0h-32l72 328h-187l-72 -328h-32l110 501h-71l6 27h71l31 139h32l-31 -139h187l31 139h32l-31 -139h70l-6 -27h-70zM155 358h187l31 143h-187z" />
    <glyph glyph-name="hbar" unicode="&#x127;" horiz-adv-x="358" 
d="M239 0h-30l87 394q4 14 4 29q0 45 -44 45q-29 0 -61.5 -28.5t-56.5 -68.5l-81 -371h-30l119 541h-55l6 27h55l22 99h30l-22 -99h118l-6 -27h-118l-27 -126q56 80 113 80q34 0 51.5 -18t17.5 -49q0 -9 -5 -34z" />
    <glyph glyph-name="Itilde" unicode="&#x128;" horiz-adv-x="176" 
d="M50 0h-32l147 667h32zM235 721q-21 0 -29.5 17.5t-7.5 39t-3.5 39t-18.5 17.5q-35 0 -58 -107h-23q14 63 34 98.5t54 35.5q21 0 29.5 -17.5t7.5 -39t3.5 -39t18.5 -17.5q35 0 59 107h23q-30 -134 -89 -134z" />
    <glyph glyph-name="itilde" unicode="&#x129;" horiz-adv-x="160" 
d="M41 0h-30l107 483h30zM190 554q-21 0 -29.5 17.5t-7.5 39t-3.5 39t-18.5 17.5q-35 0 -58 -107h-23q14 63 34 98.5t54 35.5q21 0 29.5 -17.5t7.5 -39t3.5 -39t18.5 -17.5q35 0 59 107h23q-30 -134 -89 -134z" />
    <glyph glyph-name="Imacron" unicode="&#x12a;" horiz-adv-x="176" 
d="M50 0h-32l147 667h32zM319 748h-239l6 27h239z" />
    <glyph glyph-name="imacron" unicode="&#x12b;" horiz-adv-x="160" 
d="M41 0h-30l107 483h30zM275 581h-239l6 27h239z" />
    <glyph glyph-name="Ibreve" unicode="&#x12c;" horiz-adv-x="176" 
d="M50 0h-32l147 667h32zM318 784q-55 -58 -128 -58t-102 58l23 18q10 -22 33 -35.5t50 -13.5t56 13.5t47 35.5z" />
    <glyph glyph-name="ibreve" unicode="&#x12d;" horiz-adv-x="160" 
d="M41 0h-30l107 483h30zM273 617q-55 -58 -128 -58t-102 58l23 18q10 -22 33 -35.5t50 -13.5t56 13.5t47 35.5z" />
    <glyph glyph-name="Iogonek" unicode="&#x12e;" horiz-adv-x="176" 
d="M21 -122l22 -15q-24 -49 -68 -49q-53 0 -53 53q0 81 98 144l145 656h32l-147 -667q-100 -59 -100 -130q0 -29 29 -29q30 0 42 37z" />
    <glyph glyph-name="iogonek" unicode="&#x12f;" horiz-adv-x="160" 
d="M12 -122l22 -15q-24 -49 -68 -49q-53 0 -53 53q0 82 101 145l104 471h30l-107 -483q-100 -59 -100 -130q0 -29 29 -29q30 0 42 37zM154 566q-11 0 -19 7.5t-8 18.5q0 14 10.5 23t22.5 9q11 0 19 -7.5t8 -18.5q0 -14 -10.5 -23t-22.5 -9z" />
    <glyph glyph-name="Idotaccent" unicode="&#x130;" horiz-adv-x="176" 
d="M50 0h-32l147 667h32zM232 765q0 -13 -9.5 -22.5t-22.5 -9.5q-11 0 -18.5 7.5t-7.5 18.5q0 13 9.5 22.5t22.5 9.5q11 0 18.5 -7.5t7.5 -18.5z" />
    <glyph glyph-name="dotlessi" unicode="&#x131;" horiz-adv-x="160" 
d="M41 0h-30l107 483h30z" />
    <glyph glyph-name="IJ" unicode="&#x132;" horiz-adv-x="474" 
d="M50 0h-32l147 667h32zM243 -12q-71 0 -102 57l25 20q24 -47 77 -47q41 0 64 24t35 79l121 546h32l-121 -546q-15 -70 -46.5 -101.5t-84.5 -31.5z" />
    <glyph glyph-name="ij" unicode="&#x133;" horiz-adv-x="320" 
d="M154 566q-11 0 -19 7.5t-8 18.5q0 14 10.5 23t22.5 9q11 0 19 -7.5t8 -18.5q0 -14 -10.5 -23t-22.5 -9zM41 0h-30l107 483h30zM101 -196q-44 0 -56 39l30 12q3 -24 27 -24q31 0 47 73l129 579h30l-129 -579q-13 -57 -31.5 -78.5t-46.5 -21.5zM314 566q-11 0 -19 7.5
t-8 18.5q0 14 10.5 23t22.5 9q11 0 19 -7.5t8 -18.5q0 -14 -10.5 -23t-22.5 -9z" />
    <glyph glyph-name="Jcircumflex" unicode="&#x134;" horiz-adv-x="298" 
d="M67 -12q-71 0 -102 57l25 20q24 -47 77 -47q41 0 64 24t35 79l121 546h32l-121 -546q-15 -70 -46.5 -101.5t-84.5 -31.5zM404 723h-21l-41 116l-88 -116h-25l100 144h36z" />
    <glyph glyph-name="jcircumflex" unicode="&#x135;" horiz-adv-x="160" 
d="M238 556h-21l-41 116l-88 -116h-25l100 144h36zM-59 -196q-44 0 -56 39l30 12q3 -24 27 -24q31 0 47 73l129 579h30l-129 -579q-13 -57 -31.5 -78.5t-46.5 -21.5z" />
    <glyph glyph-name="Kcommaaccent" unicode="&#x136;" horiz-adv-x="372" 
d="M300 0h-36l-96 321l-67 -90l-51 -231h-32l147 667h32l-82 -372l277 372h42l-244 -319zM158 -122q0 -36 -27 -73.5t-62 -56.5l-18 20q27 15 47 38t25 46h-6q-10 0 -18 8.5t-8 19.5q0 15 10.5 25.5t24.5 10.5q32 0 32 -38z" />
    <glyph glyph-name="kcommaaccent" unicode="&#x137;" horiz-adv-x="325" 
d="M247 0h-30l-56 244l-91 -112l-29 -132h-30l147 667h30l-107 -485l244 301h33l-177 -218zM131 -122q0 -36 -27 -73.5t-62 -56.5l-18 20q27 15 47 38t25 46h-6q-10 0 -18 8.5t-8 19.5q0 15 10.5 25.5t24.5 10.5q32 0 32 -38z" />
    <glyph glyph-name="kgreenlandic" unicode="&#x138;" horiz-adv-x="325" 
d="M247 0h-30l-56 244l-91 -112l-29 -132h-30l107 483h30l-67 -301l244 301h33l-177 -218z" />
    <glyph glyph-name="Lacute" unicode="&#x139;" horiz-adv-x="306" 
d="M228 0h-210l147 667h32l-141 -637h178zM407 867l-127 -144h-26l110 144h43z" />
    <glyph glyph-name="lacute" unicode="&#x13a;" horiz-adv-x="160" 
d="M41 0h-30l147 667h30zM306 867l-127 -144h-26l110 144h43z" />
    <glyph glyph-name="Lcommaaccent" unicode="&#x13b;" horiz-adv-x="306" 
d="M228 0h-210l147 667h32l-141 -637h178zM138 -122q0 -36 -27 -73.5t-62 -56.5l-18 20q27 15 47 38t25 46h-6q-10 0 -18 8.5t-8 19.5q0 15 10.5 25.5t24.5 10.5q32 0 32 -38z" />
    <glyph glyph-name="lcommaaccent" unicode="&#x13c;" horiz-adv-x="160" 
d="M41 0h-30l147 667h30zM36 -122q0 -36 -27 -73.5t-62 -56.5l-18 20q27 15 47 38t25 46h-6q-10 0 -18 8.5t-8 19.5q0 15 10.5 25.5t24.5 10.5q32 0 32 -38z" />
    <glyph glyph-name="Lcaron" unicode="&#x13d;" horiz-adv-x="306" 
d="M228 0h-210l147 667h32l-141 -637h178zM319 641q0 -36 -27 -73.5t-62 -56.5l-18 20q27 15 47 38t25 46h-6q-10 0 -18 8.5t-8 19.5q0 15 10.5 25.5t24.5 10.5q32 0 32 -38z" />
    <glyph glyph-name="lcaron" unicode="&#x13e;" horiz-adv-x="214" 
d="M41 0h-30l147 667h30zM319 641q0 -36 -27 -73.5t-62 -56.5l-18 20q27 15 47 38t25 46h-6q-10 0 -18 8.5t-8 19.5q0 15 10.5 25.5t24.5 10.5q32 0 32 -38z" />
    <glyph glyph-name="Ldot" unicode="&#x13f;" horiz-adv-x="306" 
d="M228 0h-210l147 667h32l-141 -637h178zM258 309q-13 0 -21.5 8.5t-8.5 21.5q0 15 10.5 25t25.5 10q13 0 21.5 -8.5t8.5 -21.5q0 -15 -10.5 -25t-25.5 -10z" />
    <glyph glyph-name="ldot" unicode="&#x140;" horiz-adv-x="228" 
d="M41 0h-30l147 667h30zM191 212q-13 0 -21.5 8.5t-8.5 21.5q0 15 10.5 25t25.5 10q13 0 21.5 -8.5t8.5 -21.5q0 -15 -10.5 -25t-25.5 -10z" />
    <glyph glyph-name="Lslash" unicode="&#x141;" horiz-adv-x="322" 
d="M32 272l7 34l70 36l72 325h32l-68 -307l71 37l-8 -34l-71 -37l-65 -296h178l-6 -30h-210l68 308z" />
    <glyph glyph-name="lslash" unicode="&#x142;" horiz-adv-x="206" 
d="M35 285l7 32l69 35l70 315h30l-66 -298l70 36l-7 -32l-70 -36l-74 -337h-30l70 320z" />
    <glyph glyph-name="Nacute" unicode="&#x143;" horiz-adv-x="395" 
d="M269 0h-32l-59 579l-128 -579h-32l147 667h32l60 -572l127 572h32zM425 867l-127 -144h-26l110 144h43z" />
    <glyph glyph-name="nacute" unicode="&#x144;" 
d="M223 0h-30l87 394q4 18 4 29q0 45 -44 45q-29 0 -61.5 -28.5t-56.5 -68.5l-81 -371h-30l107 483h30l-15 -68q56 80 113 80q33 0 51 -17t18 -50q0 -16 -5 -34zM361 700l-127 -144h-26l110 144h43z" />
    <glyph glyph-name="Ncommaaccent" unicode="&#x145;" horiz-adv-x="395" 
d="M269 0h-32l-59 579l-128 -579h-32l147 667h32l60 -572l127 572h32zM155 -122q0 -36 -27 -73.5t-62 -56.5l-18 20q27 15 47 38t25 46h-6q-10 0 -18 8.5t-8 19.5q0 15 10.5 25.5t24.5 10.5q32 0 32 -38z" />
    <glyph glyph-name="ncommaaccent" unicode="&#x146;" 
d="M223 0h-30l87 394q4 18 4 29q0 45 -44 45q-29 0 -61.5 -28.5t-56.5 -68.5l-81 -371h-30l107 483h30l-15 -68q56 80 113 80q33 0 51 -17t18 -50q0 -16 -5 -34zM130 -122q0 -36 -27 -73.5t-62 -56.5l-18 20q27 15 47 38t25 46h-6q-10 0 -18 8.5t-8 19.5q0 15 10.5 25.5
t24.5 10.5q32 0 32 -38z" />
    <glyph glyph-name="Ncaron" unicode="&#x147;" horiz-adv-x="395" 
d="M269 0h-32l-59 579l-128 -579h-32l147 667h32l60 -572l127 572h32zM324 723h-36l-39 144h21l40 -116l89 116h25z" />
    <glyph glyph-name="ncaron" unicode="&#x148;" 
d="M223 0h-30l87 394q4 18 4 29q0 45 -44 45q-29 0 -61.5 -28.5t-56.5 -68.5l-81 -371h-30l107 483h30l-15 -68q56 80 113 80q33 0 51 -17t18 -50q0 -16 -5 -34zM260 556h-36l-39 144h21l40 -116l89 116h25z" />
    <glyph glyph-name="napostrophe" unicode="&#x149;" 
d="M223 0h-30l87 394q4 18 4 29q0 45 -44 45q-29 0 -61.5 -28.5t-56.5 -68.5l-81 -371h-30l107 483h30l-15 -68q56 80 113 80q33 0 51 -17t18 -50q0 -16 -5 -34zM220 687q0 -36 -27 -73.5t-62 -56.5l-18 20q27 15 47 38t25 46h-6q-10 0 -18 8.5t-8 19.5q0 15 10.5 25.5
t24.5 10.5q32 0 32 -38z" />
    <glyph glyph-name="Eng" unicode="&#x14a;" horiz-adv-x="395" 
d="M124 -196q-71 0 -102 57l25 20q25 -47 77 -47q42 0 64 23.5t35 79.5l14 63l-59 579l-128 -579h-32l147 667h32l60 -572l127 572h32l-161 -730q-16 -70 -46.5 -101.5t-84.5 -31.5z" />
    <glyph glyph-name="eng" unicode="&#x14b;" 
d="M310 394l-109 -490q-13 -56 -31.5 -78t-46.5 -22q-43 0 -56 39l30 12q3 -24 27 -24q16 0 27 15.5t20 57.5l109 490q4 16 4 30q0 44 -44 44q-29 0 -61.5 -28.5t-56.5 -68.5l-81 -371h-30l107 483h30l-16 -72q57 84 114 84q32 0 50.5 -17t18.5 -50q0 -11 -5 -34z" />
    <glyph glyph-name="Omacron" unicode="&#x14c;" horiz-adv-x="396" 
d="M151 -12q-104 0 -104 170q0 56 14 138.5t40.5 170.5t74.5 149.5t106 61.5q55 0 80 -48t25 -123q0 -56 -14 -138t-41 -170t-75 -149.5t-106 -61.5zM155 18q44 0 83 56t62.5 136.5t37.5 161.5t14 138q0 138 -75 138q-44 0 -82.5 -56.5t-62 -137.5t-37 -161.5t-13.5 -138.5
q0 -136 73 -136zM428 748h-239l6 27h239z" />
    <glyph glyph-name="omacron" unicode="&#x14d;" horiz-adv-x="352" 
d="M130 -12q-99 0 -99 140q0 54 12 115.5t34.5 118.5t60.5 95t83 38q99 0 99 -140q0 -54 -12 -115.5t-34.5 -118.5t-60.5 -95t-83 -38zM132 15q45 0 83 63t55.5 139.5t17.5 136.5q0 114 -69 114q-45 0 -83 -63.5t-55.5 -140t-17.5 -136.5q0 -113 69 -113zM369 581h-239l6 27
h239z" />
    <glyph glyph-name="Obreve" unicode="&#x14e;" horiz-adv-x="396" 
d="M151 -12q-104 0 -104 170q0 56 14 138.5t40.5 170.5t74.5 149.5t106 61.5q55 0 80 -48t25 -123q0 -56 -14 -138t-41 -170t-75 -149.5t-106 -61.5zM155 18q44 0 83 56t62.5 136.5t37.5 161.5t14 138q0 138 -75 138q-44 0 -82.5 -56.5t-62 -137.5t-37 -161.5t-13.5 -138.5
q0 -136 73 -136zM428 784q-55 -58 -128 -58t-102 58l23 18q10 -22 33 -35.5t50 -13.5t56 13.5t47 35.5z" />
    <glyph glyph-name="obreve" unicode="&#x14f;" horiz-adv-x="352" 
d="M130 -12q-99 0 -99 140q0 54 12 115.5t34.5 118.5t60.5 95t83 38q99 0 99 -140q0 -54 -12 -115.5t-34.5 -118.5t-60.5 -95t-83 -38zM132 15q45 0 83 63t55.5 139.5t17.5 136.5q0 114 -69 114q-45 0 -83 -63.5t-55.5 -140t-17.5 -136.5q0 -113 69 -113zM369 617
q-55 -58 -128 -58t-102 58l23 18q10 -22 33 -35.5t50 -13.5t56 13.5t47 35.5z" />
    <glyph glyph-name="Ohungarumlaut" unicode="&#x150;" horiz-adv-x="396" 
d="M151 -12q-104 0 -104 170q0 56 14 138.5t40.5 170.5t74.5 149.5t106 61.5q55 0 80 -48t25 -123q0 -56 -14 -138t-41 -170t-75 -149.5t-106 -61.5zM155 18q44 0 83 56t62.5 136.5t37.5 161.5t14 138q0 138 -75 138q-44 0 -82.5 -56.5t-62 -137.5t-37 -161.5t-13.5 -138.5
q0 -136 73 -136zM360 867l-107 -144h-22l90 144h39zM466 867l-107 -144h-22l90 144h39z" />
    <glyph glyph-name="ohungarumlaut" unicode="&#x151;" horiz-adv-x="352" 
d="M130 -12q-99 0 -99 140q0 54 12 115.5t34.5 118.5t60.5 95t83 38q99 0 99 -140q0 -54 -12 -115.5t-34.5 -118.5t-60.5 -95t-83 -38zM132 15q45 0 83 63t55.5 139.5t17.5 136.5q0 114 -69 114q-45 0 -83 -63.5t-55.5 -140t-17.5 -136.5q0 -113 69 -113zM301 700l-107 -144
h-22l90 144h39zM407 700l-107 -144h-22l90 144h39z" />
    <glyph glyph-name="OE" unicode="&#x152;" horiz-adv-x="561" 
d="M454 0h-210l17 80q-54 -92 -120 -92q-47 0 -70.5 46t-23.5 124q0 57 14.5 139t41.5 170t77 149t112 61q68 0 82 -90l17 80h210l-6 -30h-178l-62 -279h171l-7 -30h-171l-66 -298h178zM281 167l73 333q0 75 -16 111t-53 36q-47 0 -87.5 -56t-64.5 -136.5t-37.5 -161
t-13.5 -139.5q0 -136 65 -136q37 0 71.5 40t62.5 109z" />
    <glyph glyph-name="oe" unicode="&#x153;" horiz-adv-x="571" 
d="M527 232h-225q-9 -42 -9 -91q0 -126 82 -126q43 0 87 64l23 -19q-53 -72 -109 -72q-53 0 -81 34t-30 95q-56 -129 -137 -129q-97 0 -97 140q0 80 20.5 162.5t65.5 143.5t102 61q45 0 68.5 -32.5t24.5 -91.5q53 124 134 124q99 0 99 -136q0 -71 -18 -127zM308 259h193
q12 44 12 96q0 113 -69 113q-36 0 -65.5 -36t-45 -79.5t-25.5 -93.5zM284 354q0 114 -67 114q-45 0 -82.5 -63.5t-54.5 -140t-17 -136.5q0 -114 67 -114q35 0 65.5 38t49 93.5t29 111.5t10.5 97z" />
    <glyph glyph-name="Racute" unicode="&#x154;" horiz-adv-x="366" 
d="M259 0h-33l-35 289h-77l-64 -289h-32l147 667h87q50 0 81 -37.5t31 -95.5q0 -90 -41 -157.5t-103 -83.5zM181 319h4q68 0 105.5 65.5t37.5 149.5q0 51 -20 77t-56 26h-61l-71 -318h61zM414 867l-127 -144h-26l110 144h43z" />
    <glyph glyph-name="racute" unicode="&#x155;" horiz-adv-x="227" 
d="M41 0h-30l107 483h30l-16 -73q25 42 55.5 62t77.5 20l-8 -35q-5 2 -19 2q-68 0 -117 -97zM322 700l-127 -144h-26l110 144h43z" />
    <glyph glyph-name="Rcommaaccent" unicode="&#x156;" horiz-adv-x="366" 
d="M259 0h-33l-35 289h-77l-64 -289h-32l147 667h87q50 0 81 -37.5t31 -95.5q0 -90 -41 -157.5t-103 -83.5zM181 319h4q68 0 105.5 65.5t37.5 149.5q0 51 -20 77t-56 26h-61l-71 -318h61zM144 -122q0 -36 -27 -73.5t-62 -56.5l-18 20q27 15 47 38t25 46h-6q-10 0 -18 8.5
t-8 19.5q0 15 10.5 25.5t24.5 10.5q32 0 32 -38z" />
    <glyph glyph-name="rcommaaccent" unicode="&#x157;" horiz-adv-x="227" 
d="M41 0h-30l107 483h30l-16 -73q25 42 55.5 62t77.5 20l-8 -35q-5 2 -19 2q-68 0 -117 -97zM87 -122q0 -36 -27 -73.5t-62 -56.5l-18 20q27 15 47 38t25 46h-6q-10 0 -18 8.5t-8 19.5q0 15 10.5 25.5t24.5 10.5q32 0 32 -38z" />
    <glyph glyph-name="Rcaron" unicode="&#x158;" horiz-adv-x="366" 
d="M259 0h-33l-35 289h-77l-64 -289h-32l147 667h87q50 0 81 -37.5t31 -95.5q0 -90 -41 -157.5t-103 -83.5zM181 319h4q68 0 105.5 65.5t37.5 149.5q0 51 -20 77t-56 26h-61l-71 -318h61zM311 723h-36l-39 144h21l40 -116l89 116h25z" />
    <glyph glyph-name="rcaron" unicode="&#x159;" horiz-adv-x="227" 
d="M41 0h-30l107 483h30l-16 -73q25 42 55.5 62t77.5 20l-8 -35q-5 2 -19 2q-68 0 -117 -97zM222 556h-36l-39 144h21l40 -116l89 116h25z" />
    <glyph glyph-name="Sacute" unicode="&#x15a;" horiz-adv-x="319" 
d="M102 -12q-34 0 -65.5 17.5t-48.5 44.5l28 24q12 -25 36 -40.5t50 -15.5q51 0 90 46t39 122q0 41 -20.5 83.5t-44.5 73t-44.5 74t-20.5 87.5q0 73 46 123.5t103 50.5q66 0 98 -47l-24 -24q-27 41 -74 41q-50 0 -83 -42.5t-33 -101.5q0 -35 20 -75.5t44.5 -73t44.5 -78.5
t20 -91q0 -85 -47 -141.5t-114 -56.5zM382 867l-127 -144h-26l110 144h43z" />
    <glyph glyph-name="sacute" unicode="&#x15b;" horiz-adv-x="278" 
d="M91 -12q-74 0 -102 63l25 19q24 -55 81 -55q38 0 66 32.5t28 75.5q0 28 -12.5 54t-30 46t-35 40.5t-30 47.5t-12.5 57q0 52 34 89.5t87 37.5q63 0 90 -54l-24 -19q-18 46 -69 46q-38 0 -62.5 -27t-24.5 -68q0 -31 19 -62.5t41 -53.5t41 -56.5t19 -70.5q0 -59 -37 -100.5
t-92 -41.5zM332 700l-127 -144h-26l110 144h43z" />
    <glyph glyph-name="Scircumflex" unicode="&#x15c;" horiz-adv-x="319" 
d="M350 723h-21l-41 116l-88 -116h-25l100 144h36zM102 -12q-34 0 -65.5 17.5t-48.5 44.5l28 24q12 -25 36 -40.5t50 -15.5q51 0 90 46t39 122q0 41 -20.5 83.5t-44.5 73t-44.5 74t-20.5 87.5q0 73 46 123.5t103 50.5q66 0 98 -47l-24 -24q-27 41 -74 41q-50 0 -83 -42.5
t-33 -101.5q0 -35 20 -75.5t44.5 -73t44.5 -78.5t20 -91q0 -85 -47 -141.5t-114 -56.5z" />
    <glyph glyph-name="scircumflex" unicode="&#x15d;" horiz-adv-x="278" 
d="M91 -12q-74 0 -102 63l25 19q24 -55 81 -55q38 0 66 32.5t28 75.5q0 28 -12.5 54t-30 46t-35 40.5t-30 47.5t-12.5 57q0 52 34 89.5t87 37.5q63 0 90 -54l-24 -19q-18 46 -69 46q-38 0 -62.5 -27t-24.5 -68q0 -31 19 -62.5t41 -53.5t41 -56.5t19 -70.5q0 -59 -37 -100.5
t-92 -41.5zM298 556h-21l-41 116l-88 -116h-25l100 144h36z" />
    <glyph glyph-name="Scedilla" unicode="&#x15e;" horiz-adv-x="319" 
d="M53 -187q-45 0 -72 35l19 24q20 -32 56 -32q24 0 40.5 17.5t16.5 41.5q0 30 -28 30q-16 0 -31 -15l-18 12l38 65q-59 13 -86 59l28 24q12 -25 36 -40.5t50 -15.5q51 0 90 46t39 122q0 41 -20.5 83.5t-44.5 73t-44.5 74t-20.5 87.5q0 73 46 123.5t103 50.5q66 0 98 -47
l-24 -24q-27 41 -74 41q-50 0 -83 -42.5t-33 -101.5q0 -35 20 -75.5t44.5 -73t44.5 -78.5t20 -91q0 -85 -47 -141.5t-114 -56.5l-29 -47q10 10 24 10q21 0 33.5 -15t12.5 -37q0 -35 -27 -60.5t-63 -25.5z" />
    <glyph glyph-name="scedilla" unicode="&#x15f;" horiz-adv-x="278" 
d="M43 -187q-45 0 -72 35l19 24q20 -32 56 -32q24 0 40.5 17.5t16.5 41.5q0 30 -28 30q-16 0 -31 -15l-18 12l38 65q-53 10 -75 60l25 19q24 -55 81 -55q38 0 66 32.5t28 75.5q0 28 -12.5 54t-30 46t-35 40.5t-30 47.5t-12.5 57q0 52 34 89.5t87 37.5q63 0 90 -54l-24 -19
q-18 46 -69 46q-38 0 -62.5 -27t-24.5 -68q0 -31 19 -62.5t41 -53.5t41 -56.5t19 -70.5q0 -59 -37 -100t-91 -42l-29 -47q10 10 24 10q21 0 33.5 -15t12.5 -37q0 -35 -27 -60.5t-63 -25.5z" />
    <glyph glyph-name="Scaron" unicode="&#x160;" horiz-adv-x="319" 
d="M283 723h-36l-39 144h21l40 -116l89 116h25zM102 -12q-34 0 -65.5 17.5t-48.5 44.5l28 24q12 -25 36 -40.5t50 -15.5q51 0 90 46t39 122q0 41 -20.5 83.5t-44.5 73t-44.5 74t-20.5 87.5q0 73 46 123.5t103 50.5q66 0 98 -47l-24 -24q-27 41 -74 41q-50 0 -83 -42.5
t-33 -101.5q0 -35 20 -75.5t44.5 -73t44.5 -78.5t20 -91q0 -85 -47 -141.5t-114 -56.5z" />
    <glyph glyph-name="scaron" unicode="&#x161;" horiz-adv-x="278" 
d="M91 -12q-74 0 -102 63l25 19q24 -55 81 -55q38 0 66 32.5t28 75.5q0 28 -12.5 54t-30 46t-35 40.5t-30 47.5t-12.5 57q0 52 34 89.5t87 37.5q63 0 90 -54l-24 -19q-18 46 -69 46q-38 0 -62.5 -27t-24.5 -68q0 -31 19 -62.5t41 -53.5t41 -56.5t19 -70.5q0 -59 -37 -100.5
t-92 -41.5zM231 556h-36l-39 144h21l40 -116l89 116h25z" />
    <glyph glyph-name="Tcommaaccent" unicode="&#x162;" horiz-adv-x="287" 
d="M105 0h-32l141 637h-109l6 30h251l-6 -30h-110zM102 -122q0 -36 -27 -73.5t-62 -56.5l-18 20q27 15 47 38t25 46h-6q-10 0 -18 8.5t-8 19.5q0 15 10.5 25.5t24.5 10.5q32 0 32 -38z" />
    <glyph glyph-name="tcommaaccent" unicode="&#x163;" horiz-adv-x="212" 
d="M93 -12q-57 0 -57 57q0 15 4 31l85 380h-52l6 27h52l29 132h30l-29 -132h70l-6 -27h-70l-85 -380q-4 -15 -4 -31q0 -30 31 -30q20 0 36 19l17 -20q-26 -26 -57 -26zM52 -122q0 -36 -27 -73.5t-62 -56.5l-18 20q27 15 47 38t25 46h-6q-10 0 -18 8.5t-8 19.5
q0 15 10.5 25.5t24.5 10.5q32 0 32 -38z" />
    <glyph glyph-name="Tcaron" unicode="&#x164;" horiz-adv-x="287" 
d="M105 0h-32l141 637h-109l6 30h251l-6 -30h-110zM265 723h-36l-39 144h21l40 -116l89 116h25z" />
    <glyph glyph-name="tcaron" unicode="&#x165;" horiz-adv-x="212" 
d="M93 -12q-57 0 -57 57q0 15 4 31l85 380h-52l6 27h52l29 132h30l-29 -132h70l-6 -27h-70l-85 -380q-4 -15 -4 -31q0 -30 31 -30q20 0 36 19l17 -20q-26 -26 -57 -26zM337 687q0 -36 -27 -73.5t-62 -56.5l-18 20q27 15 47 38t25 46h-6q-10 0 -18 8.5t-8 19.5
q0 15 10.5 25.5t24.5 10.5q32 0 32 -38z" />
    <glyph glyph-name="Tbar" unicode="&#x166;" horiz-adv-x="287" 
d="M105 0h-32l71 321h-80l6 27h80l64 289h-109l6 30h251l-6 -30h-110l-64 -289h79l-6 -27h-79z" />
    <glyph glyph-name="tbar" unicode="&#x167;" horiz-adv-x="212" 
d="M93 -12q-57 0 -57 57q0 15 4 31l37 166h-52l6 27h52l42 187h-52l6 27h52l29 132h30l-29 -132h70l-6 -27h-70l-42 -187h38l-6 -27h-38l-37 -166q-4 -15 -4 -31q0 -30 31 -30q20 0 36 19l17 -20q-26 -26 -57 -26z" />
    <glyph glyph-name="Utilde" unicode="&#x168;" horiz-adv-x="396" 
d="M158 -12q-51 0 -81 30.5t-30 87.5q0 26 5 48l113 513h32l-113 -513q-5 -20 -5 -42q0 -46 22.5 -70t59.5 -24q43 0 69 31t42 105l113 513h32l-113 -513q-20 -88 -53.5 -127t-92.5 -39zM345 721q-21 0 -29.5 17.5t-7.5 39t-3.5 39t-18.5 17.5q-35 0 -58 -107h-23
q14 63 34 98.5t54 35.5q21 0 29.5 -17.5t7.5 -39t3.5 -39t18.5 -17.5q35 0 59 107h23q-30 -134 -89 -134z" />
    <glyph glyph-name="utilde" unicode="&#x169;" 
d="M118 483h30l-87 -394q-4 -18 -4 -29q0 -45 44 -45q30 0 60.5 26t54.5 65l84 377h30l-107 -483h-30l15 68q-56 -80 -113 -80q-33 0 -51 17t-18 50q0 17 5 34zM281 554q-21 0 -29.5 17.5t-7.5 39t-3.5 39t-18.5 17.5q-35 0 -58 -107h-23q14 63 34 98.5t54 35.5
q21 0 29.5 -17.5t7.5 -39t3.5 -39t18.5 -17.5q35 0 59 107h23q-30 -134 -89 -134z" />
    <glyph glyph-name="Umacron" unicode="&#x16a;" horiz-adv-x="396" 
d="M158 -12q-51 0 -81 30.5t-30 87.5q0 26 5 48l113 513h32l-113 -513q-5 -20 -5 -42q0 -46 22.5 -70t59.5 -24q43 0 69 31t42 105l113 513h32l-113 -513q-20 -88 -53.5 -127t-92.5 -39zM428 748h-239l6 27h239z" />
    <glyph glyph-name="umacron" unicode="&#x16b;" 
d="M118 483h30l-87 -394q-4 -18 -4 -29q0 -45 44 -45q30 0 60.5 26t54.5 65l84 377h30l-107 -483h-30l15 68q-56 -80 -113 -80q-33 0 -51 17t-18 50q0 17 5 34zM366 581h-239l6 27h239z" />
    <glyph glyph-name="Ubreve" unicode="&#x16c;" horiz-adv-x="396" 
d="M158 -12q-51 0 -81 30.5t-30 87.5q0 26 5 48l113 513h32l-113 -513q-5 -20 -5 -42q0 -46 22.5 -70t59.5 -24q43 0 69 31t42 105l113 513h32l-113 -513q-20 -88 -53.5 -127t-92.5 -39zM427 784q-55 -58 -128 -58t-102 58l23 18q10 -22 33 -35.5t50 -13.5t56 13.5t47 35.5z
" />
    <glyph glyph-name="ubreve" unicode="&#x16d;" 
d="M118 483h30l-87 -394q-4 -18 -4 -29q0 -45 44 -45q30 0 60.5 26t54.5 65l84 377h30l-107 -483h-30l15 68q-56 -80 -113 -80q-33 0 -51 17t-18 50q0 17 5 34zM365 617q-55 -58 -128 -58t-102 58l23 18q10 -22 33 -35.5t50 -13.5t56 13.5t47 35.5z" />
    <glyph glyph-name="Uring" unicode="&#x16e;" horiz-adv-x="396" 
d="M158 -12q-51 0 -81 30.5t-30 87.5q0 26 5 48l113 513h32l-113 -513q-5 -20 -5 -42q0 -46 22.5 -70t59.5 -24q43 0 69 31t42 105l113 513h32l-113 -513q-20 -88 -53.5 -127t-92.5 -39zM305 692q-30 0 -49.5 20.5t-19.5 51.5q0 34 26 60t60 26q30 0 49.5 -20.5t19.5 -51.5
q0 -34 -25.5 -60t-60.5 -26zM306 716q25 0 43 18t18 43q0 21 -13 35t-33 14q-25 0 -43 -18t-18 -43q0 -21 13 -35t33 -14z" />
    <glyph glyph-name="uring" unicode="&#x16f;" 
d="M118 483h30l-87 -394q-4 -18 -4 -29q0 -45 44 -45q30 0 60.5 26t54.5 65l84 377h30l-107 -483h-30l15 68q-56 -80 -113 -80q-33 0 -51 17t-18 50q0 17 5 34zM249 553q-30 0 -49.5 20.5t-19.5 51.5q0 34 26 60t60 26q30 0 49.5 -20.5t19.5 -51.5q0 -35 -25.5 -60.5
t-60.5 -25.5zM250 577q25 0 43 18t18 43q0 21 -13 35t-33 14q-25 0 -43 -18t-18 -43q0 -21 13 -35t33 -14z" />
    <glyph glyph-name="Uhungarumlaut" unicode="&#x170;" horiz-adv-x="396" 
d="M158 -12q-51 0 -81 30.5t-30 87.5q0 26 5 48l113 513h32l-113 -513q-5 -20 -5 -42q0 -46 22.5 -70t59.5 -24q43 0 69 31t42 105l113 513h32l-113 -513q-20 -88 -53.5 -127t-92.5 -39zM360 867l-107 -144h-22l90 144h39zM466 867l-107 -144h-22l90 144h39z" />
    <glyph glyph-name="uhungarumlaut" unicode="&#x171;" 
d="M118 483h30l-87 -394q-4 -18 -4 -29q0 -45 44 -45q30 0 60.5 26t54.5 65l84 377h30l-107 -483h-30l15 68q-56 -80 -113 -80q-33 0 -51 17t-18 50q0 17 5 34zM296 700l-107 -144h-22l90 144h39zM402 700l-107 -144h-22l90 144h39z" />
    <glyph glyph-name="Uogonek" unicode="&#x172;" horiz-adv-x="396" 
d="M187 -122l22 -15q-24 -49 -68 -49q-53 0 -53 53q0 66 67 121q-50 1 -79 31t-29 87q0 26 5 48l113 513h32l-113 -513q-5 -20 -5 -42q0 -46 22.5 -70t59.5 -24q43 0 69 31t42 105l113 513h32l-113 -513q-28 -125 -88 -154q-100 -59 -100 -130q0 -29 29 -29q30 0 42 37z" />
    <glyph glyph-name="uogonek" unicode="&#x173;" 
d="M194 -122l22 -15q-24 -49 -68 -49q-53 0 -53 53q0 83 101 145l12 56q-56 -80 -113 -80q-33 0 -51 17t-18 50q0 17 5 34l87 394h30l-87 -394q-4 -18 -4 -29q0 -45 44 -45q30 0 60.5 26t54.5 65l84 377h30l-107 -483q-100 -59 -100 -130q0 -29 29 -29q30 0 42 37z" />
    <glyph glyph-name="Wcircumflex" unicode="&#x174;" horiz-adv-x="490" 
d="M312 0h-38l47 587l-213 -587h-38l47 667h35l-50 -604l219 604h34l-49 -604l218 604h35zM439 723h-21l-41 116l-88 -116h-25l100 144h36z" />
    <glyph glyph-name="wcircumflex" unicode="&#x175;" horiz-adv-x="484" 
d="M310 0h-30l5 440l-189 -440h-30l7 483h32l-15 -436l186 436h36l-8 -436l179 436h34zM398 556h-21l-41 116l-88 -116h-25l100 144h36z" />
    <glyph glyph-name="Ycircumflex" unicode="&#x176;" horiz-adv-x="322" 
d="M355 723h-21l-41 116l-88 -116h-25l100 144h36zM123 0h-32l64 289l-60 378h34l48 -339l200 339h36l-226 -378z" />
    <glyph glyph-name="ycircumflex" unicode="&#x177;" horiz-adv-x="279" 
d="M-67 -188l12 26q6 -7 23 -7t27.5 11.5t25.5 42.5l45 97l3 501h32l-9 -443l190 443h34l-272 -606q-33 -73 -79 -73q-20 0 -32 8zM294 556h-21l-41 116l-88 -116h-25l100 144h36z" />
    <glyph glyph-name="Ydieresis" unicode="&#x178;" horiz-adv-x="322" 
d="M366 768q0 -13 -9 -22t-22 -9q-11 0 -18 7.5t-7 17.5q0 13 9 22t22 9q11 0 18 -7.5t7 -17.5zM244 768q0 -13 -9 -22t-22 -9q-11 0 -18 7.5t-7 17.5q0 13 9 22t22 9q11 0 18 -7.5t7 -17.5zM123 0h-32l64 289l-60 378h34l48 -339l200 339h36l-226 -378z" />
    <glyph glyph-name="Zacute" unicode="&#x179;" horiz-adv-x="309" 
d="M219 0h-237l6 31l329 606h-194l6 30h230l-6 -30l-330 -607h202zM378 867l-127 -144h-26l110 144h43z" />
    <glyph glyph-name="zacute" unicode="&#x17a;" horiz-adv-x="275" 
d="M180 0h-193l5 27l253 429h-157l6 27h189l-6 -27l-251 -429h159zM325 700l-127 -144h-26l110 144h43z" />
    <glyph glyph-name="Zdotaccent" unicode="&#x17b;" horiz-adv-x="309" 
d="M219 0h-237l6 31l329 606h-194l6 30h230l-6 -30l-330 -607h202zM295 765q0 -13 -9.5 -22.5t-22.5 -9.5q-11 0 -18.5 7.5t-7.5 18.5q0 13 9.5 22.5t22.5 9.5q11 0 18.5 -7.5t7.5 -18.5z" />
    <glyph glyph-name="zdotaccent" unicode="&#x17c;" horiz-adv-x="275" 
d="M180 0h-193l5 27l253 429h-157l6 27h189l-6 -27l-251 -429h159zM243 598q0 -13 -9.5 -22.5t-22.5 -9.5q-11 0 -18.5 7.5t-7.5 18.5q0 13 9.5 22.5t22.5 9.5q11 0 18.5 -7.5t7.5 -18.5z" />
    <glyph glyph-name="Zcaron" unicode="&#x17d;" horiz-adv-x="309" 
d="M278 723h-36l-39 144h21l40 -116l89 116h25zM219 0h-237l6 31l329 606h-194l6 30h230l-6 -30l-330 -607h202z" />
    <glyph glyph-name="zcaron" unicode="&#x17e;" horiz-adv-x="275" 
d="M180 0h-193l5 27l253 429h-157l6 27h189l-6 -27l-251 -429h159zM224 556h-36l-39 144h21l40 -116l89 116h25z" />
    <glyph glyph-name="longs" unicode="&#x17f;" horiz-adv-x="202" 
d="M54 0h-30l101 456h-50l6 27h50l23 107q8 40 32.5 63.5t59.5 23.5q39 0 55 -28l-23 -22q-12 23 -35 23q-46 0 -59 -60z" />
    <glyph glyph-name="florin" unicode="&#x192;" horiz-adv-x="335" 
d="M8 -161h-32l94 428h-50v30h57l65 293q9 41 32.5 64t58.5 23q38 0 57 -27l-23 -19q-12 16 -36 16q-44 0 -57 -60l-64 -290h100v-30h-107z" />
    <glyph glyph-name="Ohorn" unicode="&#x1a0;" horiz-adv-x="396" 
d="M151 -12q-104 0 -104 170q0 56 14 138.5t40.5 170.5t74.5 149.5t106 61.5q77 0 98 -101q47 33 57 75h-6q-10 0 -18 8.5t-8 19.5q0 15 10.5 25.5t24.5 10.5q32 0 32 -38q0 -36 -26.5 -73t-60.5 -56q2 -28 2 -42q0 -56 -14 -138t-41 -170t-75 -149.5t-106 -61.5zM155 18
q44 0 83 56t62.5 136.5t37.5 161.5t14 138q0 138 -75 138q-44 0 -82.5 -56.5t-62 -137.5t-37 -161.5t-13.5 -138.5q0 -136 73 -136z" />
    <glyph glyph-name="ohorn" unicode="&#x1a1;" horiz-adv-x="352" 
d="M392 544q0 -34 -23.5 -68.5t-56.5 -55.5q8 -29 8 -65q0 -54 -12 -115.5t-34.5 -118.5t-60.5 -95t-83 -38q-99 0 -99 140q0 54 12 115.5t34.5 118.5t60.5 95t83 38q57 0 82 -50q44 31 54 73h-6q-10 0 -18 8.5t-8 19.5q0 15 10.5 25.5t24.5 10.5q32 0 32 -38zM132 15
q45 0 83 63t55.5 139.5t17.5 136.5q0 114 -69 114q-45 0 -83 -63.5t-55.5 -140t-17.5 -136.5q0 -113 69 -113z" />
    <glyph glyph-name="Uhorn" unicode="&#x1af;" horiz-adv-x="396" 
d="M504 745q0 -38 -30.5 -77.5t-69.5 -58.5l-100 -455q-20 -88 -53.5 -127t-92.5 -39q-51 0 -81 30.5t-30 87.5q0 26 5 48l113 513h32l-113 -513q-5 -20 -5 -42q0 -46 22.5 -70t59.5 -24q43 0 69 31t42 105l113 513h32l-5 -23q47 33 57 75h-6q-10 0 -18 8.5t-8 19.5
q0 15 10.5 25.5t24.5 10.5q32 0 32 -38z" />
    <glyph glyph-name="uhorn" unicode="&#x1b0;" 
d="M414 544q0 -38 -31 -78t-70 -59l-90 -407h-30l15 68q-56 -80 -113 -80q-33 0 -51 17t-18 50q0 17 5 34l87 394h30l-87 -394q-4 -18 -4 -29q0 -45 44 -45q30 0 60.5 26t54.5 65l84 377h30l-9 -41q48 34 58 76h-6q-10 0 -18 8.5t-8 19.5q0 15 10.5 25.5t24.5 10.5
q32 0 32 -38z" />
    <glyph glyph-name="AEacute" unicode="&#x1fc;" horiz-adv-x="509" 
d="M402 0h-210l39 179h-134l-94 -179h-35l358 667h223l-6 -30h-178l-62 -279h171l-7 -30h-171l-66 -298h178zM238 209l90 406l-215 -406h125zM489 867l-127 -144h-26l110 144h43z" />
    <glyph glyph-name="aeacute" unicode="&#x1fd;" horiz-adv-x="553" 
d="M210 468q-34 0 -63.5 -40t-47 -97t-27.5 -114t-10 -98q0 -104 62 -104q27 0 56.5 29.5t47.5 70.5l56 251q-3 42 -24.5 72t-49.5 30zM257 111l-25 -111h-30l15 66q-43 -78 -100 -78q-42 0 -64.5 35.5t-22.5 97.5q0 46 11.5 107t33 122t58 103t79.5 42q26 0 48.5 -22.5
t32.5 -65.5l16 76h30l-17 -78q46 90 109 90q96 0 96 -136q0 -62 -18 -127h-225q-10 -47 -10 -91q0 -59 22.5 -92.5t63.5 -33.5q45 0 87 64l23 -19q-52 -72 -109 -72q-94 0 -104 123zM289 259h194q12 57 12 96q0 113 -66 113q-36 0 -66.5 -36.5t-47.5 -80.5t-26 -92zM462 700
l-127 -144h-26l110 144h43z" />
    <glyph glyph-name="Oslashacute" unicode="&#x1fe;" horiz-adv-x="396" 
d="M425 867l-127 -144h-26l110 144h43zM151 -12q-58 0 -84 56l-26 -44h-33l46 80q-7 34 -7 78q0 56 14 138.5t40.5 170.5t74.5 149.5t106 61.5t85 -58l27 47h33l-48 -84q8 -37 8 -76q0 -56 -14 -138t-41 -170t-75 -149.5t-106 -61.5zM82 154v-25l263 453q-16 66 -68 66
q-44 0 -82.5 -56.5t-62 -137.5t-37 -161.5t-13.5 -138.5zM155 18q44 0 83 56t62.5 136.5t37.5 161.5t14 138q0 17 -1 26l-263 -454q16 -64 67 -64z" />
    <glyph glyph-name="oslashacute" unicode="&#x1ff;" horiz-adv-x="352" 
d="M365 700l-127 -144h-26l110 144h43zM33 0h-31l38 58q-9 28 -9 70q0 54 12 115.5t34.5 118.5t60.5 95t83 38q53 0 78 -41l19 29h31l-38 -58q9 -34 9 -70q0 -54 -12 -115.5t-34.5 -118.5t-60.5 -95t-83 -38q-54 0 -78 41zM132 15q45 0 83 63t55.5 139.5t17.5 136.5
q0 13 -2 33l-214 -327q15 -45 60 -45zM63 128q0 -23 1 -32l214 327q-15 45 -59 45q-45 0 -83 -63.5t-55.5 -140t-17.5 -136.5z" />
    <glyph glyph-name="Scommaaccent" unicode="&#x218;" horiz-adv-x="319" 
d="M102 -12q-34 0 -65.5 17.5t-48.5 44.5l28 24q12 -25 36 -40.5t50 -15.5q51 0 90 46t39 122q0 41 -20.5 83.5t-44.5 73t-44.5 74t-20.5 87.5q0 73 46 123.5t103 50.5q66 0 98 -47l-24 -24q-27 41 -74 41q-50 0 -83 -42.5t-33 -101.5q0 -35 20 -75.5t44.5 -73t44.5 -78.5
t20 -91q0 -85 -47 -141.5t-114 -56.5zM115 -122q0 -36 -27 -73.5t-62 -56.5l-18 20q27 15 47 38t25 46h-6q-10 0 -18 8.5t-8 19.5q0 15 10.5 25.5t24.5 10.5q32 0 32 -38z" />
    <glyph glyph-name="scommaaccent" unicode="&#x219;" horiz-adv-x="278" 
d="M91 -12q-74 0 -102 63l25 19q24 -55 81 -55q38 0 66 32.5t28 75.5q0 28 -12.5 54t-30 46t-35 40.5t-30 47.5t-12.5 57q0 52 34 89.5t87 37.5q63 0 90 -54l-24 -19q-18 46 -69 46q-38 0 -62.5 -27t-24.5 -68q0 -31 19 -62.5t41 -53.5t41 -56.5t19 -70.5q0 -59 -37 -100.5
t-92 -41.5zM96 -122q0 -36 -27 -73.5t-62 -56.5l-18 20q27 15 47 38t25 46h-6q-10 0 -18 8.5t-8 19.5q0 15 10.5 25.5t24.5 10.5q32 0 32 -38z" />
    <glyph glyph-name="uni021A" unicode="&#x21a;" horiz-adv-x="287" 
d="M105 0h-32l141 637h-109l6 30h251l-6 -30h-110zM102 -122q0 -36 -27 -73.5t-62 -56.5l-18 20q27 15 47 38t25 46h-6q-10 0 -18 8.5t-8 19.5q0 15 10.5 25.5t24.5 10.5q32 0 32 -38z" />
    <glyph glyph-name="uni021B" unicode="&#x21b;" horiz-adv-x="212" 
d="M93 -12q-57 0 -57 57q0 15 4 31l85 380h-52l6 27h52l29 132h30l-29 -132h70l-6 -27h-70l-85 -380q-4 -15 -4 -31q0 -30 31 -30q20 0 36 19l17 -20q-26 -26 -57 -26zM52 -122q0 -36 -27 -73.5t-62 -56.5l-18 20q27 15 47 38t25 46h-6q-10 0 -18 8.5t-8 19.5
q0 15 10.5 25.5t24.5 10.5q32 0 32 -38z" />
    <glyph glyph-name="uni0237" unicode="&#x237;" horiz-adv-x="160" 
d="M-59 -196q-44 0 -56 39l30 12q3 -24 27 -24q31 0 47 73l129 579h30l-129 -579q-13 -57 -31.5 -78.5t-46.5 -21.5z" />
    <glyph glyph-name="hsuperior" unicode="&#x2b0;" horiz-adv-x="267" 
d="M233 326h-28l54 246q3 12 3 20q0 33 -31 33q-40 0 -81 -63l-52 -236h-28l96 434h28l-37 -166q37 54 81 54q25 0 39 -12.5t14 -32.5q0 -12 -4 -34z" />
    <glyph glyph-name="uni02BC" unicode="&#x2bc;" horiz-adv-x="208" 
d="M227 639q0 -36 -27 -73.5t-62 -56.5l-18 20q27 15 47 38t25 46h-6q-10 0 -18 8.5t-8 19.5q0 15 10.5 25.5t24.5 10.5q32 0 32 -38z" />
    <glyph glyph-name="circumflex" unicode="&#x2c6;" horiz-adv-x="175" 
d="M244 556h-21l-41 116l-88 -116h-25l100 144h36z" />
    <glyph glyph-name="caron" unicode="&#x2c7;" horiz-adv-x="175" 
d="M176 556h-36l-39 144h21l40 -116l89 116h25z" />
    <glyph glyph-name="uni02C9" unicode="&#x2c9;" horiz-adv-x="240" 
d="M316 591h-239l6 27h239z" />
    <glyph glyph-name="uni02CB" unicode="&#x2cb;" horiz-adv-x="119" 
d="M188 556h-24l-63 144h41z" />
    <glyph glyph-name="breve" unicode="&#x2d8;" horiz-adv-x="230" 
d="M313 617q-55 -58 -128 -58t-102 58l23 18q10 -22 33 -35.5t50 -13.5t56 13.5t47 35.5z" />
    <glyph glyph-name="dotaccent" unicode="&#x2d9;" horiz-adv-x="58" 
d="M136 598q0 -13 -9.5 -22.5t-22.5 -9.5q-11 0 -18.5 7.5t-7.5 18.5q0 13 9.5 22.5t22.5 9.5q11 0 18.5 -7.5t7.5 -18.5z" />
    <glyph glyph-name="ring" unicode="&#x2da;" horiz-adv-x="155" 
d="M155 553q-30 0 -49.5 20.5t-19.5 51.5q0 34 26 60t60 26q30 0 49.5 -20.5t19.5 -51.5q0 -35 -25.5 -60.5t-60.5 -25.5zM156 577q25 0 43 18t18 43q0 21 -13 35t-33 14q-25 0 -43 -18t-18 -43q0 -21 13 -35t33 -14z" />
    <glyph glyph-name="ogonek" unicode="&#x2db;" horiz-adv-x="124" 
d="M18 -122l22 -15q-24 -49 -68 -49q-53 0 -53 53q0 85 108 150l20 -17q-100 -59 -100 -130q0 -29 29 -29q30 0 42 37z" />
    <glyph glyph-name="tilde" unicode="&#x2dc;" horiz-adv-x="201" 
d="M210 554q-21 0 -29.5 17.5t-7.5 39t-3.5 39t-18.5 17.5q-35 0 -58 -107h-23q14 63 34 98.5t54 35.5q21 0 29.5 -17.5t7.5 -39t3.5 -39t18.5 -17.5q35 0 59 107h23q-30 -134 -89 -134z" />
    <glyph glyph-name="hungarumlaut" unicode="&#x2dd;" horiz-adv-x="201" 
d="M196 700l-107 -144h-22l90 144h39zM302 700l-107 -144h-22l90 144h39z" />
    <glyph glyph-name="hookabovecomb" unicode="&#x309;" horiz-adv-x="124" 
d="M202 742l-19 9q19 39 54 39q43 0 43 -43q0 -44 -40 -80h-27q43 36 43 77q0 24 -21 24q-20 0 -33 -26z" />
    <glyph glyph-name="uni037E" unicode="&#x37e;" horiz-adv-x="208" 
d="M89 18q0 -36 -27 -73.5t-62 -56.5l-18 20q27 15 47 38t25 46h-6q-10 0 -18 8.5t-8 19.5q0 15 10.5 25.5t24.5 10.5q32 0 32 -38zM148 425q-13 0 -21.5 8.5t-8.5 21.5q0 15 10.5 25t25.5 10q13 0 21.5 -8.5t8.5 -21.5q0 -15 -10.5 -25t-25.5 -10z" />
    <glyph glyph-name="tonos" unicode="&#x384;" 
d="M195 575h-22l60 190h52z" />
    <glyph glyph-name="dieresistonos" unicode="&#x385;" 
d="M253 575h-22l60 190h52zM378 601q0 -13 -9 -22t-22 -9q-11 0 -18 7t-7 18q0 13 9 22t22 9q11 0 18 -7t7 -18zM182 601q0 -13 -9 -22t-22 -9q-11 0 -18 7t-7 18q0 13 9 22t22 9q11 0 18 -7t7 -18z" />
    <glyph glyph-name="Alphatonos" unicode="&#x386;" horiz-adv-x="312" 
d="M129 575h-22l60 190h52zM246 0h-32l7 179h-158l-71 -179h-34l272 667h38zM223 209l17 411l-165 -411h148z" />
    <glyph glyph-name="Epsilontonos" unicode="&#x388;" horiz-adv-x="330" 
d="M88 575h-22l60 190h52zM228 0h-210l147 667h210l-6 -30h-178l-62 -279h171l-7 -30h-171l-66 -298h178z" />
    <glyph glyph-name="Etatonos" unicode="&#x389;" horiz-adv-x="395" 
d="M88 575h-22l60 190h52zM269 0h-32l72 328h-187l-72 -328h-32l147 667h32l-68 -309h187l68 309h32z" />
    <glyph glyph-name="Iotatonos" unicode="&#x38a;" horiz-adv-x="176" 
d="M88 575h-22l60 190h52zM50 0h-32l147 667h32z" />
    <glyph glyph-name="Omicrontonos" unicode="&#x38c;" horiz-adv-x="396" 
d="M114 575h-22l60 190h52zM151 -12q-104 0 -104 170q0 56 14 138.5t40.5 170.5t74.5 149.5t106 61.5q55 0 80 -48t25 -123q0 -56 -14 -138t-41 -170t-75 -149.5t-106 -61.5zM155 18q44 0 83 56t62.5 136.5t37.5 161.5t14 138q0 138 -75 138q-44 0 -82.5 -56.5t-62 -137.5
t-37 -161.5t-13.5 -138.5q0 -136 73 -136z" />
    <glyph glyph-name="Upsilontonos" unicode="&#x38e;" horiz-adv-x="361" 
d="M78 575h-22l60 190h52zM162 0h-32l64 289l-60 378h34l48 -339l200 339h36l-226 -378z" />
    <glyph glyph-name="Omegatonos" unicode="&#x38f;" horiz-adv-x="376" 
d="M114 575h-22l60 190h52zM4 30h74q-34 62 -34 157q0 58 14.5 137.5t41 160.5t72 137t99.5 56q51 0 78 -37.5t27 -131.5q0 -153 -53 -286t-116 -193h69l-6 -30h-100l6 30q66 50 116 204.5t50 274.5q0 75 -16.5 106.5t-54.5 31.5q-45 0 -84 -55.5t-62.5 -134t-36.5 -155
t-13 -128.5q0 -98 29 -144l-6 -30h-100z" />
    <glyph glyph-name="iotadieresistonos" unicode="&#x390;" horiz-adv-x="167" 
d="M72 -12q-63 0 -44 88l89 407h30l-89 -407q-8 -31 -3.5 -46t23.5 -15q8 0 15 1l-3 -26q-8 -2 -18 -2zM166 575h-22l60 190h52zM291 601q0 -13 -9 -22t-22 -9q-10 0 -17.5 7t-7.5 18q0 13 9 22t22 9q10 0 17.5 -7t7.5 -18zM95 601q0 -13 -9 -22t-22 -9q-10 0 -17.5 7
t-7.5 18q0 13 9 22t22 9q10 0 17.5 -7t7.5 -18z" />
    <glyph glyph-name="Alpha" unicode="&#x391;" horiz-adv-x="312" 
d="M246 0h-32l7 179h-158l-71 -179h-34l272 667h38zM223 209l17 411l-165 -411h148z" />
    <glyph glyph-name="Beta" unicode="&#x392;" horiz-adv-x="360" 
d="M128 0h-110l147 667h76q54 0 84.5 -34t30.5 -92q0 -71 -31 -129.5t-86 -72.5q29 -9 43 -42t14 -70q0 -89 -46 -158t-122 -69zM204 358q56 0 87 60.5t31 122.5q0 48 -23 72t-64 24h-44l-62 -279h75zM134 30q55 0 91 60.5t36 136.5q0 101 -91 101h-48l-66 -298h78z" />
    <glyph glyph-name="Gamma" unicode="&#x393;" horiz-adv-x="330" 
d="M50 0h-32l147 667h210l-6 -30h-178z" />
    <glyph glyph-name="uni0394" unicode="&#x394;" horiz-adv-x="312" 
d="M246 0h-288l272 667h38zM215 30l25 590l-237 -590h212z" />
    <glyph glyph-name="Epsilon" unicode="&#x395;" horiz-adv-x="330" 
d="M228 0h-210l147 667h210l-6 -30h-178l-62 -279h171l-7 -30h-171l-66 -298h178z" />
    <glyph glyph-name="Zeta" unicode="&#x396;" horiz-adv-x="309" 
d="M219 0h-237l6 31l329 606h-194l6 30h230l-6 -30l-330 -607h202z" />
    <glyph glyph-name="Eta" unicode="&#x397;" horiz-adv-x="395" 
d="M269 0h-32l72 328h-187l-72 -328h-32l147 667h32l-68 -309h187l68 309h32z" />
    <glyph glyph-name="Theta" unicode="&#x398;" horiz-adv-x="396" 
d="M296 328h-160l6 30h160zM151 -12q-104 0 -104 170q0 56 14 138.5t40.5 170.5t74.5 149.5t106 61.5q55 0 80 -48t25 -123q0 -56 -14 -138t-41 -170t-75 -149.5t-106 -61.5zM155 18q44 0 83 56t62.5 136.5t37.5 161.5t14 138q0 138 -75 138q-44 0 -82.5 -56.5t-62 -137.5
t-37 -161.5t-13.5 -138.5q0 -136 73 -136z" />
    <glyph glyph-name="Iota" unicode="&#x399;" horiz-adv-x="176" 
d="M50 0h-32l147 667h32z" />
    <glyph glyph-name="Kappa" unicode="&#x39a;" horiz-adv-x="372" 
d="M300 0h-36l-96 321l-67 -90l-51 -231h-32l147 667h32l-82 -372l277 372h42l-244 -319z" />
    <glyph glyph-name="Lambda" unicode="&#x39b;" horiz-adv-x="312" 
d="M246 0h-32l26 620l-248 -620h-34l272 667h38z" />
    <glyph glyph-name="Mu" unicode="&#x39c;" horiz-adv-x="508" 
d="M382 0h-32l135 609l-276 -609h-18l-6 609l-135 -609h-32l147 667h51l7 -557l254 557h52z" />
    <glyph glyph-name="Nu" unicode="&#x39d;" horiz-adv-x="395" 
d="M269 0h-32l-59 579l-128 -579h-32l147 667h32l60 -572l127 572h32z" />
    <glyph glyph-name="Xi" unicode="&#x39e;" horiz-adv-x="348" 
d="M386 637h-251l6 30h251zM245 0h-251l6 30h251zM311 328h-237l6 30h237z" />
    <glyph glyph-name="Omicron" unicode="&#x39f;" horiz-adv-x="396" 
d="M151 -12q-104 0 -104 170q0 56 14 138.5t40.5 170.5t74.5 149.5t106 61.5q55 0 80 -48t25 -123q0 -56 -14 -138t-41 -170t-75 -149.5t-106 -61.5zM155 18q44 0 83 56t62.5 136.5t37.5 161.5t14 138q0 138 -75 138q-44 0 -82.5 -56.5t-62 -137.5t-37 -161.5t-13.5 -138.5
q0 -136 73 -136z" />
    <glyph glyph-name="Pi" unicode="&#x3a0;" horiz-adv-x="395" 
d="M269 0h-32l140 637h-187l-140 -637h-32l147 667h251z" />
    <glyph glyph-name="Rho" unicode="&#x3a1;" horiz-adv-x="341" 
d="M50 0h-32l147 667h90q47 0 77 -37t30 -99q0 -93 -49 -167.5t-134 -74.5h-65zM120 319h64q68 0 105.5 65t37.5 147q0 53 -21.5 79.5t-57.5 26.5h-57z" />
    <glyph glyph-name="Sigma" unicode="&#x3a3;" horiz-adv-x="276" 
d="M146 637l54 -298l-186 -309h176l-6 -30h-210l6 31l188 313l-53 293l6 30h210l-6 -30h-179z" />
    <glyph glyph-name="Tau" unicode="&#x3a4;" horiz-adv-x="287" 
d="M105 0h-32l141 637h-109l6 30h251l-6 -30h-110z" />
    <glyph glyph-name="Upsilon" unicode="&#x3a5;" horiz-adv-x="322" 
d="M123 0h-32l64 289l-60 378h34l48 -339l200 339h36l-226 -378z" />
    <glyph glyph-name="Phi" unicode="&#x3a6;" horiz-adv-x="524" 
d="M224 0h-32l15 65q-76 7 -110.5 59t-34.5 133q0 53 14.5 108.5t44 109.5t83.5 89t125 37l15 66h32l-15 -66q76 -7 110 -59t34 -133q0 -53 -14.5 -108.5t-44 -109.5t-83.5 -89.5t-125 -37.5zM98 257q0 -68 28 -112.5t87 -50.5l109 477q-60 -4 -105.5 -36.5t-70 -81
t-36.5 -98t-12 -98.5zM469 409q0 68 -27.5 112t-87.5 50l-109 -476q58 4 103 36t70.5 79.5t38 98t12.5 100.5z" />
    <glyph glyph-name="Chi" unicode="&#x3a7;" horiz-adv-x="308" 
d="M246 0h-34l-45 300l-175 -300h-38l203 340l-49 327h35l39 -289l165 289h39l-194 -330z" />
    <glyph glyph-name="Psi" unicode="&#x3a8;" horiz-adv-x="518" 
d="M221 0h-32l28 125q-132 9 -132 139q0 32 10 76l75 327h32l-76 -334q-9 -38 -9 -69q0 -103 107 -110l117 513h32l-117 -513q141 10 180 179l76 334h32l-78 -340q-23 -100 -79 -150.5t-138 -52.5z" />
    <glyph glyph-name="uni03A9" unicode="&#x3a9;" horiz-adv-x="376" 
d="M4 30h74q-34 62 -34 157q0 58 14.5 137.5t41 160.5t72 137t99.5 56q51 0 78 -37.5t27 -131.5q0 -153 -53 -286t-116 -193h69l-6 -30h-100l6 30q66 50 116 204.5t50 274.5q0 75 -16.5 106.5t-54.5 31.5q-45 0 -84 -55.5t-62.5 -134t-36.5 -155t-13 -128.5q0 -98 29 -144
l-6 -30h-100z" />
    <glyph glyph-name="Iotadieresis" unicode="&#x3aa;" horiz-adv-x="176" 
d="M50 0h-32l147 667h32zM296 785q0 -13 -9 -22t-22 -9q-11 0 -18 7t-7 18q0 13 9 22t22 9q11 0 18 -7t7 -18zM174 785q0 -13 -9 -22t-22 -9q-11 0 -18 7t-7 18q0 13 9 22t22 9q11 0 18 -7t7 -18z" />
    <glyph glyph-name="Upsilondieresis" unicode="&#x3ab;" horiz-adv-x="322" 
d="M123 0h-32l64 289l-60 378h34l48 -339l200 339h36l-226 -378zM369 785q0 -13 -9 -22t-22 -9q-10 0 -17.5 7t-7.5 18q0 13 9 22t22 9q10 0 17.5 -7t7.5 -18zM247 785q0 -13 -9 -22t-22 -9q-10 0 -17.5 7t-7.5 18q0 13 9 22t22 9q10 0 17.5 -7t7.5 -18z" />
    <glyph glyph-name="alphatonos" unicode="&#x3ac;" horiz-adv-x="358" 
d="M284 16l-3 -26q-8 -2 -18 -2q-61 0 -46 82q-42 -82 -100 -82q-41 0 -64 35.5t-23 97.5q0 46 11.5 107t33 122t58 103t79.5 42q26 0 48.5 -22.5t32.5 -65.5l16 76h30l-90 -407q-8 -31 -4 -46t23 -15q9 0 16 1zM124 15q27 0 56.5 29.5t47.5 70.5l56 251q-3 42 -24.5 72
t-49.5 30q-34 0 -63.5 -40t-47 -97t-27.5 -114t-10 -98q0 -104 62 -104zM252 575h-22l60 190h52z" />
    <glyph glyph-name="epsilontonos" unicode="&#x3ad;" horiz-adv-x="327" 
d="M131 -12q-59 0 -87 32.5t-28 79.5q0 57 36 98.5t83 50.5q-29 9 -44.5 34.5t-15.5 58.5q0 68 44 110.5t104 42.5q86 0 110 -81l-27 -11q-21 65 -83 65q-47 0 -81 -35t-34 -92q0 -38 19.5 -60t51.5 -22h64l-6 -27h-64q-45 0 -84 -31.5t-39 -100.5q0 -39 21 -62t60 -23
q58 0 108 72l22 -18q-24 -35 -59.5 -58t-70.5 -23zM258 575h-22l60 190h52z" />
    <glyph glyph-name="etatonos" unicode="&#x3ae;" 
d="M183 -184h-30l127 578q4 18 4 29q0 45 -44 45q-29 0 -61.5 -28.5t-56.5 -68.5l-81 -371h-30l107 483h30l-15 -68q56 80 113 80q33 0 51 -17t18 -50q0 -11 -5 -34zM254 575h-22l60 190h52z" />
    <glyph glyph-name="iotatonos" unicode="&#x3af;" horiz-adv-x="167" 
d="M72 -12q-63 0 -44 88l89 407h30l-89 -407q-8 -31 -3.5 -46t23.5 -15q8 0 15 1l-3 -26q-8 -2 -18 -2zM162 575h-22l60 190h52z" />
    <glyph glyph-name="upsilondieresistonos" unicode="&#x3b0;" horiz-adv-x="347" 
d="M120 -12q-111 0 -77 156l74 339h30l-74 -339q-15 -66 -4.5 -97.5t51.5 -31.5q67 0 114 94t47 224q0 79 -21 148l30 9q22 -68 22 -156q0 -82 -22.5 -160t-67.5 -132t-102 -54zM265 575h-22l60 190h52zM390 601q0 -13 -9 -22t-22 -9q-11 0 -18 7t-7 18q0 13 9 22t22 9
q11 0 18 -7t7 -18zM194 601q0 -13 -9 -22t-22 -9q-11 0 -18 7t-7 18q0 13 9 22t22 9q11 0 18 -7t7 -18z" />
    <glyph glyph-name="alpha" unicode="&#x3b1;" horiz-adv-x="358" 
d="M284 16l-3 -26q-8 -2 -18 -2q-61 0 -46 82q-42 -82 -100 -82q-41 0 -64 35.5t-23 97.5q0 46 11.5 107t33 122t58 103t79.5 42q26 0 48.5 -22.5t32.5 -65.5l16 76h30l-90 -407q-8 -31 -4 -46t23 -15q9 0 16 1zM124 15q27 0 56.5 29.5t47.5 70.5l56 251q-3 42 -24.5 72
t-49.5 30q-34 0 -63.5 -40t-47 -97t-27.5 -114t-10 -98q0 -104 62 -104z" />
    <glyph glyph-name="beta" unicode="&#x3b2;" horiz-adv-x="351" 
d="M137 -12q-32 0 -53 21.5t-28 58.5l-55 -252h-30l142 651q26 118 66.5 164t91.5 46q88 0 88 -115q0 -72 -32.5 -134.5t-90.5 -82.5q26 -7 42 -41t16 -82q0 -97 -46 -165.5t-111 -68.5zM142 461l-76 -347q1 -40 20.5 -69.5t50.5 -29.5q53 0 89 66.5t36 140.5q0 53 -19.5 81
t-51.5 28h-19l6 27h19q54 0 91.5 57t37.5 147q0 88 -55 88q-87 0 -129 -189z" />
    <glyph glyph-name="gamma" unicode="&#x3b3;" horiz-adv-x="279" 
d="M60 -184h-30l37 170q61 281 -9 497h35q56 -211 14 -427q53 83 98.5 199.5t69.5 227.5h30q-54 -248 -204 -480z" />
    <glyph glyph-name="delta" unicode="&#x3b4;" horiz-adv-x="352" 
d="M138 -12q-48 0 -78.5 39.5t-30.5 107.5q0 170 161 297q-46 66 -46 120q0 57 38.5 92t87.5 35q64 0 88 -51l-23 -15q-20 39 -65 39q-40 0 -67.5 -29t-27.5 -71q0 -33 20 -67.5t43.5 -62.5t43.5 -78t20 -110q0 -47 -16.5 -101.5t-56 -99.5t-91.5 -45zM271 233
q0 38 -10.5 73t-22.5 55t-32 49q-57 -42 -101 -113.5t-44 -161.5q0 -56 22.5 -88t54.5 -32q41 0 73 39.5t46 88t14 90.5z" />
    <glyph glyph-name="epsilon" unicode="&#x3b5;" horiz-adv-x="327" 
d="M131 -12q-59 0 -87 32.5t-28 79.5q0 57 36 98.5t83 50.5q-29 9 -44.5 34.5t-15.5 58.5q0 68 44 110.5t104 42.5q86 0 110 -81l-27 -11q-21 65 -83 65q-47 0 -81 -35t-34 -92q0 -38 19.5 -60t51.5 -22h64l-6 -27h-64q-45 0 -84 -31.5t-39 -100.5q0 -39 21 -62t60 -23
q58 0 108 72l22 -18q-24 -35 -59.5 -58t-70.5 -23z" />
    <glyph glyph-name="zeta" unicode="&#x3b6;" horiz-adv-x="294" 
d="M163 -37q0 25 -33 25q-53 0 -79 41t-26 100q0 42 10 88.5t37.5 114t89.5 148t153 160.5h-173l6 27h204l-6 -27q-130 -120 -208.5 -256t-78.5 -254q0 -46 18 -80.5t58 -34.5q62 0 62 -48q0 -45 -69 -124h-43q78 82 78 120z" />
    <glyph glyph-name="eta" unicode="&#x3b7;" 
d="M183 -184h-30l127 578q4 18 4 29q0 45 -44 45q-29 0 -61.5 -28.5t-56.5 -68.5l-81 -371h-30l107 483h30l-15 -68q56 80 113 80q33 0 51 -17t18 -50q0 -11 -5 -34z" />
    <glyph glyph-name="theta" unicode="&#x3b8;" horiz-adv-x="352" 
d="M134 -12q-98 0 -98 159q0 76 15.5 166.5t43 173t71 137.5t92.5 55q97 0 97 -161q0 -76 -15.5 -166t-42.5 -172t-70.5 -137t-92.5 -55zM136 15q52 0 95.5 89.5t68.5 217.5h-213q-19 -99 -19 -181q0 -126 68 -126zM256 652q-52 0 -95 -88t-69 -215h213q18 106 18 175
q0 128 -67 128z" />
    <glyph glyph-name="iota" unicode="&#x3b9;" horiz-adv-x="167" 
d="M72 -12q-63 0 -44 88l89 407h30l-89 -407q-8 -31 -3.5 -46t23.5 -15q8 0 15 1l-3 -26q-8 -2 -18 -2z" />
    <glyph glyph-name="kappa" unicode="&#x3ba;" horiz-adv-x="325" 
d="M247 0h-30l-56 244l-91 -112l-29 -132h-30l107 483h30l-67 -301l244 301h33l-177 -218z" />
    <glyph glyph-name="lambda" unicode="&#x3bb;" horiz-adv-x="279" 
d="M128 645l-1 27q14 7 32 7q52 0 52 -73l-2 -606h-32l10 443l-191 -443h-34l222 501l1 97q0 30 -7 42t-25 12q-14 0 -25 -7z" />
    <glyph glyph-name="uni03BC" unicode="&#x3bc;" horiz-adv-x="349" 
d="M45 16l-44 -200h-30l147 667h30l-87 -394q-16 -76 40 -76q59 0 116 94l83 376h30l-90 -407q-8 -31 -3.5 -46t23.5 -15q8 0 15 1l-3 -26q-8 -2 -18 -2q-32 0 -43 20t-3 62q-53 -82 -113 -82q-35 0 -50 28z" />
    <glyph glyph-name="nu" unicode="&#x3bd;" horiz-adv-x="279" 
d="M99 0h-32l1 483h33l-6 -448q126 202 180 448h30q-55 -251 -206 -483z" />
    <glyph glyph-name="xi" unicode="&#x3be;" horiz-adv-x="294" 
d="M135 -12q-56 0 -83 41t-27 99q0 84 36 142t98 75q-56 24 -56 115q0 111 105 180h-66l6 27h192l-6 -27h-100q-45 -30 -71.5 -77.5t-26.5 -104.5q0 -47 18.5 -73t49.5 -26h61l-6 -27h-61q-59 0 -99.5 -55t-40.5 -148q0 -45 18.5 -79.5t58.5 -34.5q62 0 62 -48
q0 -45 -69 -124h-38q73 77 73 120q0 25 -28 25z" />
    <glyph glyph-name="omicron" unicode="&#x3bf;" horiz-adv-x="352" 
d="M130 -12q-99 0 -99 140q0 54 12 115.5t34.5 118.5t60.5 95t83 38q99 0 99 -140q0 -54 -12 -115.5t-34.5 -118.5t-60.5 -95t-83 -38zM132 15q45 0 83 63t55.5 139.5t17.5 136.5q0 114 -69 114q-45 0 -83 -63.5t-55.5 -140t-17.5 -136.5q0 -113 69 -113z" />
    <glyph glyph-name="pi" unicode="&#x3c0;" horiz-adv-x="368" 
d="M236 0h-30l100 456h-152l-100 -456h-30l100 456h-52l6 27h316l-6 -27h-52z" />
    <glyph glyph-name="rho" unicode="&#x3c1;" horiz-adv-x="351" 
d="M138 -12q-26 0 -48.5 22.5t-32.5 65.5l-56 -260h-30l93 426q24 110 67 181.5t102 71.5q44 0 65.5 -38t21.5 -95q0 -46 -11.5 -107t-33 -122t-58 -103t-79.5 -42zM140 15q34 0 63.5 40t47 97t27.5 114t10 98q0 104 -55 104q-44 0 -81 -63.5t-58 -162.5l-27 -125
q1 -39 23 -70.5t50 -31.5z" />
    <glyph glyph-name="sigma1" unicode="&#x3c2;" horiz-adv-x="284" 
d="M126 -12q-38 0 -66 38.5t-28 114.5q0 49 12 107.5t34.5 115t62 94t86.5 37.5q53 0 81 -49l-24 -20q-20 42 -61 42q-39 0 -71 -37t-50 -91.5t-27.5 -108.5t-9.5 -97q0 -60 19 -89.5t47 -29.5q33 0 47.5 -11t14.5 -35q0 -47 -69 -126h-38q78 82 78 120q0 25 -38 25z" />
    <glyph glyph-name="sigma" unicode="&#x3c3;" horiz-adv-x="352" 
d="M318 342q0 -49 -12 -107.5t-33.5 -115t-59.5 -94t-83 -37.5q-99 0 -99 140q0 54 13 113.5t37.5 114.5t66.5 91t93 36h148l-6 -27h-90q25 -47 25 -114zM286 341q0 75 -23 115h-26q-42 0 -77 -35.5t-55.5 -88t-31 -106.5t-10.5 -98q0 -113 69 -113q45 0 82.5 62.5t54.5 136
t17 127.5z" />
    <glyph glyph-name="tau" unicode="&#x3c4;" horiz-adv-x="237" 
d="M110 -12q-63 0 -44 88l83 380h-88l6 27h207l-6 -27h-89l-83 -380q-8 -31 -3.5 -46t23.5 -15q22 0 41 21l17 -18q-32 -30 -64 -30z" />
    <glyph glyph-name="upsilon" unicode="&#x3c5;" horiz-adv-x="347" 
d="M120 -12q-111 0 -77 156l74 339h30l-74 -339q-15 -66 -4.5 -97.5t51.5 -31.5q67 0 114 94t47 224q0 79 -21 148l30 9q22 -68 22 -156q0 -82 -22.5 -160t-67.5 -132t-102 -54z" />
    <glyph glyph-name="phi" unicode="&#x3c6;" horiz-adv-x="464" 
d="M428 318q0 -49 -12 -100.5t-37 -104t-74 -87.5t-114 -37l-38 -173h-30l38 173q-126 13 -126 177q0 49 9 94.5t29 91t57 83t87 60.5l9 -24q-82 -39 -120 -123.5t-38 -181.5q0 -140 99 -151l105 480h15q74 0 107.5 -48.5t33.5 -128.5zM296 468l-99 -453q50 4 88 32t58 64.5
t32.5 81t16 74t3.5 51.5q0 61 -23.5 103t-75.5 47z" />
    <glyph glyph-name="chi" unicode="&#x3c7;" horiz-adv-x="286" 
d="M172 -184h-29l-26 305l-160 -305h-31l180 338l-28 329h29l23 -294l151 294h31l-172 -329z" />
    <glyph glyph-name="psi" unicode="&#x3c8;" horiz-adv-x="464" 
d="M153 -184h-30l38 173q-115 9 -115 127q0 43 13 102l58 265h30l-59 -271q-13 -62 -13 -96q0 -50 20 -74t72 -27l143 652h30l-143 -652q64 4 103 48t62 149l59 271h30l-61 -278q-24 -111 -70 -162.5t-129 -54.5z" />
    <glyph glyph-name="omega" unicode="&#x3c9;" horiz-adv-x="524" 
d="M485 310q0 -39 -10 -90.5t-29.5 -105t-53.5 -90t-76 -36.5q-84 0 -84 111q-23 -52 -53.5 -81.5t-61.5 -29.5q-88 0 -88 144q0 117 54.5 223.5t133.5 139.5l11 -23q-77 -36 -122 -136t-45 -206q0 -115 56 -115q79 0 129 227l27 124h30l-27 -124q-10 -44 -14 -81.5t-2 -72
t16 -54t39 -19.5q42 0 76.5 59t49.5 125t15 111q0 50 -14.5 96t-41.5 67l17 22q33 -21 50.5 -73.5t17.5 -111.5z" />
    <glyph glyph-name="iotadieresis" unicode="&#x3ca;" horiz-adv-x="167" 
d="M72 -12q-63 0 -44 88l89 407h30l-89 -407q-8 -31 -3.5 -46t23.5 -15q8 0 15 1l-3 -26q-8 -2 -18 -2zM246 601q0 -13 -9 -22t-22 -9q-11 0 -18 7t-7 18q0 13 9 22t22 9q11 0 18 -7t7 -18zM124 601q0 -13 -9 -22t-22 -9q-11 0 -18 7t-7 18q0 13 9 22t22 9q11 0 18 -7t7 -18
z" />
    <glyph glyph-name="upsilondieresis" unicode="&#x3cb;" horiz-adv-x="347" 
d="M120 -12q-111 0 -77 156l74 339h30l-74 -339q-15 -66 -4.5 -97.5t51.5 -31.5q67 0 114 94t47 224q0 79 -21 148l30 9q22 -68 22 -156q0 -82 -22.5 -160t-67.5 -132t-102 -54zM350 601q0 -13 -9 -22t-22 -9q-11 0 -18 7t-7 18q0 13 9 22t22 9q11 0 18 -7t7 -18zM228 601
q0 -13 -9 -22t-22 -9q-11 0 -18 7t-7 18q0 13 9 22t22 9q11 0 18 -7t7 -18z" />
    <glyph glyph-name="omicrontonos" unicode="&#x3cc;" horiz-adv-x="352" 
d="M130 -12q-99 0 -99 140q0 54 12 115.5t34.5 118.5t60.5 95t83 38q99 0 99 -140q0 -54 -12 -115.5t-34.5 -118.5t-60.5 -95t-83 -38zM132 15q45 0 83 63t55.5 139.5t17.5 136.5q0 114 -69 114q-45 0 -83 -63.5t-55.5 -140t-17.5 -136.5q0 -113 69 -113zM259 575h-22
l60 190h52z" />
    <glyph glyph-name="upsilontonos" unicode="&#x3cd;" horiz-adv-x="347" 
d="M120 -12q-111 0 -77 156l74 339h30l-74 -339q-15 -66 -4.5 -97.5t51.5 -31.5q67 0 114 94t47 224q0 79 -21 148l30 9q22 -68 22 -156q0 -82 -22.5 -160t-67.5 -132t-102 -54zM266 575h-22l60 190h52z" />
    <glyph glyph-name="omegatonos" unicode="&#x3ce;" horiz-adv-x="524" 
d="M485 310q0 -39 -10 -90.5t-29.5 -105t-53.5 -90t-76 -36.5q-84 0 -84 111q-23 -52 -53.5 -81.5t-61.5 -29.5q-88 0 -88 144q0 117 54.5 223.5t133.5 139.5l11 -23q-77 -36 -122 -136t-45 -206q0 -115 56 -115q79 0 129 227l27 124h30l-27 -124q-10 -44 -14 -81.5t-2 -72
t16 -54t39 -19.5q42 0 76.5 59t49.5 125t15 111q0 50 -14.5 96t-41.5 67l17 22q33 -21 50.5 -73.5t17.5 -111.5zM345 575h-22l60 190h52z" />
    <glyph glyph-name="afii10023" unicode="&#x401;" horiz-adv-x="330" 
d="M380 768q0 -13 -9 -22t-22 -9q-11 0 -18 7.5t-7 17.5q0 13 9 22t22 9q11 0 18 -7.5t7 -17.5zM258 768q0 -13 -9 -22t-22 -9q-11 0 -18 7.5t-7 17.5q0 13 9 22t22 9q11 0 18 -7.5t7 -17.5zM228 0h-210l147 667h210l-6 -30h-178l-62 -279h171l-7 -30h-171l-66 -298h178z
" />
    <glyph glyph-name="afii10051" unicode="&#x402;" horiz-adv-x="417" 
d="M188 -12l6 30q44 0 71.5 29.5t43.5 106.5l23 102q16 72 -2 115.5t-71 43.5q-35 0 -65 -10l-89 -405h-32l140 637h-109l6 30h251l-6 -30h-110l-45 -202q28 10 65 10q70 0 93.5 -53t5.5 -136l-23 -102q-19 -90 -57.5 -128t-95.5 -38z" />
    <glyph glyph-name="afii10052" unicode="&#x403;" horiz-adv-x="330" 
d="M50 0h-32l147 667h210l-6 -30h-178zM411 867l-127 -144h-26l110 144h43z" />
    <glyph glyph-name="afii10053" unicode="&#x404;" horiz-adv-x="357" 
d="M151 -12q-104 0 -104 170q0 59 14 141.5t40.5 170t74.5 148t106 60.5q87 0 102 -123l-31 -6q-10 99 -76 99q-30 0 -57 -25t-48 -68t-36.5 -91.5t-27.5 -105.5h192l-7 -30h-192q-19 -102 -19 -174t17.5 -104t55.5 -32q28 0 51.5 22t50.5 66l26 -16q-61 -102 -132 -102z
" />
    <glyph glyph-name="afii10054" unicode="&#x405;" horiz-adv-x="319" 
d="M102 -12q-34 0 -65.5 17.5t-48.5 44.5l28 24q12 -25 36 -40.5t50 -15.5q51 0 90 46t39 122q0 41 -20.5 83.5t-44.5 73t-44.5 74t-20.5 87.5q0 73 46 123.5t103 50.5q66 0 98 -47l-24 -24q-27 41 -74 41q-50 0 -83 -42.5t-33 -101.5q0 -35 20 -75.5t44.5 -73t44.5 -78.5
t20 -91q0 -85 -47 -141.5t-114 -56.5z" />
    <glyph glyph-name="afii10055" unicode="&#x406;" horiz-adv-x="176" 
d="M50 0h-32l147 667h32z" />
    <glyph glyph-name="afii10056" unicode="&#x407;" horiz-adv-x="176" 
d="M293 768q0 -13 -9 -22t-22 -9q-10 0 -17.5 7.5t-7.5 17.5q0 13 9 22t22 9q10 0 17.5 -7.5t7.5 -17.5zM171 768q0 -13 -9 -22t-22 -9q-10 0 -17.5 7.5t-7.5 17.5q0 13 9 22t22 9q10 0 17.5 -7.5t7.5 -17.5zM50 0h-32l147 667h32z" />
    <glyph glyph-name="afii10057" unicode="&#x408;" horiz-adv-x="298" 
d="M67 -12q-71 0 -102 57l25 20q24 -47 77 -47q41 0 64 24t35 79l121 546h32l-121 -546q-15 -70 -46.5 -101.5t-84.5 -31.5z" />
    <glyph glyph-name="afii10058" unicode="&#x409;" horiz-adv-x="560" 
d="M-40 -12l6 30q30 0 53 19t52 81.5t61 177.5l103 371h180l-63 -289h68q67 0 89 -53.5t4 -135.5t-63.5 -135.5t-112.5 -53.5h-100l140 637h-118l-97 -345q-28 -99 -53 -161.5t-50.5 -92.5t-47 -40t-51.5 -10zM412 348h-67l-70 -318h67q51 0 85.5 43.5t50.5 115.5
q17 69 0.5 114t-66.5 45z" />
    <glyph glyph-name="afii10059" unicode="&#x40a;" horiz-adv-x="560" 
d="M337 0h-100l72 328h-187l-72 -328h-32l146 667h32l-68 -309h187l68 309h32l-68 -309h68q67 0 90 -50.5t6 -128.5t-62 -128.5t-112 -50.5zM408 328h-67l-66 -298h67q50 0 84.5 40.5t49.5 108.5t-1.5 108.5t-66.5 40.5z" />
    <glyph glyph-name="afii10060" unicode="&#x40b;" horiz-adv-x="417" 
d="M276 0l56 256q16 72 -2 115.5t-71 43.5q-35 0 -65 -10l-89 -405h-32l140 637h-109l6 30h251l-6 -30h-110l-45 -202q28 10 65 10q70 0 93.5 -53t5.5 -136l-56 -256h-32z" />
    <glyph glyph-name="afii10061" unicode="&#x40c;" horiz-adv-x="372" 
d="M300 0h-36l-96 321l-67 -90l-51 -231h-32l147 667h32l-82 -372l277 372h42l-244 -319zM420 867l-127 -144h-26l110 144h43z" />
    <glyph glyph-name="afii10062" unicode="&#x40e;" horiz-adv-x="322" 
d="M6 -12q-36 0 -58 15l21 29q15 -14 43 -14q39 0 66 54l46 93l-30 502h31l28 -446l224 446h35l-301 -602q-39 -77 -105 -77zM387 784q-55 -58 -128 -58t-102 58l23 18q10 -22 33 -35.5t50 -13.5t56 13.5t47 35.5z" />
    <glyph glyph-name="afii10145" unicode="&#x40f;" horiz-adv-x="395" 
d="M98 -130l28 130h-108l146 667h32l-140 -637h187l140 637h32l-146 -667h-111l-28 -130h-32z" />
    <glyph glyph-name="afii10017" unicode="&#x410;" horiz-adv-x="312" 
d="M246 0h-32l7 179h-158l-71 -179h-34l272 667h38zM223 209l17 411l-165 -411h148z" />
    <glyph glyph-name="afii10018" unicode="&#x411;" horiz-adv-x="341" 
d="M164 667h200l-6 -30h-168l-57 -259h58q47 0 77 -37t30 -99q0 -93 -49 -167.5t-134 -74.5h-97zM184 348h-58l-70 -318h64q68 0 105.5 65t37.5 147q0 53 -21.5 79.5t-57.5 26.5z" />
    <glyph glyph-name="afii10019" unicode="&#x412;" horiz-adv-x="360" 
d="M128 0h-110l147 667h76q54 0 84.5 -34t30.5 -92q0 -71 -31 -129.5t-86 -72.5q29 -9 43 -42t14 -70q0 -89 -46 -158t-122 -69zM204 358q56 0 87 60.5t31 122.5q0 48 -23 72t-64 24h-44l-62 -279h75zM134 30q55 0 91 60.5t36 136.5q0 101 -91 101h-48l-66 -298h78z" />
    <glyph glyph-name="afii10020" unicode="&#x413;" horiz-adv-x="330" 
d="M50 0h-32l147 667h210l-6 -30h-178z" />
    <glyph glyph-name="afii10021" unicode="&#x414;" horiz-adv-x="423" 
d="M-63 -123l32 151q24 2 40 11t36.5 35.5t41.5 80.5t45 141l103 371h180l-140 -637h64l-33 -153h-32l26 123h-305l-27 -123h-31zM259 637l-97 -345q-61 -216 -123 -262h204l134 607h-118z" />
    <glyph glyph-name="afii10022" unicode="&#x415;" horiz-adv-x="330" 
d="M228 0h-210l147 667h210l-6 -30h-178l-62 -279h171l-7 -30h-171l-66 -298h178z" />
    <glyph glyph-name="afii10024" unicode="&#x416;" horiz-adv-x="508" 
d="M-7 0h-39l263 348l-104 319h36l105 -347l76 347h32l-74 -337l252 337h39l-244 -319l111 -348h-36l-95 322l-40 -53l-59 -269h-32l58 268l-14 48z" />
    <glyph glyph-name="afii10025" unicode="&#x417;" horiz-adv-x="347" 
d="M126 -12q-49 0 -80.5 33t-41.5 100l34 10q13 -113 88 -113q55 0 90 67.5t35 148.5q0 48 -23 72t-56 24h-61l8 30h76q56 0 89 60t33 137q0 90 -71 90q-32 0 -59 -23.5t-44 -60.5l-28 16q20 42 56 70t79 28q48 0 76 -31t28 -89q0 -71 -34.5 -136t-94.5 -80q60 -25 60 -120
q0 -87 -45.5 -160t-113.5 -73z" />
    <glyph glyph-name="afii10026" unicode="&#x418;" horiz-adv-x="395" 
d="M50 0h-32l147 667h32l-126 -572l313 572h32l-147 -667h-33l128 579z" />
    <glyph glyph-name="afii10027" unicode="&#x419;" horiz-adv-x="395" 
d="M50 0h-32l147 667h32l-126 -572l313 572h32l-147 -667h-33l128 579zM427 784q-55 -58 -128 -58t-102 58l23 18q10 -22 33 -35.5t50 -13.5t56 13.5t47 35.5z" />
    <glyph glyph-name="afii10028" unicode="&#x41a;" horiz-adv-x="372" 
d="M300 0h-36l-96 321l-67 -90l-51 -231h-32l147 667h32l-82 -372l277 372h42l-244 -319z" />
    <glyph glyph-name="afii10029" unicode="&#x41b;" horiz-adv-x="395" 
d="M-40 -12l6 30q30 0 53 19t52 81.5t61 177.5l103 371h180l-146 -667h-32l140 637h-118l-97 -345q-28 -99 -53 -161.5t-50.5 -92.5t-47 -40t-51.5 -10z" />
    <glyph glyph-name="afii10030" unicode="&#x41c;" horiz-adv-x="508" 
d="M382 0h-32l135 609l-276 -609h-18l-6 609l-135 -609h-32l147 667h51l7 -557l254 557h52z" />
    <glyph glyph-name="afii10031" unicode="&#x41d;" horiz-adv-x="395" 
d="M269 0h-32l72 328h-187l-72 -328h-32l147 667h32l-68 -309h187l68 309h32z" />
    <glyph glyph-name="afii10032" unicode="&#x41e;" horiz-adv-x="396" 
d="M151 -12q-104 0 -104 170q0 56 14 138.5t40.5 170.5t74.5 149.5t106 61.5q55 0 80 -48t25 -123q0 -56 -14 -138t-41 -170t-75 -149.5t-106 -61.5zM155 18q44 0 83 56t62.5 136.5t37.5 161.5t14 138q0 138 -75 138q-44 0 -82.5 -56.5t-62 -137.5t-37 -161.5t-13.5 -138.5
q0 -136 73 -136z" />
    <glyph glyph-name="afii10033" unicode="&#x41f;" horiz-adv-x="395" 
d="M269 0h-32l140 637h-187l-140 -637h-32l147 667h251z" />
    <glyph glyph-name="afii10034" unicode="&#x420;" horiz-adv-x="341" 
d="M50 0h-32l147 667h90q47 0 77 -37t30 -99q0 -93 -49 -167.5t-134 -74.5h-65zM120 319h64q68 0 105.5 65t37.5 147q0 53 -21.5 79.5t-57.5 26.5h-57z" />
    <glyph glyph-name="afii10035" unicode="&#x421;" horiz-adv-x="357" 
d="M151 -12q-104 0 -104 170q0 59 14 141.5t40.5 170t74.5 148t106 60.5q87 0 102 -123l-31 -6q-10 99 -76 99q-46 0 -85 -59t-62 -142t-35.5 -162t-12.5 -131q0 -72 17.5 -104t55.5 -32q28 0 51.5 22t50.5 66l26 -16q-61 -102 -132 -102z" />
    <glyph glyph-name="afii10036" unicode="&#x422;" horiz-adv-x="287" 
d="M105 0h-32l141 637h-109l6 30h251l-6 -30h-110z" />
    <glyph glyph-name="afii10037" unicode="&#x423;" horiz-adv-x="322" 
d="M6 -12q-36 0 -58 15l21 29q15 -14 43 -14q39 0 66 54l46 93l-30 502h31l28 -446l224 446h35l-301 -602q-39 -77 -105 -77z" />
    <glyph glyph-name="afii10038" unicode="&#x424;" horiz-adv-x="524" 
d="M224 0h-32l15 65q-76 7 -110.5 59t-34.5 133q0 53 14.5 108.5t44 109.5t83.5 89t125 37l15 66h32l-15 -66q76 -7 110 -59t34 -133q0 -53 -14.5 -108.5t-44 -109.5t-83.5 -89.5t-125 -37.5zM98 257q0 -68 28 -112.5t87 -50.5l109 477q-60 -4 -105.5 -36.5t-70 -81
t-36.5 -98t-12 -98.5zM469 409q0 68 -27.5 112t-87.5 50l-109 -476q58 4 103 36t70.5 79.5t38 98t12.5 100.5z" />
    <glyph glyph-name="afii10039" unicode="&#x425;" horiz-adv-x="308" 
d="M246 0h-34l-45 300l-175 -300h-38l203 340l-49 327h35l39 -289l165 289h39l-194 -330z" />
    <glyph glyph-name="afii10040" unicode="&#x426;" horiz-adv-x="423" 
d="M274 -123l26 123h-282l146 667h32l-140 -637h187l140 637h32l-140 -637h64l-33 -153h-32z" />
    <glyph glyph-name="afii10041" unicode="&#x427;" horiz-adv-x="362" 
d="M179 667l-41 -189q-16 -72 1.5 -115.5t71.5 -43.5q35 0 65 10l74 338h32l-146 -667h-32l65 299q-28 -10 -65 -10q-70 0 -93.5 53.5t-4.5 135.5l41 189h32z" />
    <glyph glyph-name="afii10042" unicode="&#x428;" horiz-adv-x="585" 
d="M573 667h32l-146 -667h-438l146 667h32l-140 -637h171l140 637h32l-140 -637h171z" />
    <glyph glyph-name="afii10043" unicode="&#x429;" horiz-adv-x="613" 
d="M573 667h32l-140 -637h64l-33 -153h-32l26 123h-469l146 667h32l-140 -637h171l140 637h32l-140 -637h171z" />
    <glyph glyph-name="afii10044" unicode="&#x42a;" horiz-adv-x="396" 
d="M170 0h-97l140 637h-109l6 30h141l-63 -289h58q47 0 77 -37t30 -99q0 -93 -49 -167.5t-134 -74.5zM239 348h-58l-70 -318h64q68 0 105.5 65t37.5 147q0 53 -21.5 79.5t-57.5 26.5z" />
    <glyph glyph-name="afii10045" unicode="&#x42b;" horiz-adv-x="492" 
d="M366 0h-32l146 667h32zM164 667h32l-63 -289h58q47 0 77 -37t30 -99q0 -93 -49 -167.5t-134 -74.5h-97zM184 348h-58l-70 -318h64q68 0 105.5 65t37.5 147q0 53 -21.5 79.5t-57.5 26.5z" />
    <glyph glyph-name="afii10046" unicode="&#x42c;" horiz-adv-x="341" 
d="M164 667h32l-63 -289h58q47 0 77 -37t30 -99q0 -93 -49 -167.5t-134 -74.5h-97zM184 348h-58l-70 -318h64q68 0 105.5 65t37.5 147q0 53 -21.5 79.5t-57.5 26.5z" />
    <glyph glyph-name="afii10047" unicode="&#x42d;" horiz-adv-x="357" 
d="M244 678q104 0 104 -170q0 -59 -14 -141.5t-40.5 -170t-74.5 -148t-106 -60.5q-87 0 -102 123l31 6q10 -99 76 -99q31 0 59 27t49.5 73.5t37 98.5t27.5 111h-192l7 30h191q16 90 16 154q0 72 -17.5 104t-55.5 32q-28 0 -51.5 -22t-50.5 -66l-26 16q61 102 132 102z" />
    <glyph glyph-name="afii10048" unicode="&#x42e;" horiz-adv-x="540" 
d="M295 -12q-104 0 -104 170q0 71 19 170h-88l-72 -328h-32l146 667h32l-68 -309h88q13 61 31.5 114.5t44.5 101.5t60.5 76t73.5 28q55 0 80 -48t25 -123q0 -56 -14 -138t-41 -170t-75 -149.5t-106 -61.5zM299 18q44 0 83 56t62.5 136.5t37.5 161.5t14 138q0 138 -75 138
q-44 0 -82.5 -56.5t-62 -137.5t-37 -161.5t-13.5 -138.5q0 -136 73 -136z" />
    <glyph glyph-name="afii10049" unicode="&#x42f;" horiz-adv-x="366" 
d="M37 0h-39l172 298q-64 35 -64 127q0 93 49 167.5t134 74.5h98l-148 -667h-32l63 289h-71zM220 319h57l71 318h-64q-68 0 -105.5 -65t-37.5 -147q0 -53 21.5 -79.5t57.5 -26.5z" />
    <glyph glyph-name="afii10065" unicode="&#x430;" horiz-adv-x="351" 
d="M212 495q26 0 48.5 -22.5t32.5 -65.5l16 76h30l-107 -483h-30l15 66q-43 -78 -100 -78q-42 0 -64.5 35.5t-22.5 97.5q0 46 11.5 107t33 122t58 103t79.5 42zM210 468q-34 0 -63.5 -40t-47 -97t-27.5 -114t-10 -98q0 -104 62 -104q27 0 56.5 29.5t47.5 70.5l56 251
q-3 42 -24.5 72t-49.5 30z" />
    <glyph glyph-name="afii10066" unicode="&#x431;" horiz-adv-x="352" 
d="M132 15q45 0 83 63t55.5 139.5t17.5 136.5q0 114 -69 114q-45 0 -83 -63.5t-55.5 -140t-17.5 -136.5q0 -113 69 -113zM130 -12q-99 0 -99 140q0 103 57 286q30 95 72.5 140.5t134.5 68.5q54 13 61 44h30q-10 -51 -101 -75q-79 -20 -113 -62t-63 -135q48 100 118 100
q42 0 67.5 -33.5t25.5 -106.5q0 -54 -12 -115.5t-34.5 -118.5t-60.5 -95t-83 -38z" />
    <glyph glyph-name="afii10067" unicode="&#x432;" horiz-adv-x="299" 
d="M123 0h-112l106 483h80q47 0 76.5 -23t29.5 -68q0 -47 -22.5 -87.5t-65.5 -57.5q43 -20 43 -79q0 -66 -35 -117t-100 -51zM46 25h77q50 0 77 43.5t27 99.5q0 32 -18 50t-48 18h-69zM98 262h81q41 0 67 41.5t26 88.5q0 66 -81 66h-50z" />
    <glyph glyph-name="afii10068" unicode="&#x433;" horiz-adv-x="275" 
d="M299 483l-6 -27h-152l-100 -456h-30l106 483h182z" />
    <glyph glyph-name="afii10069" unicode="&#x434;" horiz-adv-x="369" 
d="M-60 -123l32 148q23 6 38.5 19t38.5 59t49 130l76 250h155l-100 -456h59l-33 -150h-30l27 123h-255l-28 -123h-29zM196 456l-70 -229q-50 -162 -97 -200h170l94 429h-97z" />
    <glyph glyph-name="afii10070" unicode="&#x435;" horiz-adv-x="346" 
d="M149 -12q-55 0 -86.5 38t-31.5 114q0 36 9.5 89.5t29 116t59 106t90.5 43.5q101 0 101 -136q0 -62 -18 -127h-228q-10 -47 -10 -91q0 -59 21.5 -92.5t62.5 -33.5q47 0 89 64l23 -19q-52 -72 -111 -72zM79 259h197q12 57 12 96q0 49 -17.5 81t-53.5 32t-66 -36.5
t-46.5 -80.5t-25.5 -92z" />
    <glyph glyph-name="afii10072" unicode="&#x436;" horiz-adv-x="420" 
d="M3 0h-33l182 265l-80 218h30l90 -249l55 249h30l-54 -244l197 244h32l-176 -218l66 -265h-31l-55 242l-44 -53l-41 -189h-30l42 191l-19 51z" />
    <glyph glyph-name="afii10073" unicode="&#x437;" horiz-adv-x="327" 
d="M203 495q56 0 81 -30.5t25 -76.5q0 -57 -33.5 -97t-79.5 -49q30 -9 47.5 -36t17.5 -60q0 -71 -45 -114.5t-105 -43.5q-90 0 -115 84l27 11q22 -68 88 -68q47 0 82 36t35 96q0 38 -22.5 61.5t-58.5 23.5h-59l6 27h55q46 0 86 30.5t40 98.5q0 80 -72 80q-65 0 -113 -69
l-22 18q24 35 60 56.5t75 21.5z" />
    <glyph glyph-name="afii10074" unicode="&#x438;" 
d="M48 0h-37l106 483h30l-91 -411l236 411h37l-106 -483h-30l91 416z" />
    <glyph glyph-name="afii10075" unicode="&#x439;" 
d="M48 0h-37l106 483h30l-91 -411l236 411h37l-106 -483h-30l91 416zM364 617q-55 -58 -128 -58t-102 58l23 18q10 -22 33 -35.5t50 -13.5t56 13.5t47 35.5z" />
    <glyph glyph-name="afii10076" unicode="&#x43a;" horiz-adv-x="325" 
d="M247 0h-30l-56 244l-91 -112l-29 -132h-30l107 483h30l-67 -301l244 301h33l-177 -218z" />
    <glyph glyph-name="afii10077" unicode="&#x43b;" 
d="M-36 -12l6 27q31 0 60.5 46.5t67.5 171.5l76 250h155l-106 -483h-30l100 456h-97l-70 -229q-41 -137 -78.5 -188t-83.5 -51z" />
    <glyph glyph-name="afii10078" unicode="&#x43c;" horiz-adv-x="435" 
d="M316 0h-30l94 431l-207 -431h-19l-19 431l-94 -431h-30l106 483h46l17 -402l195 402h47z" />
    <glyph glyph-name="afii10079" unicode="&#x43d;" 
d="M41 0h-30l106 483h30l-48 -218h152l48 218h30l-106 -483h-30l52 238h-152z" />
    <glyph glyph-name="afii10080" unicode="&#x43e;" horiz-adv-x="352" 
d="M130 -12q-99 0 -99 140q0 54 12 115.5t34.5 118.5t60.5 95t83 38q99 0 99 -140q0 -54 -12 -115.5t-34.5 -118.5t-60.5 -95t-83 -38zM132 15q45 0 83 63t55.5 139.5t17.5 136.5q0 114 -69 114q-45 0 -83 -63.5t-55.5 -140t-17.5 -136.5q0 -113 69 -113z" />
    <glyph glyph-name="afii10081" unicode="&#x43f;" 
d="M223 0h-30l100 456h-152l-100 -456h-30l106 483h212z" />
    <glyph glyph-name="afii10082" unicode="&#x440;" horiz-adv-x="351" 
d="M138 -12q-26 0 -48.5 22.5t-32.5 65.5l-57 -260h-30l148 667h30l-15 -66q43 78 100 78q42 0 64.5 -35.5t22.5 -97.5q0 -46 -11.5 -107t-33 -122t-58 -103t-79.5 -42zM140 15q34 0 63.5 40t47 97t27.5 114t10 98q0 104 -62 104q-27 0 -56.5 -29.5t-47.5 -70.5l-56 -251
q3 -42 24.5 -72t49.5 -30z" />
    <glyph glyph-name="afii10083" unicode="&#x441;" horiz-adv-x="294" 
d="M139 -12q-107 0 -107 153q0 49 12 107.5t34.5 115t62 94t86.5 37.5q53 0 81 -49l-24 -20q-20 42 -61 42q-39 0 -71 -37t-50 -91.5t-27.5 -108.5t-9.5 -97q0 -119 74 -119q37 0 66 36l18 -22q-40 -41 -84 -41z" />
    <glyph glyph-name="afii10084" unicode="&#x442;" horiz-adv-x="258" 
d="M90 0h-30l100 456h-86l6 27h202l-6 -27h-86z" />
    <glyph glyph-name="afii10085" unicode="&#x443;" horiz-adv-x="279" 
d="M-67 -188l12 26q6 -7 23 -7t27.5 11.5t25.5 42.5l45 97l3 501h32l-9 -443l190 443h34l-272 -606q-33 -73 -79 -73q-20 0 -32 8z" />
    <glyph glyph-name="afii10086" unicode="&#x444;" horiz-adv-x="484" 
d="M191 495q56 0 73 -79l55 251h30l-54 -244q19 34 44 53t45 19q70 0 70 -126q0 -66 -20.5 -153.5t-60 -157.5t-83.5 -70q-56 0 -73 79l-55 -251h-30l54 244q-19 -34 -44 -53t-45 -19q-70 0 -70 126q0 66 20.5 153.5t60 157.5t83.5 70zM197 468q-39 0 -73 -68.5
t-50.5 -149.5t-16.5 -138q0 -97 47 -97q22 0 49.5 30t44.5 70l55 251q1 40 -15 71t-41 31zM284 15q39 0 73 68.5t50.5 149.5t16.5 138q0 97 -47 97q-22 0 -49.5 -30t-44.5 -70l-55 -251q-1 -40 15 -71t41 -31z" />
    <glyph glyph-name="afii10087" unicode="&#x445;" horiz-adv-x="286" 
d="M212 0h-32l-42 217l-138 -217h-34l160 245l-47 238h32l37 -209l131 209h34l-153 -238z" />
    <glyph glyph-name="afii10088" unicode="&#x446;" horiz-adv-x="369" 
d="M225 -123l27 123h-241l106 483h30l-101 -456h152l101 456h30l-100 -456h59l-33 -150h-30z" />
    <glyph glyph-name="afii10089" unicode="&#x447;" horiz-adv-x="333" 
d="M108 483h30l-43 -195q-16 -74 45 -74q25 0 53 11t45 25l52 233h30l-106 -483h-30l49 223q-49 -36 -103 -36q-47 0 -61.5 24t-3.5 77z" />
    <glyph glyph-name="afii10090" unicode="&#x448;" horiz-adv-x="494" 
d="M451 483h30l-106 -483h-364l106 483h30l-101 -456h137l101 456h30l-101 -456h137z" />
    <glyph glyph-name="afii10091" unicode="&#x449;" horiz-adv-x="521" 
d="M451 483h30l-100 -456h59l-33 -150h-30l27 123h-393l106 483h30l-101 -456h137l101 456h30l-101 -456h137z" />
    <glyph glyph-name="afii10092" unicode="&#x44a;" horiz-adv-x="379" 
d="M170 0h-110l100 456h-86l6 27h116l-46 -206h57q47 0 75 -26.5t28 -77.5q0 -64 -36.5 -118.5t-103.5 -54.5zM200 251h-55l-50 -224h79q48 0 75.5 46.5t27.5 99.5q0 78 -77 78z" />
    <glyph glyph-name="afii10093" unicode="&#x44b;" horiz-adv-x="460" 
d="M341 0h-30l106 483h30zM117 483h30l-46 -206h57q47 0 75 -26.5t28 -77.5q0 -64 -36.5 -118.5t-103.5 -54.5h-110zM151 251h-55l-50 -224h79q48 0 75.5 46.5t27.5 99.5q0 78 -77 78z" />
    <glyph glyph-name="afii10094" unicode="&#x44c;" horiz-adv-x="330" 
d="M117 483h30l-46 -206h57q47 0 75 -26.5t28 -77.5q0 -64 -36.5 -118.5t-103.5 -54.5h-110zM151 251h-55l-50 -224h79q48 0 75.5 46.5t27.5 99.5q0 78 -77 78z" />
    <glyph glyph-name="afii10095" unicode="&#x44d;" horiz-adv-x="294" 
d="M155 495q107 0 107 -153q0 -49 -12 -107.5t-34.5 -115t-62 -94t-86.5 -37.5q-53 0 -81 49l24 20q20 -42 61 -42q53 0 90 63.5t55 153.5h-153l6 27h152q8 53 8 90q0 119 -74 119q-37 0 -66 -36l-18 22q40 41 84 41z" />
    <glyph glyph-name="afii10096" unicode="&#x44e;" horiz-adv-x="476" 
d="M253 -12q-99 0 -99 140q0 54 10 110h-71l-52 -238h-30l106 483h30l-48 -218h71q22 97 66.5 163.5t107.5 66.5q99 0 99 -140q0 -54 -12 -115.5t-34.5 -118.5t-60.5 -95t-83 -38zM255 15q45 0 83 63t55.5 139.5t17.5 136.5q0 114 -69 114q-45 0 -83 -63.5t-55.5 -140
t-17.5 -136.5q0 -113 69 -113z" />
    <glyph glyph-name="afii10097" unicode="&#x44f;" 
d="M35 0h-36l134 215q-55 22 -55 95q0 64 36.5 118.5t103.5 54.5h111l-106 -483h-30l45 206h-78zM189 232h55l49 224h-79q-48 0 -75.5 -46.5t-27.5 -99.5q0 -78 78 -78z" />
    <glyph glyph-name="afii10071" unicode="&#x451;" horiz-adv-x="346" 
d="M149 -12q-55 0 -86.5 38t-31.5 114q0 36 9.5 89.5t29 116t59 106t90.5 43.5q101 0 101 -136q0 -62 -18 -127h-228q-10 -47 -10 -91q0 -59 21.5 -92.5t62.5 -33.5q47 0 89 64l23 -19q-52 -72 -111 -72zM79 259h197q12 57 12 96q0 49 -17.5 81t-53.5 32t-66 -36.5
t-46.5 -80.5t-25.5 -92zM348 601q0 -13 -9 -22t-22 -9q-11 0 -18 7t-7 18q0 13 9 22t22 9q11 0 18 -7t7 -18zM226 601q0 -13 -9 -22t-22 -9q-11 0 -18 7t-7 18q0 13 9 22t22 9q11 0 18 -7t7 -18z" />
    <glyph glyph-name="afii10099" unicode="&#x452;" horiz-adv-x="358" 
d="M287 541h-112l-28 -130q26 37 58 60.5t63 23.5q42 0 55.5 -23.5t1.5 -77.5l-108 -490q-21 -100 -86 -100q-41 0 -48 38l30 14q5 -25 24 -25q34 0 50 73l108 490q16 74 -37 74q-31 0 -63.5 -27.5t-55.5 -66.5l-82 -374h-30l118 541h-61l5 27h62l22 99h30l-22 -99h111z" />
    <glyph glyph-name="afii10100" unicode="&#x453;" horiz-adv-x="275" 
d="M299 483l-6 -27h-152l-100 -456h-30l106 483h182zM354 700l-127 -144h-26l110 144h43z" />
    <glyph glyph-name="afii10101" unicode="&#x454;" horiz-adv-x="294" 
d="M139 -12q-107 0 -107 153q0 49 12 107.5t34.5 115t62 94t86.5 37.5q53 0 81 -49l-24 -20q-20 42 -61 42q-52 0 -88.5 -60.5t-55.5 -148.5h153l-6 -27h-152q-9 -56 -9 -98q0 -119 74 -119q37 0 66 36l18 -22q-40 -41 -84 -41z" />
    <glyph glyph-name="afii10102" unicode="&#x455;" horiz-adv-x="278" 
d="M91 -12q-74 0 -102 63l25 19q24 -55 81 -55q38 0 66 32.5t28 75.5q0 28 -12.5 54t-30 46t-35 40.5t-30 47.5t-12.5 57q0 52 34 89.5t87 37.5q63 0 90 -54l-24 -19q-18 46 -69 46q-38 0 -62.5 -27t-24.5 -68q0 -31 19 -62.5t41 -53.5t41 -56.5t19 -70.5q0 -59 -37 -100.5
t-92 -41.5z" />
    <glyph glyph-name="afii10103" unicode="&#x456;" horiz-adv-x="160" 
d="M154 566q-11 0 -19 7.5t-8 18.5q0 14 10.5 23t22.5 9q11 0 19 -7.5t8 -18.5q0 -14 -10.5 -23t-22.5 -9zM41 0h-30l107 483h30z" />
    <glyph glyph-name="afii10104" unicode="&#x457;" horiz-adv-x="160" 
d="M247 601q0 -13 -9 -22t-22 -9q-10 0 -17.5 7t-7.5 18q0 13 9 22t22 9q10 0 17.5 -7t7.5 -18zM125 601q0 -13 -9 -22t-22 -9q-10 0 -17.5 7t-7.5 18q0 13 9 22t22 9q10 0 17.5 -7t7.5 -18zM41 0h-30l107 483h30z" />
    <glyph glyph-name="afii10105" unicode="&#x458;" horiz-adv-x="160" 
d="M-59 -196q-44 0 -56 39l30 12q3 -24 27 -24q31 0 47 73l129 579h30l-129 -579q-13 -57 -31.5 -78.5t-46.5 -21.5zM154 566q-11 0 -19 7.5t-8 18.5q0 14 10.5 23t22.5 9q11 0 19 -7.5t8 -18.5q0 -14 -10.5 -23t-22.5 -9z" />
    <glyph glyph-name="afii10106" unicode="&#x459;" horiz-adv-x="512" 
d="M-36 -12l6 27q31 0 60.5 46.5t67.5 171.5l76 250h155l-46 -206h57q47 0 75 -26.5t28 -77.5q0 -64 -36.5 -118.5t-103.5 -54.5h-110l100 456h-97l-70 -229q-41 -137 -78.5 -188t-83.5 -51zM333 251h-55l-50 -224h79q48 0 75.5 46.5t27.5 99.5q0 78 -77 78z" />
    <glyph glyph-name="afii10107" unicode="&#x45a;" horiz-adv-x="512" 
d="M41 0h-30l106 483h30l-48 -218h152l48 218h30l-48 -218h56q48 0 77 -23.5t29 -74.5q0 -63 -36.5 -115t-103.5 -52h-110l52 238h-152zM330 238h-55l-47 -211h79q48 0 75.5 44t27.5 96q0 71 -80 71z" />
    <glyph glyph-name="afii10108" unicode="&#x45b;" horiz-adv-x="358" 
d="M239 0h-30l87 394q4 14 4 29q0 45 -44 45q-29 0 -61.5 -28.5t-56.5 -68.5l-81 -371h-30l119 541h-55l6 27h55l22 99h30l-22 -99h118l-6 -27h-118l-27 -126q56 80 113 80q34 0 51.5 -18t17.5 -49q0 -9 -5 -34z" />
    <glyph glyph-name="afii10109" unicode="&#x45c;" horiz-adv-x="325" 
d="M247 0h-30l-56 244l-91 -112l-29 -132h-30l107 483h30l-67 -301l244 301h33l-177 -218zM365 700l-127 -144h-26l110 144h43z" />
    <glyph glyph-name="afii10110" unicode="&#x45e;" horiz-adv-x="279" 
d="M-67 -188l12 26q6 -7 23 -7t27.5 11.5t25.5 42.5l45 97l3 501h32l-9 -443l190 443h34l-272 -606q-33 -73 -79 -73q-20 0 -32 8zM330 617q-55 -58 -128 -58t-102 58l23 18q10 -22 33 -35.5t50 -13.5t56 13.5t47 35.5z" />
    <glyph glyph-name="afii10193" unicode="&#x45f;" 
d="M75 -119l26 119h-90l106 483h30l-101 -456h152l101 456h30l-106 -483h-92l-26 -119h-30z" />
    <glyph glyph-name="afii10050" unicode="&#x490;" horiz-adv-x="330" 
d="M50 0h-32l146 667h178l27 124h32l-33 -154h-178z" />
    <glyph glyph-name="afii10098" unicode="&#x491;" horiz-adv-x="275" 
d="M141 456l-100 -456h-30l106 483h152l26 119h30l-32 -146h-152z" />
    <glyph glyph-name="uni1E02" unicode="&#x1e02;" horiz-adv-x="360" 
d="M128 0h-110l147 667h76q54 0 84.5 -34t30.5 -92q0 -71 -31 -129.5t-86 -72.5q29 -9 43 -42t14 -70q0 -89 -46 -158t-122 -69zM204 358q56 0 87 60.5t31 122.5q0 48 -23 72t-64 24h-44l-62 -279h75zM134 30q55 0 91 60.5t36 136.5q0 101 -91 101h-48l-66 -298h78zM325 765
q0 -13 -9.5 -22.5t-22.5 -9.5q-11 0 -18.5 7.5t-7.5 18.5q0 13 9.5 22.5t22.5 9.5q11 0 18.5 -7.5t7.5 -18.5z" />
    <glyph glyph-name="uni1E03" unicode="&#x1e03;" horiz-adv-x="351" 
d="M138 -12q-26 0 -48.5 22.5t-32.5 65.5l-16 -76h-30l147 667h30l-55 -250q43 78 100 78q42 0 64.5 -35.5t22.5 -97.5q0 -46 -11.5 -107t-33 -122t-58 -103t-79.5 -42zM140 15q34 0 63.5 40t47 97t27.5 114t10 98q0 104 -62 104q-27 0 -56.5 -29.5t-47.5 -70.5l-56 -251
q3 -42 24.5 -72t49.5 -30zM327 765q0 -13 -9.5 -22.5t-22.5 -9.5q-11 0 -18.5 7.5t-7.5 18.5q0 13 9.5 22.5t22.5 9.5q11 0 18.5 -7.5t7.5 -18.5z" />
    <glyph glyph-name="uni1E0A" unicode="&#x1e0a;" horiz-adv-x="386" 
d="M112 0h-94l147 667h91q48 0 81.5 -44.5t33.5 -140.5q0 -31 -6.5 -82.5t-24.5 -123t-45.5 -131.5t-75.5 -102.5t-107 -42.5zM115 30h2q47 0 86.5 39.5t63 96t40.5 122t23.5 115.5t6.5 79q0 79 -24.5 117t-62.5 38h-59l-135 -607h59zM344 765q0 -13 -9.5 -22.5t-22.5 -9.5
q-11 0 -18.5 7.5t-7.5 18.5q0 13 9.5 22.5t22.5 9.5q11 0 18.5 -7.5t7.5 -18.5z" />
    <glyph glyph-name="uni1E0B" unicode="&#x1e0b;" horiz-adv-x="351" 
d="M212 495q26 0 48.5 -22.5t32.5 -65.5l57 260h30l-148 -667h-30l15 66q-43 -78 -100 -78q-42 0 -64.5 35.5t-22.5 97.5q0 46 11.5 107t33 122t58 103t79.5 42zM210 468q-34 0 -63.5 -40t-47 -97t-27.5 -114t-10 -98q0 -104 62 -104q27 0 56.5 29.5t47.5 70.5l56 251
q-3 42 -24.5 72t-49.5 30zM313 765q0 -13 -9.5 -22.5t-22.5 -9.5q-11 0 -18.5 7.5t-7.5 18.5q0 13 9.5 22.5t22.5 9.5q11 0 18.5 -7.5t7.5 -18.5z" />
    <glyph glyph-name="uni1E1E" unicode="&#x1e1e;" horiz-adv-x="330" 
d="M50 0h-32l147 667h210l-6 -30h-178l-62 -279h171l-7 -30h-171zM319 765q0 -13 -9.5 -22.5t-22.5 -9.5q-11 0 -18.5 7.5t-7.5 18.5q0 13 9.5 22.5t22.5 9.5q11 0 18.5 -7.5t7.5 -18.5z" />
    <glyph glyph-name="uni1E1F" unicode="&#x1e1f;" horiz-adv-x="202" 
d="M54 0h-30l101 456h-50l6 27h50l23 107q8 40 32.5 63.5t59.5 23.5q39 0 55 -28l-23 -22q-12 23 -35 23q-46 0 -59 -60l-23 -107h70l-6 -27h-70zM286 765q0 -13 -9.5 -22.5t-22.5 -9.5q-11 0 -18.5 7.5t-7.5 18.5q0 13 9.5 22.5t22.5 9.5q11 0 18.5 -7.5t7.5 -18.5z" />
    <glyph glyph-name="uni1E22" unicode="&#x1e22;" horiz-adv-x="395" 
d="M269 0h-32l72 328h-187l-72 -328h-32l147 667h32l-68 -309h187l68 309h32zM340 765q0 -13 -9.5 -22.5t-22.5 -9.5q-11 0 -18.5 7.5t-7.5 18.5q0 13 9.5 22.5t22.5 9.5q11 0 18.5 -7.5t7.5 -18.5z" />
    <glyph glyph-name="uni1E23" unicode="&#x1e23;" 
d="M223 0h-30l87 394q4 14 4 29q0 45 -44 45q-29 0 -61.5 -28.5t-56.5 -68.5l-81 -371h-30l147 667h30l-55 -252q56 80 113 80q34 0 51.5 -18t17.5 -49q0 -9 -5 -34zM315 765q0 -13 -9.5 -22.5t-22.5 -9.5q-11 0 -18.5 7.5t-7.5 18.5q0 13 9.5 22.5t22.5 9.5q11 0 18.5 -7.5
t7.5 -18.5z" />
    <glyph glyph-name="uni1E56" unicode="&#x1e56;" horiz-adv-x="341" 
d="M50 0h-32l147 667h90q47 0 77 -37t30 -99q0 -93 -49 -167.5t-134 -74.5h-65zM120 319h64q68 0 105.5 65t37.5 147q0 53 -21.5 79.5t-57.5 26.5h-57zM327 765q0 -13 -9.5 -22.5t-22.5 -9.5q-11 0 -18.5 7.5t-7.5 18.5q0 13 9.5 22.5t22.5 9.5q11 0 18.5 -7.5t7.5 -18.5z
" />
    <glyph glyph-name="uni1E57" unicode="&#x1e57;" horiz-adv-x="351" 
d="M138 -12q-26 0 -48.5 22.5t-32.5 65.5l-57 -260h-30l148 667h30l-15 -66q43 78 100 78q42 0 64.5 -35.5t22.5 -97.5q0 -46 -11.5 -107t-33 -122t-58 -103t-79.5 -42zM140 15q34 0 63.5 40t47 97t27.5 114t10 98q0 104 -62 104q-27 0 -56.5 -29.5t-47.5 -70.5l-56 -251
q3 -42 24.5 -72t49.5 -30zM290 598q0 -13 -9.5 -22.5t-22.5 -9.5q-11 0 -18.5 7.5t-7.5 18.5q0 13 9.5 22.5t22.5 9.5q11 0 18.5 -7.5t7.5 -18.5z" />
    <glyph glyph-name="uni1E60" unicode="&#x1e60;" horiz-adv-x="319" 
d="M102 -12q-34 0 -65.5 17.5t-48.5 44.5l28 24q12 -25 36 -40.5t50 -15.5q51 0 90 46t39 122q0 41 -20.5 83.5t-44.5 73t-44.5 74t-20.5 87.5q0 73 46 123.5t103 50.5q66 0 98 -47l-24 -24q-27 41 -74 41q-50 0 -83 -42.5t-33 -101.5q0 -35 20 -75.5t44.5 -73t44.5 -78.5
t20 -91q0 -85 -47 -141.5t-114 -56.5zM299 765q0 -13 -9.5 -22.5t-22.5 -9.5q-11 0 -18.5 7.5t-7.5 18.5q0 13 9.5 22.5t22.5 9.5q11 0 18.5 -7.5t7.5 -18.5z" />
    <glyph glyph-name="uni1E61" unicode="&#x1e61;" horiz-adv-x="278" 
d="M91 -12q-74 0 -102 63l25 19q24 -55 81 -55q38 0 66 32.5t28 75.5q0 28 -12.5 54t-30 46t-35 40.5t-30 47.5t-12.5 57q0 52 34 89.5t87 37.5q63 0 90 -54l-24 -19q-18 46 -69 46q-38 0 -62.5 -27t-24.5 -68q0 -31 19 -62.5t41 -53.5t41 -56.5t19 -70.5q0 -59 -37 -100.5
t-92 -41.5zM249 598q0 -13 -9.5 -22.5t-22.5 -9.5q-11 0 -18.5 7.5t-7.5 18.5q0 13 9.5 22.5t22.5 9.5q11 0 18.5 -7.5t7.5 -18.5z" />
    <glyph glyph-name="uni1E6A" unicode="&#x1e6a;" horiz-adv-x="287" 
d="M105 0h-32l141 637h-109l6 30h251l-6 -30h-110zM288 765q0 -13 -9.5 -22.5t-22.5 -9.5q-11 0 -18.5 7.5t-7.5 18.5q0 13 9.5 22.5t22.5 9.5q11 0 18.5 -7.5t7.5 -18.5z" />
    <glyph glyph-name="uni1E6B" unicode="&#x1e6b;" horiz-adv-x="212" 
d="M93 -12q-57 0 -57 57q0 15 4 31l85 380h-52l6 27h52l29 132h30l-29 -132h70l-6 -27h-70l-85 -380q-4 -15 -4 -31q0 -30 31 -30q20 0 36 19l17 -20q-26 -26 -57 -26zM237 765q0 -13 -9.5 -22.5t-22.5 -9.5q-11 0 -18.5 7.5t-7.5 18.5q0 13 9.5 22.5t22.5 9.5
q11 0 18.5 -7.5t7.5 -18.5z" />
    <glyph glyph-name="Wgrave" unicode="&#x1e80;" horiz-adv-x="490" 
d="M312 0h-38l47 587l-213 -587h-38l47 667h35l-50 -604l219 604h34l-49 -604l218 604h35zM380 723h-24l-63 144h41z" />
    <glyph glyph-name="wgrave" unicode="&#x1e81;" horiz-adv-x="484" 
d="M310 0h-30l5 440l-189 -440h-30l7 483h32l-15 -436l186 436h36l-8 -436l179 436h34zM340 556h-24l-63 144h41z" />
    <glyph glyph-name="Wacute" unicode="&#x1e82;" horiz-adv-x="490" 
d="M312 0h-38l47 587l-213 -587h-38l47 667h35l-50 -604l219 604h34l-49 -604l218 604h35zM470 867l-127 -144h-26l110 144h43z" />
    <glyph glyph-name="wacute" unicode="&#x1e83;" horiz-adv-x="484" 
d="M310 0h-30l5 440l-189 -440h-30l7 483h32l-15 -436l186 436h36l-8 -436l179 436h34zM431 700l-127 -144h-26l110 144h43z" />
    <glyph glyph-name="Wdieresis" unicode="&#x1e84;" horiz-adv-x="490" 
d="M312 0h-38l47 587l-213 -587h-38l47 667h35l-50 -604l219 604h34l-49 -604l218 604h35zM448 768q0 -13 -9 -22t-22 -9q-11 0 -18 7.5t-7 17.5q0 13 9 22t22 9q11 0 18 -7.5t7 -17.5zM326 768q0 -13 -9 -22t-22 -9q-11 0 -18 7.5t-7 17.5q0 13 9 22t22 9q11 0 18 -7.5
t7 -17.5z" />
    <glyph glyph-name="wdieresis" unicode="&#x1e85;" horiz-adv-x="484" 
d="M310 0h-30l5 440l-189 -440h-30l7 483h32l-15 -436l186 436h36l-8 -436l179 436h34zM408 601q0 -13 -9 -22t-22 -9q-11 0 -18 7t-7 18q0 13 9 22t22 9q11 0 18 -7t7 -18zM286 601q0 -13 -9 -22t-22 -9q-11 0 -18 7t-7 18q0 13 9 22t22 9q11 0 18 -7t7 -18z" />
    <glyph glyph-name="uni1EA0" unicode="&#x1ea0;" horiz-adv-x="312" 
d="M246 0h-32l7 179h-158l-71 -179h-34l272 667h38zM223 209l17 411l-165 -411h148zM98 -141q0 -13 -9.5 -22.5t-22.5 -9.5q-11 0 -18.5 7.5t-7.5 18.5q0 13 9.5 22.5t22.5 9.5q11 0 18.5 -7.5t7.5 -18.5z" />
    <glyph glyph-name="uni1EA1" unicode="&#x1ea1;" horiz-adv-x="351" 
d="M212 495q26 0 48.5 -22.5t32.5 -65.5l16 76h30l-107 -483h-30l15 66q-43 -78 -100 -78q-42 0 -64.5 35.5t-22.5 97.5q0 46 11.5 107t33 122t58 103t79.5 42zM210 468q-34 0 -63.5 -40t-47 -97t-27.5 -114t-10 -98q0 -104 62 -104q27 0 56.5 29.5t47.5 70.5l56 251
q-3 42 -24.5 72t-49.5 30zM111 -141q0 -13 -9.5 -22.5t-22.5 -9.5q-11 0 -18.5 7.5t-7.5 18.5q0 13 9.5 22.5t22.5 9.5q11 0 18.5 -7.5t7.5 -18.5z" />
    <glyph glyph-name="uni1EA2" unicode="&#x1ea2;" horiz-adv-x="312" 
d="M246 0h-32l7 179h-158l-71 -179h-34l272 667h38zM223 209l17 411l-165 -411h148zM240 772l-19 9q19 39 54 39q43 0 43 -43q0 -44 -40 -80h-27q43 36 43 77q0 24 -21 24q-20 0 -33 -26z" />
    <glyph glyph-name="uni1EA3" unicode="&#x1ea3;" horiz-adv-x="351" 
d="M212 495q26 0 48.5 -22.5t32.5 -65.5l16 76h30l-107 -483h-30l15 66q-43 -78 -100 -78q-42 0 -64.5 35.5t-22.5 97.5q0 46 11.5 107t33 122t58 103t79.5 42zM210 468q-34 0 -63.5 -40t-47 -97t-27.5 -114t-10 -98q0 -104 62 -104q27 0 56.5 29.5t47.5 70.5l56 251
q-3 42 -24.5 72t-49.5 30zM215 602l-19 9q19 39 54 39q43 0 43 -43q0 -44 -40 -80h-27q43 36 43 77q0 24 -21 24q-20 0 -33 -26z" />
    <glyph glyph-name="uni1EA4" unicode="&#x1ea4;" horiz-adv-x="312" 
d="M333 682h-21l-41 87l-88 -87h-25l100 108h36zM246 0h-32l7 179h-158l-71 -179h-34l272 667h38zM223 209l17 411l-165 -411h148zM472 843l-127 -108h-26l110 108h43z" />
    <glyph glyph-name="uni1EA5" unicode="&#x1ea5;" horiz-adv-x="351" 
d="M212 495q26 0 48.5 -22.5t32.5 -65.5l16 76h30l-107 -483h-30l15 66q-43 -78 -100 -78q-42 0 -64.5 35.5t-22.5 97.5q0 46 11.5 107t33 122t58 103t79.5 42zM210 468q-34 0 -63.5 -40t-47 -97t-27.5 -114t-10 -98q0 -104 62 -104q27 0 56.5 29.5t47.5 70.5l56 251
q-3 42 -24.5 72t-49.5 30zM325 556h-21l-41 116l-88 -116h-25l100 144h36zM465 771l-127 -144h-26l110 144h43z" />
    <glyph glyph-name="uni1EA6" unicode="&#x1ea6;" horiz-adv-x="312" 
d="M333 682h-21l-41 87l-88 -87h-25l100 108h36zM246 0h-32l7 179h-158l-71 -179h-34l272 667h38zM223 209l17 411l-165 -411h148zM196 735h-24l-63 108h41z" />
    <glyph glyph-name="uni1EA7" unicode="&#x1ea7;" horiz-adv-x="351" 
d="M212 495q26 0 48.5 -22.5t32.5 -65.5l16 76h30l-107 -483h-30l15 66q-43 -78 -100 -78q-42 0 -64.5 35.5t-22.5 97.5q0 46 11.5 107t33 122t58 103t79.5 42zM210 468q-34 0 -63.5 -40t-47 -97t-27.5 -114t-10 -98q0 -104 62 -104q27 0 56.5 29.5t47.5 70.5l56 251
q-3 42 -24.5 72t-49.5 30zM324 556h-21l-41 116l-88 -116h-25l100 144h36zM190 627h-24l-63 144h41z" />
    <glyph glyph-name="uni1EA8" unicode="&#x1ea8;" horiz-adv-x="312" 
d="M333 682h-21l-41 87l-88 -87h-25l100 108h36zM246 0h-32l7 179h-158l-71 -179h-34l272 667h38zM223 209l17 411l-165 -411h148zM310 812l-19 7q18 29 54 29q43 0 43 -32q0 -33 -40 -60h-27q43 28 43 58q0 18 -21 18q-20 0 -33 -20z" />
    <glyph glyph-name="uni1EA9" unicode="&#x1ea9;" horiz-adv-x="351" 
d="M212 495q26 0 48.5 -22.5t32.5 -65.5l16 76h30l-107 -483h-30l15 66q-43 -78 -100 -78q-42 0 -64.5 35.5t-22.5 97.5q0 46 11.5 107t33 122t58 103t79.5 42zM210 468q-34 0 -63.5 -40t-47 -97t-27.5 -114t-10 -98q0 -104 62 -104q27 0 56.5 29.5t47.5 70.5l56 251
q-3 42 -24.5 72t-49.5 30zM325 556h-21l-41 116l-88 -116h-25l100 144h36zM298 742l-19 9q19 39 54 39q43 0 43 -43q0 -44 -40 -80h-27q43 36 43 77q0 24 -21 24q-20 0 -33 -26z" />
    <glyph glyph-name="uni1EAA" unicode="&#x1eaa;" horiz-adv-x="312" 
d="M326 677h-21l-41 58l-88 -58h-25l100 72h36zM246 0h-32l7 179h-158l-71 -179h-34l272 667h38zM223 209l17 411l-165 -411h148zM303 757q-21 0 -29.5 8.5t-7.5 19.5t-3.5 19.5t-18.5 8.5q-35 0 -58 -53h-23q30 67 88 67q21 0 29.5 -9t7.5 -19.5t3.5 -19.5t18.5 -9
q35 0 59 54h23q-30 -67 -89 -67z" />
    <glyph glyph-name="uni1EAB" unicode="&#x1eab;" horiz-adv-x="351" 
d="M212 495q26 0 48.5 -22.5t32.5 -65.5l16 76h30l-107 -483h-30l15 66q-43 -78 -100 -78q-42 0 -64.5 35.5t-22.5 97.5q0 46 11.5 107t33 122t58 103t79.5 42zM210 468q-34 0 -63.5 -40t-47 -97t-27.5 -114t-10 -98q0 -104 62 -104q27 0 56.5 29.5t47.5 70.5l56 251
q-3 42 -24.5 72t-49.5 30zM317 523h-21l-41 116l-88 -116h-25l100 144h36zM307 682q-21 0 -29.5 17.5t-7.5 39t-3.5 39t-18.5 17.5q-35 0 -58 -107h-23q14 63 34 98.5t54 35.5q21 0 29.5 -17.5t7.5 -39t3.5 -39t18.5 -17.5q35 0 59 107h23q-30 -134 -89 -134z" />
    <glyph glyph-name="uni1EAC" unicode="&#x1eac;" horiz-adv-x="312" 
d="M246 0h-32l7 179h-158l-71 -179h-34l272 667h38zM223 209l17 411l-165 -411h148zM101 -141q0 -13 -9.5 -22.5t-22.5 -9.5q-11 0 -18.5 7.5t-7.5 18.5q0 13 9.5 22.5t22.5 9.5q11 0 18.5 -7.5t7.5 -18.5zM348 723h-21l-41 116l-88 -116h-25l100 144h36z" />
    <glyph glyph-name="uni1EAD" unicode="&#x1ead;" horiz-adv-x="351" 
d="M212 495q26 0 48.5 -22.5t32.5 -65.5l16 76h30l-107 -483h-30l15 66q-43 -78 -100 -78q-42 0 -64.5 35.5t-22.5 97.5q0 46 11.5 107t33 122t58 103t79.5 42zM210 468q-34 0 -63.5 -40t-47 -97t-27.5 -114t-10 -98q0 -104 62 -104q27 0 56.5 29.5t47.5 70.5l56 251
q-3 42 -24.5 72t-49.5 30zM111 -141q0 -13 -9.5 -22.5t-22.5 -9.5q-11 0 -18.5 7.5t-7.5 18.5q0 13 9.5 22.5t22.5 9.5q11 0 18.5 -7.5t7.5 -18.5zM324 556h-21l-41 116l-88 -116h-25l100 144h36z" />
    <glyph glyph-name="uni1EAE" unicode="&#x1eae;" horiz-adv-x="312" 
d="M246 0h-32l7 179h-158l-71 -179h-34l272 667h38zM223 209l17 411l-165 -411h148zM375 742q-55 -58 -128 -58t-102 58l23 18q10 -22 33 -35.5t50 -13.5t56 13.5t47 35.5zM373 843l-127 -108h-26l110 108h43z" />
    <glyph glyph-name="uni1EAF" unicode="&#x1eaf;" horiz-adv-x="351" 
d="M212 495q26 0 48.5 -22.5t32.5 -65.5l16 76h30l-107 -483h-30l15 66q-43 -78 -100 -78q-42 0 -64.5 35.5t-22.5 97.5q0 46 11.5 107t33 122t58 103t79.5 42zM210 468q-34 0 -63.5 -40t-47 -97t-27.5 -114t-10 -98q0 -104 62 -104q27 0 56.5 29.5t47.5 70.5l56 251
q-3 42 -24.5 72t-49.5 30zM356 590q-55 -58 -128 -58t-102 58l23 18q10 -22 33 -35.5t50 -13.5t56 13.5t47 35.5zM354 756l-127 -144h-26l110 144h43z" />
    <glyph glyph-name="uni1EB0" unicode="&#x1eb0;" horiz-adv-x="312" 
d="M246 0h-32l7 179h-158l-71 -179h-34l272 667h38zM223 209l17 411l-165 -411h148zM375 742q-55 -58 -128 -58t-102 58l23 18q10 -22 33 -35.5t50 -13.5t56 13.5t47 35.5zM296 735h-24l-63 108h41z" />
    <glyph glyph-name="uni1EB1" unicode="&#x1eb1;" horiz-adv-x="351" 
d="M212 495q26 0 48.5 -22.5t32.5 -65.5l16 76h30l-107 -483h-30l15 66q-43 -78 -100 -78q-42 0 -64.5 35.5t-22.5 97.5q0 46 11.5 107t33 122t58 103t79.5 42zM210 468q-34 0 -63.5 -40t-47 -97t-27.5 -114t-10 -98q0 -104 62 -104q27 0 56.5 29.5t47.5 70.5l56 251
q-3 42 -24.5 72t-49.5 30zM356 590q-55 -58 -128 -58t-102 58l23 18q10 -22 33 -35.5t50 -13.5t56 13.5t47 35.5zM286 612h-24l-63 144h41z" />
    <glyph glyph-name="uni1EB2" unicode="&#x1eb2;" horiz-adv-x="312" 
d="M246 0h-32l7 179h-158l-71 -179h-34l272 667h38zM223 209l17 411l-165 -411h148zM375 742q-55 -58 -128 -58t-102 58l23 18q10 -22 33 -35.5t50 -13.5t56 13.5t47 35.5zM247 796l-19 7q18 29 54 29q43 0 43 -32q0 -33 -40 -60h-27q43 28 43 58q0 18 -21 18q-20 0 -33 -20
z" />
    <glyph glyph-name="uni1EB3" unicode="&#x1eb3;" horiz-adv-x="351" 
d="M212 495q26 0 48.5 -22.5t32.5 -65.5l16 76h30l-107 -483h-30l15 66q-43 -78 -100 -78q-42 0 -64.5 35.5t-22.5 97.5q0 46 11.5 107t33 122t58 103t79.5 42zM210 468q-34 0 -63.5 -40t-47 -97t-27.5 -114t-10 -98q0 -104 62 -104q27 0 56.5 29.5t47.5 70.5l56 251
q-3 42 -24.5 72t-49.5 30zM356 590q-55 -58 -128 -58t-102 58l23 18q10 -22 33 -35.5t50 -13.5t56 13.5t47 35.5zM236 682l-19 9q19 39 54 39q43 0 43 -43q0 -44 -40 -80h-27q43 36 43 77q0 24 -21 24q-20 0 -33 -26z" />
    <glyph glyph-name="uni1EB4" unicode="&#x1eb4;" horiz-adv-x="312" 
d="M373 729q-55 -44 -128 -44t-102 44l23 13q10 -16 33.5 -26.5t49.5 -10.5q61 0 103 37zM246 0h-32l7 179h-158l-71 -179h-34l272 667h38zM223 209l17 411l-165 -411h148zM303 757q-21 0 -29.5 8.5t-7.5 19.5t-3.5 19.5t-18.5 8.5q-35 0 -58 -53h-23q30 67 88 67
q21 0 29.5 -9t7.5 -19.5t3.5 -19.5t18.5 -9q35 0 59 54h23q-30 -67 -89 -67z" />
    <glyph glyph-name="uni1EB5" unicode="&#x1eb5;" horiz-adv-x="351" 
d="M212 495q26 0 48.5 -22.5t32.5 -65.5l16 76h30l-107 -483h-30l15 66q-43 -78 -100 -78q-42 0 -64.5 35.5t-22.5 97.5q0 46 11.5 107t33 122t58 103t79.5 42zM210 468q-34 0 -63.5 -40t-47 -97t-27.5 -114t-10 -98q0 -104 62 -104q27 0 56.5 29.5t47.5 70.5l56 251
q-3 42 -24.5 72t-49.5 30zM356 590q-55 -58 -128 -58t-102 58l23 18q10 -22 33 -35.5t50 -13.5t56 13.5t47 35.5zM295 632q-21 0 -29.5 17.5t-7.5 39t-3.5 39t-18.5 17.5q-35 0 -58 -107h-23q14 63 34 98.5t54 35.5q21 0 29.5 -17.5t7.5 -39t3.5 -39t18.5 -17.5q35 0 59 107
h23q-30 -134 -89 -134z" />
    <glyph glyph-name="uni1EB6" unicode="&#x1eb6;" horiz-adv-x="312" 
d="M246 0h-32l7 179h-158l-71 -179h-34l272 667h38zM223 209l17 411l-165 -411h148zM385 784q-55 -58 -128 -58t-102 58l23 18q10 -22 33 -35.5t50 -13.5t56 13.5t47 35.5zM101 -141q0 -13 -9.5 -22.5t-22.5 -9.5q-11 0 -18.5 7.5t-7.5 18.5q0 13 9.5 22.5t22.5 9.5
q11 0 18.5 -7.5t7.5 -18.5z" />
    <glyph glyph-name="uni1EB7" unicode="&#x1eb7;" horiz-adv-x="351" 
d="M212 495q26 0 48.5 -22.5t32.5 -65.5l16 76h30l-107 -483h-30l15 66q-43 -78 -100 -78q-42 0 -64.5 35.5t-22.5 97.5q0 46 11.5 107t33 122t58 103t79.5 42zM210 468q-34 0 -63.5 -40t-47 -97t-27.5 -114t-10 -98q0 -104 62 -104q27 0 56.5 29.5t47.5 70.5l56 251
q-3 42 -24.5 72t-49.5 30zM362 617q-55 -58 -128 -58t-102 58l23 18q10 -22 33 -35.5t50 -13.5t56 13.5t47 35.5zM111 -141q0 -13 -9.5 -22.5t-22.5 -9.5q-11 0 -18.5 7.5t-7.5 18.5q0 13 9.5 22.5t22.5 9.5q11 0 18.5 -7.5t7.5 -18.5z" />
    <glyph glyph-name="uni1EB8" unicode="&#x1eb8;" horiz-adv-x="330" 
d="M228 0h-210l147 667h210l-6 -30h-178l-62 -279h171l-7 -30h-171l-66 -298h178zM119 -141q0 -13 -9.5 -22.5t-22.5 -9.5q-11 0 -18.5 7.5t-7.5 18.5q0 13 9.5 22.5t22.5 9.5q11 0 18.5 -7.5t7.5 -18.5z" />
    <glyph glyph-name="uni1EB9" unicode="&#x1eb9;" horiz-adv-x="346" 
d="M149 -12q-55 0 -86.5 38t-31.5 114q0 36 9.5 89.5t29 116t59 106t90.5 43.5q101 0 101 -136q0 -62 -18 -127h-228q-10 -47 -10 -91q0 -59 21.5 -92.5t62.5 -33.5q47 0 89 64l23 -19q-52 -72 -111 -72zM79 259h197q12 57 12 96q0 49 -17.5 81t-53.5 32t-66 -36.5
t-46.5 -80.5t-25.5 -92zM125 -141q0 -13 -9.5 -22.5t-22.5 -9.5q-11 0 -18.5 7.5t-7.5 18.5q0 13 9.5 22.5t22.5 9.5q11 0 18.5 -7.5t7.5 -18.5z" />
    <glyph glyph-name="uni1EBA" unicode="&#x1eba;" horiz-adv-x="330" 
d="M228 0h-210l147 667h210l-6 -30h-178l-62 -279h171l-7 -30h-171l-66 -298h178zM261 772l-19 9q19 39 54 39q43 0 43 -43q0 -44 -40 -80h-27q43 36 43 77q0 24 -21 24q-20 0 -33 -26z" />
    <glyph glyph-name="uni1EBB" unicode="&#x1ebb;" horiz-adv-x="346" 
d="M149 -12q-55 0 -86.5 38t-31.5 114q0 36 9.5 89.5t29 116t59 106t90.5 43.5q101 0 101 -136q0 -62 -18 -127h-228q-10 -47 -10 -91q0 -59 21.5 -92.5t62.5 -33.5q47 0 89 64l23 -19q-52 -72 -111 -72zM79 259h197q12 57 12 96q0 49 -17.5 81t-53.5 32t-66 -36.5
t-46.5 -80.5t-25.5 -92zM228 602l-19 9q19 39 54 39q43 0 43 -43q0 -44 -40 -80h-27q43 36 43 77q0 24 -21 24q-20 0 -33 -26z" />
    <glyph glyph-name="uni1EBC" unicode="&#x1ebc;" horiz-adv-x="330" 
d="M228 0h-210l147 667h210l-6 -30h-178l-62 -279h171l-7 -30h-171l-66 -298h178zM323 721q-21 0 -29.5 17.5t-7.5 39t-3.5 39t-18.5 17.5q-35 0 -58 -107h-23q14 63 34 98.5t54 35.5q21 0 29.5 -17.5t7.5 -39t3.5 -39t18.5 -17.5q35 0 59 107h23q-30 -134 -89 -134z" />
    <glyph glyph-name="uni1EBD" unicode="&#x1ebd;" horiz-adv-x="346" 
d="M149 -12q-55 0 -86.5 38t-31.5 114q0 36 9.5 89.5t29 116t59 106t90.5 43.5q101 0 101 -136q0 -62 -18 -127h-228q-10 -47 -10 -91q0 -59 21.5 -92.5t62.5 -33.5q47 0 89 64l23 -19q-52 -72 -111 -72zM79 259h197q12 57 12 96q0 49 -17.5 81t-53.5 32t-66 -36.5
t-46.5 -80.5t-25.5 -92zM292 554q-21 0 -29.5 17.5t-7.5 39t-3.5 39t-18.5 17.5q-35 0 -58 -107h-23q14 63 34 98.5t54 35.5q21 0 29.5 -17.5t7.5 -39t3.5 -39t18.5 -17.5q35 0 59 107h23q-30 -134 -89 -134z" />
    <glyph glyph-name="uni1EBE" unicode="&#x1ebe;" horiz-adv-x="330" 
d="M228 0h-210l147 667h210l-6 -30h-178l-62 -279h171l-7 -30h-171l-66 -298h178zM355 682h-21l-41 87l-88 -87h-25l100 108h36zM494 843l-127 -108h-26l110 108h43z" />
    <glyph glyph-name="uni1EBF" unicode="&#x1ebf;" horiz-adv-x="346" 
d="M149 -12q-55 0 -86.5 38t-31.5 114q0 36 9.5 89.5t29 116t59 106t90.5 43.5q101 0 101 -136q0 -62 -18 -127h-228q-10 -47 -10 -91q0 -59 21.5 -92.5t62.5 -33.5q47 0 89 64l23 -19q-52 -72 -111 -72zM79 259h197q12 57 12 96q0 49 -17.5 81t-53.5 32t-66 -36.5
t-46.5 -80.5t-25.5 -92zM337 556h-21l-41 116l-88 -116h-25l100 144h36zM477 771l-127 -144h-26l110 144h43z" />
    <glyph glyph-name="uni1EC0" unicode="&#x1ec0;" horiz-adv-x="330" 
d="M228 0h-210l147 667h210l-6 -30h-178l-62 -279h171l-7 -30h-171l-66 -298h178zM218 735h-24l-63 108h41zM355 682h-21l-41 87l-88 -87h-25l100 108h36z" />
    <glyph glyph-name="uni1EC1" unicode="&#x1ec1;" horiz-adv-x="346" 
d="M149 -12q-55 0 -86.5 38t-31.5 114q0 36 9.5 89.5t29 116t59 106t90.5 43.5q101 0 101 -136q0 -62 -18 -127h-228q-10 -47 -10 -91q0 -59 21.5 -92.5t62.5 -33.5q47 0 89 64l23 -19q-52 -72 -111 -72zM79 259h197q12 57 12 96q0 49 -17.5 81t-53.5 32t-66 -36.5
t-46.5 -80.5t-25.5 -92zM204 627h-24l-63 144h41zM338 556h-21l-41 116l-88 -116h-25l100 144h36z" />
    <glyph glyph-name="uni1EC2" unicode="&#x1ec2;" horiz-adv-x="330" 
d="M228 0h-210l147 667h210l-6 -30h-178l-62 -279h171l-7 -30h-171l-66 -298h178zM354 682h-21l-41 87l-88 -87h-25l100 108h36zM331 812l-19 7q18 29 54 29q43 0 43 -32q0 -33 -40 -60h-27q43 28 43 58q0 18 -21 18q-20 0 -33 -20z" />
    <glyph glyph-name="uni1EC3" unicode="&#x1ec3;" horiz-adv-x="346" 
d="M149 -12q-55 0 -86.5 38t-31.5 114q0 36 9.5 89.5t29 116t59 106t90.5 43.5q101 0 101 -136q0 -62 -18 -127h-228q-10 -47 -10 -91q0 -59 21.5 -92.5t62.5 -33.5q47 0 89 64l23 -19q-52 -72 -111 -72zM79 259h197q12 57 12 96q0 49 -17.5 81t-53.5 32t-66 -36.5
t-46.5 -80.5t-25.5 -92zM311 742l-19 9q19 39 54 39q43 0 43 -43q0 -44 -40 -80h-27q43 36 43 77q0 24 -21 24q-20 0 -33 -26zM338 556h-21l-41 116l-88 -116h-25l100 144h36z" />
    <glyph glyph-name="uni1EC4" unicode="&#x1ec4;" horiz-adv-x="330" 
d="M228 0h-210l147 667h210l-6 -30h-178l-62 -279h171l-7 -30h-171l-66 -298h178zM347 678h-21l-41 58l-88 -58h-25l100 72h36zM323 757q-21 0 -29.5 8.5t-7.5 19.5t-3.5 19.5t-18.5 8.5q-35 0 -58 -53h-23q30 67 88 67q21 0 29.5 -9t7.5 -19.5t3.5 -19.5t18.5 -9
q35 0 59 54h23q-30 -67 -89 -67z" />
    <glyph glyph-name="uni1EC5" unicode="&#x1ec5;" horiz-adv-x="346" 
d="M149 -12q-55 0 -86.5 38t-31.5 114q0 36 9.5 89.5t29 116t59 106t90.5 43.5q101 0 101 -136q0 -62 -18 -127h-228q-10 -47 -10 -91q0 -59 21.5 -92.5t62.5 -33.5q47 0 89 64l23 -19q-52 -72 -111 -72zM79 259h197q12 57 12 96q0 49 -17.5 81t-53.5 32t-66 -36.5
t-46.5 -80.5t-25.5 -92zM330 523h-21l-41 116l-88 -116h-25l100 144h36zM320 682q-21 0 -29.5 17.5t-7.5 39t-3.5 39t-18.5 17.5q-35 0 -58 -107h-23q14 63 34 98.5t54 35.5q21 0 29.5 -17.5t7.5 -39t3.5 -39t18.5 -17.5q35 0 59 107h23q-30 -134 -89 -134z" />
    <glyph glyph-name="uni1EC6" unicode="&#x1ec6;" horiz-adv-x="330" 
d="M228 0h-210l147 667h210l-6 -30h-178l-62 -279h171l-7 -30h-171l-66 -298h178zM119 -141q0 -13 -9.5 -22.5t-22.5 -9.5q-11 0 -18.5 7.5t-7.5 18.5q0 13 9.5 22.5t22.5 9.5q11 0 18.5 -7.5t7.5 -18.5zM370 723h-21l-41 116l-88 -116h-25l100 144h36z" />
    <glyph glyph-name="uni1EC7" unicode="&#x1ec7;" horiz-adv-x="346" 
d="M149 -12q-55 0 -86.5 38t-31.5 114q0 36 9.5 89.5t29 116t59 106t90.5 43.5q101 0 101 -136q0 -62 -18 -127h-228q-10 -47 -10 -91q0 -59 21.5 -92.5t62.5 -33.5q47 0 89 64l23 -19q-52 -72 -111 -72zM79 259h197q12 57 12 96q0 49 -17.5 81t-53.5 32t-66 -36.5
t-46.5 -80.5t-25.5 -92zM125 -141q0 -13 -9.5 -22.5t-22.5 -9.5q-11 0 -18.5 7.5t-7.5 18.5q0 13 9.5 22.5t22.5 9.5q11 0 18.5 -7.5t7.5 -18.5zM337 556h-21l-41 116l-88 -116h-25l100 144h36z" />
    <glyph glyph-name="uni1EC8" unicode="&#x1ec8;" horiz-adv-x="176" 
d="M50 0h-32l147 667h32zM173 772l-19 9q19 39 54 39q43 0 43 -43q0 -44 -40 -80h-27q43 36 43 77q0 24 -21 24q-20 0 -33 -26z" />
    <glyph glyph-name="uni1EC9" unicode="&#x1ec9;" horiz-adv-x="160" 
d="M41 0h-30l107 483h30zM127 602l-19 9q19 39 54 39q43 0 43 -43q0 -44 -40 -80h-27q43 36 43 77q0 24 -21 24q-20 0 -33 -26z" />
    <glyph glyph-name="uni1ECA" unicode="&#x1eca;" horiz-adv-x="176" 
d="M50 0h-32l147 667h32zM32 -141q0 -13 -9.5 -22.5t-22.5 -9.5q-11 0 -18.5 7.5t-7.5 18.5q0 13 9.5 22.5t22.5 9.5q11 0 18.5 -7.5t7.5 -18.5z" />
    <glyph glyph-name="uni1ECB" unicode="&#x1ecb;" horiz-adv-x="160" 
d="M154 566q-11 0 -19 7.5t-8 18.5q0 14 10.5 23t22.5 9q11 0 19 -7.5t8 -18.5q0 -14 -10.5 -23t-22.5 -9zM41 0h-30l107 483h30zM23 -141q0 -13 -9.5 -22.5t-22.5 -9.5q-11 0 -18.5 7.5t-7.5 18.5q0 13 9.5 22.5t22.5 9.5q11 0 18.5 -7.5t7.5 -18.5z" />
    <glyph glyph-name="uni1ECC" unicode="&#x1ecc;" horiz-adv-x="396" 
d="M151 -12q-104 0 -104 170q0 56 14 138.5t40.5 170.5t74.5 149.5t106 61.5q55 0 80 -48t25 -123q0 -56 -14 -138t-41 -170t-75 -149.5t-106 -61.5zM155 18q44 0 83 56t62.5 136.5t37.5 161.5t14 138q0 138 -75 138q-44 0 -82.5 -56.5t-62 -137.5t-37 -161.5t-13.5 -138.5
q0 -136 73 -136zM141 -141q0 -13 -9.5 -22.5t-22.5 -9.5q-11 0 -18.5 7.5t-7.5 18.5q0 13 9.5 22.5t22.5 9.5q11 0 18.5 -7.5t7.5 -18.5z" />
    <glyph glyph-name="uni1ECD" unicode="&#x1ecd;" horiz-adv-x="352" 
d="M130 -12q-99 0 -99 140q0 54 12 115.5t34.5 118.5t60.5 95t83 38q99 0 99 -140q0 -54 -12 -115.5t-34.5 -118.5t-60.5 -95t-83 -38zM132 15q45 0 83 63t55.5 139.5t17.5 136.5q0 114 -69 114q-45 0 -83 -63.5t-55.5 -140t-17.5 -136.5q0 -113 69 -113zM119 -141
q0 -13 -9.5 -22.5t-22.5 -9.5q-11 0 -18.5 7.5t-7.5 18.5q0 13 9.5 22.5t22.5 9.5q11 0 18.5 -7.5t7.5 -18.5z" />
    <glyph glyph-name="uni1ECE" unicode="&#x1ece;" horiz-adv-x="396" 
d="M151 -12q-104 0 -104 170q0 56 14 138.5t40.5 170.5t74.5 149.5t106 61.5q55 0 80 -48t25 -123q0 -56 -14 -138t-41 -170t-75 -149.5t-106 -61.5zM155 18q44 0 83 56t62.5 136.5t37.5 161.5t14 138q0 138 -75 138q-44 0 -82.5 -56.5t-62 -137.5t-37 -161.5t-13.5 -138.5
q0 -136 73 -136zM282 772l-19 9q19 39 54 39q43 0 43 -43q0 -44 -40 -80h-27q43 36 43 77q0 24 -21 24q-20 0 -33 -26z" />
    <glyph glyph-name="uni1ECF" unicode="&#x1ecf;" horiz-adv-x="352" 
d="M130 -12q-99 0 -99 140q0 54 12 115.5t34.5 118.5t60.5 95t83 38q99 0 99 -140q0 -54 -12 -115.5t-34.5 -118.5t-60.5 -95t-83 -38zM132 15q45 0 83 63t55.5 139.5t17.5 136.5q0 114 -69 114q-45 0 -83 -63.5t-55.5 -140t-17.5 -136.5q0 -113 69 -113zM223 602l-19 9
q19 39 54 39q43 0 43 -43q0 -44 -40 -80h-27q43 36 43 77q0 24 -21 24q-20 0 -33 -26z" />
    <glyph glyph-name="uni1ED0" unicode="&#x1ed0;" horiz-adv-x="396" 
d="M151 -12q-104 0 -104 170q0 56 14 138.5t40.5 170.5t74.5 149.5t106 61.5q55 0 80 -48t25 -123q0 -56 -14 -138t-41 -170t-75 -149.5t-106 -61.5zM155 18q44 0 83 56t62.5 136.5t37.5 161.5t14 138q0 138 -75 138q-44 0 -82.5 -56.5t-62 -137.5t-37 -161.5t-13.5 -138.5
q0 -136 73 -136zM378 682h-21l-41 87l-88 -87h-25l100 108h36zM517 843l-127 -108h-26l110 108h43z" />
    <glyph glyph-name="uni1ED1" unicode="&#x1ed1;" horiz-adv-x="352" 
d="M130 -12q-99 0 -99 140q0 54 12 115.5t34.5 118.5t60.5 95t83 38q99 0 99 -140q0 -54 -12 -115.5t-34.5 -118.5t-60.5 -95t-83 -38zM132 15q45 0 83 63t55.5 139.5t17.5 136.5q0 114 -69 114q-45 0 -83 -63.5t-55.5 -140t-17.5 -136.5q0 -113 69 -113zM331 556h-21
l-41 116l-88 -116h-25l100 144h36zM471 771l-127 -144h-26l110 144h43z" />
    <glyph glyph-name="uni1ED2" unicode="&#x1ed2;" horiz-adv-x="396" 
d="M151 -12q-104 0 -104 170q0 56 14 138.5t40.5 170.5t74.5 149.5t106 61.5q55 0 80 -48t25 -123q0 -56 -14 -138t-41 -170t-75 -149.5t-106 -61.5zM155 18q44 0 83 56t62.5 136.5t37.5 161.5t14 138q0 138 -75 138q-44 0 -82.5 -56.5t-62 -137.5t-37 -161.5t-13.5 -138.5
q0 -136 73 -136zM239 735h-24l-63 108h41zM376 682h-21l-41 87l-88 -87h-25l100 108h36z" />
    <glyph glyph-name="uni1ED3" unicode="&#x1ed3;" horiz-adv-x="352" 
d="M130 -12q-99 0 -99 140q0 54 12 115.5t34.5 118.5t60.5 95t83 38q99 0 99 -140q0 -54 -12 -115.5t-34.5 -118.5t-60.5 -95t-83 -38zM132 15q45 0 83 63t55.5 139.5t17.5 136.5q0 114 -69 114q-45 0 -83 -63.5t-55.5 -140t-17.5 -136.5q0 -113 69 -113zM197 627h-24
l-63 144h41zM331 556h-21l-41 116l-88 -116h-25l100 144h36z" />
    <glyph glyph-name="uni1ED4" unicode="&#x1ed4;" horiz-adv-x="396" 
d="M151 -12q-104 0 -104 170q0 56 14 138.5t40.5 170.5t74.5 149.5t106 61.5q55 0 80 -48t25 -123q0 -56 -14 -138t-41 -170t-75 -149.5t-106 -61.5zM155 18q44 0 83 56t62.5 136.5t37.5 161.5t14 138q0 138 -75 138q-44 0 -82.5 -56.5t-62 -137.5t-37 -161.5t-13.5 -138.5
q0 -136 73 -136zM376 682h-21l-41 87l-88 -87h-25l100 108h36zM353 812l-19 7q18 29 54 29q43 0 43 -32q0 -33 -40 -60h-27q43 28 43 58q0 18 -21 18q-20 0 -33 -20z" />
    <glyph glyph-name="uni1ED5" unicode="&#x1ed5;" horiz-adv-x="352" 
d="M130 -12q-99 0 -99 140q0 54 12 115.5t34.5 118.5t60.5 95t83 38q99 0 99 -140q0 -54 -12 -115.5t-34.5 -118.5t-60.5 -95t-83 -38zM132 15q45 0 83 63t55.5 139.5t17.5 136.5q0 114 -69 114q-45 0 -83 -63.5t-55.5 -140t-17.5 -136.5q0 -113 69 -113zM331 556h-21
l-41 116l-88 -116h-25l100 144h36zM304 742l-19 9q19 39 54 39q43 0 43 -43q0 -44 -40 -80h-27q43 36 43 77q0 24 -21 24q-20 0 -33 -26z" />
    <glyph glyph-name="uni1ED6" unicode="&#x1ed6;" horiz-adv-x="396" 
d="M151 -12q-104 0 -104 170q0 56 14 138.5t40.5 170.5t74.5 149.5t106 61.5q55 0 80 -48t25 -123q0 -56 -14 -138t-41 -170t-75 -149.5t-106 -61.5zM155 18q44 0 83 56t62.5 136.5t37.5 161.5t14 138q0 138 -75 138q-44 0 -82.5 -56.5t-62 -137.5t-37 -161.5t-13.5 -138.5
q0 -136 73 -136zM371 678h-21l-41 58l-88 -58h-25l100 72h36zM344 757q-21 0 -29.5 8.5t-7.5 19.5t-3.5 19.5t-18.5 8.5q-35 0 -58 -53h-23q30 67 88 67q21 0 29.5 -9t7.5 -19.5t3.5 -19.5t18.5 -9q35 0 59 54h23q-30 -67 -89 -67z" />
    <glyph glyph-name="uni1ED7" unicode="&#x1ed7;" horiz-adv-x="352" 
d="M130 -12q-99 0 -99 140q0 54 12 115.5t34.5 118.5t60.5 95t83 38q99 0 99 -140q0 -54 -12 -115.5t-34.5 -118.5t-60.5 -95t-83 -38zM132 15q45 0 83 63t55.5 139.5t17.5 136.5q0 114 -69 114q-45 0 -83 -63.5t-55.5 -140t-17.5 -136.5q0 -113 69 -113zM324 523h-21
l-41 116l-88 -116h-25l100 144h36zM314 682q-21 0 -29.5 17.5t-7.5 39t-3.5 39t-18.5 17.5q-35 0 -58 -107h-23q14 63 34 98.5t54 35.5q21 0 29.5 -17.5t7.5 -39t3.5 -39t18.5 -17.5q35 0 59 107h23q-30 -134 -89 -134z" />
    <glyph glyph-name="uni1ED8" unicode="&#x1ed8;" horiz-adv-x="396" 
d="M151 -12q-104 0 -104 170q0 56 14 138.5t40.5 170.5t74.5 149.5t106 61.5q55 0 80 -48t25 -123q0 -56 -14 -138t-41 -170t-75 -149.5t-106 -61.5zM155 18q44 0 83 56t62.5 136.5t37.5 161.5t14 138q0 138 -75 138q-44 0 -82.5 -56.5t-62 -137.5t-37 -161.5t-13.5 -138.5
q0 -136 73 -136zM141 -141q0 -13 -9.5 -22.5t-22.5 -9.5q-11 0 -18.5 7.5t-7.5 18.5q0 13 9.5 22.5t22.5 9.5q11 0 18.5 -7.5t7.5 -18.5zM392 723h-21l-41 116l-88 -116h-25l100 144h36z" />
    <glyph glyph-name="uni1ED9" unicode="&#x1ed9;" horiz-adv-x="352" 
d="M130 -12q-99 0 -99 140q0 54 12 115.5t34.5 118.5t60.5 95t83 38q99 0 99 -140q0 -54 -12 -115.5t-34.5 -118.5t-60.5 -95t-83 -38zM132 15q45 0 83 63t55.5 139.5t17.5 136.5q0 114 -69 114q-45 0 -83 -63.5t-55.5 -140t-17.5 -136.5q0 -113 69 -113zM120 -141
q0 -13 -9.5 -22.5t-22.5 -9.5q-11 0 -18.5 7.5t-7.5 18.5q0 13 9.5 22.5t22.5 9.5q11 0 18.5 -7.5t7.5 -18.5zM333 556h-21l-41 116l-88 -116h-25l100 144h36z" />
    <glyph glyph-name="uni1EDA" unicode="&#x1eda;" horiz-adv-x="396" 
d="M151 -12q-104 0 -104 170q0 56 14 138.5t40.5 170.5t74.5 149.5t106 61.5q77 0 98 -101q47 33 57 75h-6q-10 0 -18 8.5t-8 19.5q0 15 10.5 25.5t24.5 10.5q32 0 32 -38q0 -36 -26.5 -73t-60.5 -56q2 -28 2 -42q0 -56 -14 -138t-41 -170t-75 -149.5t-106 -61.5zM155 18
q44 0 83 56t62.5 136.5t37.5 161.5t14 138q0 138 -75 138q-44 0 -82.5 -56.5t-62 -137.5t-37 -161.5t-13.5 -138.5q0 -136 73 -136zM425 867l-127 -144h-26l110 144h43z" />
    <glyph glyph-name="uni1EDB" unicode="&#x1edb;" horiz-adv-x="352" 
d="M392 544q0 -34 -23.5 -68.5t-56.5 -55.5q8 -29 8 -65q0 -54 -12 -115.5t-34.5 -118.5t-60.5 -95t-83 -38q-99 0 -99 140q0 54 12 115.5t34.5 118.5t60.5 95t83 38q57 0 82 -50q44 31 54 73h-6q-10 0 -18 8.5t-8 19.5q0 15 10.5 25.5t24.5 10.5q32 0 32 -38zM132 15
q45 0 83 63t55.5 139.5t17.5 136.5q0 114 -69 114q-45 0 -83 -63.5t-55.5 -140t-17.5 -136.5q0 -113 69 -113zM365 700l-127 -144h-26l110 144h43z" />
    <glyph glyph-name="uni1EDC" unicode="&#x1edc;" horiz-adv-x="396" 
d="M151 -12q-104 0 -104 170q0 56 14 138.5t40.5 170.5t74.5 149.5t106 61.5q77 0 98 -101q47 33 57 75h-6q-10 0 -18 8.5t-8 19.5q0 15 10.5 25.5t24.5 10.5q32 0 32 -38q0 -36 -26.5 -73t-60.5 -56q2 -28 2 -42q0 -56 -14 -138t-41 -170t-75 -149.5t-106 -61.5zM155 18
q44 0 83 56t62.5 136.5t37.5 161.5t14 138q0 138 -75 138q-44 0 -82.5 -56.5t-62 -137.5t-37 -161.5t-13.5 -138.5q0 -136 73 -136zM333 723h-24l-63 144h41z" />
    <glyph glyph-name="uni1EDD" unicode="&#x1edd;" horiz-adv-x="352" 
d="M392 544q0 -34 -23.5 -68.5t-56.5 -55.5q8 -29 8 -65q0 -54 -12 -115.5t-34.5 -118.5t-60.5 -95t-83 -38q-99 0 -99 140q0 54 12 115.5t34.5 118.5t60.5 95t83 38q57 0 82 -50q44 31 54 73h-6q-10 0 -18 8.5t-8 19.5q0 15 10.5 25.5t24.5 10.5q32 0 32 -38zM132 15
q45 0 83 63t55.5 139.5t17.5 136.5q0 114 -69 114q-45 0 -83 -63.5t-55.5 -140t-17.5 -136.5q0 -113 69 -113zM276 556h-24l-63 144h41z" />
    <glyph glyph-name="uni1EDE" unicode="&#x1ede;" horiz-adv-x="396" 
d="M151 -12q-104 0 -104 170q0 56 14 138.5t40.5 170.5t74.5 149.5t106 61.5q77 0 98 -101q47 33 57 75h-6q-10 0 -18 8.5t-8 19.5q0 15 10.5 25.5t24.5 10.5q32 0 32 -38q0 -36 -26.5 -73t-60.5 -56q2 -28 2 -42q0 -56 -14 -138t-41 -170t-75 -149.5t-106 -61.5zM155 18
q44 0 83 56t62.5 136.5t37.5 161.5t14 138q0 138 -75 138q-44 0 -82.5 -56.5t-62 -137.5t-37 -161.5t-13.5 -138.5q0 -136 73 -136zM282 772l-19 9q19 39 54 39q43 0 43 -43q0 -44 -40 -80h-27q43 36 43 77q0 24 -21 24q-20 0 -33 -26z" />
    <glyph glyph-name="uni1EDF" unicode="&#x1edf;" horiz-adv-x="352" 
d="M392 544q0 -34 -23.5 -68.5t-56.5 -55.5q8 -29 8 -65q0 -54 -12 -115.5t-34.5 -118.5t-60.5 -95t-83 -38q-99 0 -99 140q0 54 12 115.5t34.5 118.5t60.5 95t83 38q57 0 82 -50q44 31 54 73h-6q-10 0 -18 8.5t-8 19.5q0 15 10.5 25.5t24.5 10.5q32 0 32 -38zM132 15
q45 0 83 63t55.5 139.5t17.5 136.5q0 114 -69 114q-45 0 -83 -63.5t-55.5 -140t-17.5 -136.5q0 -113 69 -113zM223 602l-19 9q19 39 54 39q43 0 43 -43q0 -44 -40 -80h-27q43 36 43 77q0 24 -21 24q-20 0 -33 -26z" />
    <glyph glyph-name="uni1EE0" unicode="&#x1ee0;" horiz-adv-x="396" 
d="M151 -12q-104 0 -104 170q0 56 14 138.5t40.5 170.5t74.5 149.5t106 61.5q77 0 98 -101q47 33 57 75h-6q-10 0 -18 8.5t-8 19.5q0 15 10.5 25.5t24.5 10.5q32 0 32 -38q0 -36 -26.5 -73t-60.5 -56q2 -28 2 -42q0 -56 -14 -138t-41 -170t-75 -149.5t-106 -61.5zM155 18
q44 0 83 56t62.5 136.5t37.5 161.5t14 138q0 138 -75 138q-44 0 -82.5 -56.5t-62 -137.5t-37 -161.5t-13.5 -138.5q0 -136 73 -136zM345 721q-21 0 -29.5 17.5t-7.5 39t-3.5 39t-18.5 17.5q-35 0 -58 -107h-23q14 63 34 98.5t54 35.5q21 0 29.5 -17.5t7.5 -39t3.5 -39
t18.5 -17.5q35 0 59 107h23q-30 -134 -89 -134z" />
    <glyph glyph-name="uni1EE1" unicode="&#x1ee1;" horiz-adv-x="352" 
d="M392 544q0 -34 -23.5 -68.5t-56.5 -55.5q8 -29 8 -65q0 -54 -12 -115.5t-34.5 -118.5t-60.5 -95t-83 -38q-99 0 -99 140q0 54 12 115.5t34.5 118.5t60.5 95t83 38q57 0 82 -50q44 31 54 73h-6q-10 0 -18 8.5t-8 19.5q0 15 10.5 25.5t24.5 10.5q32 0 32 -38zM132 15
q45 0 83 63t55.5 139.5t17.5 136.5q0 114 -69 114q-45 0 -83 -63.5t-55.5 -140t-17.5 -136.5q0 -113 69 -113zM276 554q-21 0 -29.5 17.5t-7.5 39t-3.5 39t-18.5 17.5q-35 0 -58 -107h-23q14 63 34 98.5t54 35.5q21 0 29.5 -17.5t7.5 -39t3.5 -39t18.5 -17.5q35 0 59 107h23
q-30 -134 -89 -134z" />
    <glyph glyph-name="uni1EE2" unicode="&#x1ee2;" horiz-adv-x="396" 
d="M151 -12q-104 0 -104 170q0 56 14 138.5t40.5 170.5t74.5 149.5t106 61.5q77 0 98 -101q47 33 57 75h-6q-10 0 -18 8.5t-8 19.5q0 15 10.5 25.5t24.5 10.5q32 0 32 -38q0 -36 -26.5 -73t-60.5 -56q2 -28 2 -42q0 -56 -14 -138t-41 -170t-75 -149.5t-106 -61.5zM155 18
q44 0 83 56t62.5 136.5t37.5 161.5t14 138q0 138 -75 138q-44 0 -82.5 -56.5t-62 -137.5t-37 -161.5t-13.5 -138.5q0 -136 73 -136zM141 -141q0 -13 -9.5 -22.5t-22.5 -9.5q-11 0 -18.5 7.5t-7.5 18.5q0 13 9.5 22.5t22.5 9.5q11 0 18.5 -7.5t7.5 -18.5z" />
    <glyph glyph-name="uni1EE3" unicode="&#x1ee3;" horiz-adv-x="352" 
d="M392 544q0 -34 -23.5 -68.5t-56.5 -55.5q8 -29 8 -65q0 -54 -12 -115.5t-34.5 -118.5t-60.5 -95t-83 -38q-99 0 -99 140q0 54 12 115.5t34.5 118.5t60.5 95t83 38q57 0 82 -50q44 31 54 73h-6q-10 0 -18 8.5t-8 19.5q0 15 10.5 25.5t24.5 10.5q32 0 32 -38zM132 15
q45 0 83 63t55.5 139.5t17.5 136.5q0 114 -69 114q-45 0 -83 -63.5t-55.5 -140t-17.5 -136.5q0 -113 69 -113zM119 -141q0 -13 -9.5 -22.5t-22.5 -9.5q-11 0 -18.5 7.5t-7.5 18.5q0 13 9.5 22.5t22.5 9.5q11 0 18.5 -7.5t7.5 -18.5z" />
    <glyph glyph-name="uni1EE4" unicode="&#x1ee4;" horiz-adv-x="396" 
d="M158 -12q-51 0 -81 30.5t-30 87.5q0 26 5 48l113 513h32l-113 -513q-5 -20 -5 -42q0 -46 22.5 -70t59.5 -24q43 0 69 31t42 105l113 513h32l-113 -513q-20 -88 -53.5 -127t-92.5 -39zM141 -141q0 -13 -9.5 -22.5t-22.5 -9.5q-11 0 -18.5 7.5t-7.5 18.5q0 13 9.5 22.5
t22.5 9.5q11 0 18.5 -7.5t7.5 -18.5z" />
    <glyph glyph-name="uni1EE5" unicode="&#x1ee5;" 
d="M118 483h30l-87 -394q-4 -18 -4 -29q0 -45 44 -45q30 0 60.5 26t54.5 65l84 377h30l-107 -483h-30l15 68q-56 -80 -113 -80q-33 0 -51 17t-18 50q0 17 5 34zM115 -141q0 -13 -9.5 -22.5t-22.5 -9.5q-11 0 -18.5 7.5t-7.5 18.5q0 13 9.5 22.5t22.5 9.5q11 0 18.5 -7.5
t7.5 -18.5z" />
    <glyph glyph-name="uni1EE6" unicode="&#x1ee6;" horiz-adv-x="396" 
d="M158 -12q-51 0 -81 30.5t-30 87.5q0 26 5 48l113 513h32l-113 -513q-5 -20 -5 -42q0 -46 22.5 -70t59.5 -24q43 0 69 31t42 105l113 513h32l-113 -513q-20 -88 -53.5 -127t-92.5 -39zM282 772l-19 9q19 39 54 39q43 0 43 -43q0 -44 -40 -80h-27q43 36 43 77q0 24 -21 24
q-20 0 -33 -26z" />
    <glyph glyph-name="uni1EE7" unicode="&#x1ee7;" 
d="M118 483h30l-87 -394q-4 -18 -4 -29q0 -45 44 -45q30 0 60.5 26t54.5 65l84 377h30l-107 -483h-30l15 68q-56 -80 -113 -80q-33 0 -51 17t-18 50q0 17 5 34zM219 602l-19 9q19 39 54 39q43 0 43 -43q0 -44 -40 -80h-27q43 36 43 77q0 24 -21 24q-20 0 -33 -26z" />
    <glyph glyph-name="uni1EE8" unicode="&#x1ee8;" horiz-adv-x="396" 
d="M504 745q0 -38 -30.5 -77.5t-69.5 -58.5l-100 -455q-20 -88 -53.5 -127t-92.5 -39q-51 0 -81 30.5t-30 87.5q0 26 5 48l113 513h32l-113 -513q-5 -20 -5 -42q0 -46 22.5 -70t59.5 -24q43 0 69 31t42 105l113 513h32l-5 -23q47 33 57 75h-6q-10 0 -18 8.5t-8 19.5
q0 15 10.5 25.5t24.5 10.5q32 0 32 -38zM425 867l-127 -144h-26l110 144h43z" />
    <glyph glyph-name="uni1EE9" unicode="&#x1ee9;" 
d="M414 544q0 -38 -31 -78t-70 -59l-90 -407h-30l15 68q-56 -80 -113 -80q-33 0 -51 17t-18 50q0 17 5 34l87 394h30l-87 -394q-4 -18 -4 -29q0 -45 44 -45q30 0 60.5 26t54.5 65l84 377h30l-9 -41q48 34 58 76h-6q-10 0 -18 8.5t-8 19.5q0 15 10.5 25.5t24.5 10.5
q32 0 32 -38zM361 700l-127 -144h-26l110 144h43z" />
    <glyph glyph-name="uni1EEA" unicode="&#x1eea;" horiz-adv-x="396" 
d="M504 745q0 -38 -30.5 -77.5t-69.5 -58.5l-100 -455q-20 -88 -53.5 -127t-92.5 -39q-51 0 -81 30.5t-30 87.5q0 26 5 48l113 513h32l-113 -513q-5 -20 -5 -42q0 -46 22.5 -70t59.5 -24q43 0 69 31t42 105l113 513h32l-5 -23q47 33 57 75h-6q-10 0 -18 8.5t-8 19.5
q0 15 10.5 25.5t24.5 10.5q32 0 32 -38zM333 723h-24l-63 144h41z" />
    <glyph glyph-name="uni1EEB" unicode="&#x1eeb;" 
d="M414 544q0 -38 -31 -78t-70 -59l-90 -407h-30l15 68q-56 -80 -113 -80q-33 0 -51 17t-18 50q0 17 5 34l87 394h30l-87 -394q-4 -18 -4 -29q0 -45 44 -45q30 0 60.5 26t54.5 65l84 377h30l-9 -41q48 34 58 76h-6q-10 0 -18 8.5t-8 19.5q0 15 10.5 25.5t24.5 10.5
q32 0 32 -38zM272 556h-24l-63 144h41z" />
    <glyph glyph-name="uni1EEC" unicode="&#x1eec;" horiz-adv-x="396" 
d="M504 745q0 -38 -30.5 -77.5t-69.5 -58.5l-100 -455q-20 -88 -53.5 -127t-92.5 -39q-51 0 -81 30.5t-30 87.5q0 26 5 48l113 513h32l-113 -513q-5 -20 -5 -42q0 -46 22.5 -70t59.5 -24q43 0 69 31t42 105l113 513h32l-5 -23q47 33 57 75h-6q-10 0 -18 8.5t-8 19.5
q0 15 10.5 25.5t24.5 10.5q32 0 32 -38zM282 772l-19 9q19 39 54 39q43 0 43 -43q0 -44 -40 -80h-27q43 36 43 77q0 24 -21 24q-20 0 -33 -26z" />
    <glyph glyph-name="uni1EED" unicode="&#x1eed;" 
d="M414 544q0 -38 -31 -78t-70 -59l-90 -407h-30l15 68q-56 -80 -113 -80q-33 0 -51 17t-18 50q0 17 5 34l87 394h30l-87 -394q-4 -18 -4 -29q0 -45 44 -45q30 0 60.5 26t54.5 65l84 377h30l-9 -41q48 34 58 76h-6q-10 0 -18 8.5t-8 19.5q0 15 10.5 25.5t24.5 10.5
q32 0 32 -38zM219 602l-19 9q19 39 54 39q43 0 43 -43q0 -44 -40 -80h-27q43 36 43 77q0 24 -21 24q-20 0 -33 -26z" />
    <glyph glyph-name="uni1EEE" unicode="&#x1eee;" horiz-adv-x="396" 
d="M504 745q0 -38 -30.5 -77.5t-69.5 -58.5l-100 -455q-20 -88 -53.5 -127t-92.5 -39q-51 0 -81 30.5t-30 87.5q0 26 5 48l113 513h32l-113 -513q-5 -20 -5 -42q0 -46 22.5 -70t59.5 -24q43 0 69 31t42 105l113 513h32l-5 -23q47 33 57 75h-6q-10 0 -18 8.5t-8 19.5
q0 15 10.5 25.5t24.5 10.5q32 0 32 -38zM345 721q-21 0 -29.5 17.5t-7.5 39t-3.5 39t-18.5 17.5q-35 0 -58 -107h-23q14 63 34 98.5t54 35.5q21 0 29.5 -17.5t7.5 -39t3.5 -39t18.5 -17.5q35 0 59 107h23q-30 -134 -89 -134z" />
    <glyph glyph-name="uni1EEF" unicode="&#x1eef;" 
d="M414 544q0 -38 -31 -78t-70 -59l-90 -407h-30l15 68q-56 -80 -113 -80q-33 0 -51 17t-18 50q0 17 5 34l87 394h30l-87 -394q-4 -18 -4 -29q0 -45 44 -45q30 0 60.5 26t54.5 65l84 377h30l-9 -41q48 34 58 76h-6q-10 0 -18 8.5t-8 19.5q0 15 10.5 25.5t24.5 10.5
q32 0 32 -38zM282 554q-21 0 -29.5 17.5t-7.5 39t-3.5 39t-18.5 17.5q-35 0 -58 -107h-23q14 63 34 98.5t54 35.5q21 0 29.5 -17.5t7.5 -39t3.5 -39t18.5 -17.5q35 0 59 107h23q-30 -134 -89 -134z" />
    <glyph glyph-name="uni1EF0" unicode="&#x1ef0;" horiz-adv-x="396" 
d="M504 745q0 -38 -30.5 -77.5t-69.5 -58.5l-100 -455q-20 -88 -53.5 -127t-92.5 -39q-51 0 -81 30.5t-30 87.5q0 26 5 48l113 513h32l-113 -513q-5 -20 -5 -42q0 -46 22.5 -70t59.5 -24q43 0 69 31t42 105l113 513h32l-5 -23q47 33 57 75h-6q-10 0 -18 8.5t-8 19.5
q0 15 10.5 25.5t24.5 10.5q32 0 32 -38zM141 -141q0 -13 -9.5 -22.5t-22.5 -9.5q-11 0 -18.5 7.5t-7.5 18.5q0 13 9.5 22.5t22.5 9.5q11 0 18.5 -7.5t7.5 -18.5z" />
    <glyph glyph-name="uni1EF1" unicode="&#x1ef1;" 
d="M414 544q0 -38 -31 -78t-70 -59l-90 -407h-30l15 68q-56 -80 -113 -80q-33 0 -51 17t-18 50q0 17 5 34l87 394h30l-87 -394q-4 -18 -4 -29q0 -45 44 -45q30 0 60.5 26t54.5 65l84 377h30l-9 -41q48 34 58 76h-6q-10 0 -18 8.5t-8 19.5q0 15 10.5 25.5t24.5 10.5
q32 0 32 -38zM115 -141q0 -13 -9.5 -22.5t-22.5 -9.5q-11 0 -18.5 7.5t-7.5 18.5q0 13 9.5 22.5t22.5 9.5q11 0 18.5 -7.5t7.5 -18.5z" />
    <glyph glyph-name="Ygrave" unicode="&#x1ef2;" horiz-adv-x="322" 
d="M123 0h-32l64 289l-60 378h34l48 -339l200 339h36l-226 -378zM298 723h-24l-63 144h41z" />
    <glyph glyph-name="ygrave" unicode="&#x1ef3;" horiz-adv-x="279" 
d="M-67 -188l12 26q6 -7 23 -7t27.5 11.5t25.5 42.5l45 97l3 501h32l-9 -443l190 443h34l-272 -606q-33 -73 -79 -73q-20 0 -32 8zM236 556h-24l-63 144h41z" />
    <glyph glyph-name="thinspace" unicode="&#x2009;" horiz-adv-x="36" 
 />
    <glyph glyph-name="endash" unicode="&#x2013;" horiz-adv-x="460" 
d="M426 227h-400l6 30h400z" />
    <glyph glyph-name="emdash" unicode="&#x2014;" horiz-adv-x="640" 
d="M606 227h-580l6 30h580z" />
    <glyph glyph-name="afii00208" unicode="&#x2015;" horiz-adv-x="460" 
d="M426 227h-400l6 30h400z" />
    <glyph glyph-name="quoteleft" unicode="&#x2018;" horiz-adv-x="208" 
d="M138 547q0 36 27 73.5t62 56.5l18 -20q-27 -15 -47 -38t-25 -46h6q10 0 18 -8.5t8 -19.5q0 -15 -10.5 -25.5t-24.5 -10.5q-32 0 -32 38z" />
    <glyph glyph-name="quoteright" unicode="&#x2019;" horiz-adv-x="208" 
d="M227 639q0 -36 -27 -73.5t-62 -56.5l-18 20q27 15 47 38t25 46h-6q-10 0 -18 8.5t-8 19.5q0 15 10.5 25.5t24.5 10.5q32 0 32 -38z" />
    <glyph glyph-name="quotesinglbase" unicode="&#x201a;" horiz-adv-x="208" 
d="M89 18q0 -36 -27 -73.5t-62 -56.5l-18 20q27 15 47 38t25 46h-6q-10 0 -18 8.5t-8 19.5q0 15 10.5 25.5t24.5 10.5q32 0 32 -38z" />
    <glyph glyph-name="quotereversed" unicode="&#x201b;" horiz-adv-x="208" 
d="M145 604q0 35 15 54t32 19q32 0 32 -28q0 -14 -11 -24.5t-26 -10.5q-7 0 -15 2q-5 -22 4 -50t28 -47l-21 -15q-38 41 -38 100z" />
    <glyph glyph-name="quotedblleft" unicode="&#x201c;" horiz-adv-x="331" 
d="M259 547q0 36 27 73.5t62 56.5l18 -20q-27 -15 -47 -38t-25 -46h6q10 0 18 -8.5t8 -19.5q0 -15 -10.5 -25.5t-24.5 -10.5q-32 0 -32 38zM138 547q0 36 27 73.5t62 56.5l18 -20q-27 -15 -47 -38t-25 -46h6q10 0 18 -8.5t8 -19.5q0 -15 -10.5 -25.5t-24.5 -10.5
q-32 0 -32 38z" />
    <glyph glyph-name="quotedblright" unicode="&#x201d;" horiz-adv-x="331" 
d="M227 639q0 -36 -27 -73.5t-62 -56.5l-18 20q27 15 47 38t25 46h-6q-10 0 -18 8.5t-8 19.5q0 15 10.5 25.5t24.5 10.5q32 0 32 -38zM348 639q0 -36 -27 -73.5t-62 -56.5l-18 20q27 15 47 38t25 46h-6q-10 0 -18 8.5t-8 19.5q0 15 10.5 25.5t24.5 10.5q32 0 32 -38z" />
    <glyph glyph-name="quotedblbase" unicode="&#x201e;" horiz-adv-x="331" 
d="M89 18q0 -36 -27 -73.5t-62 -56.5l-18 20q27 15 47 38t25 46h-6q-10 0 -18 8.5t-8 19.5q0 15 10.5 25.5t24.5 10.5q32 0 32 -38zM210 18q0 -36 -27 -73.5t-62 -56.5l-18 20q27 15 47 38t25 46h-6q-10 0 -18 8.5t-8 19.5q0 15 10.5 25.5t24.5 10.5q32 0 32 -38z" />
    <glyph glyph-name="dagger" unicode="&#x2020;" horiz-adv-x="251" 
d="M291 539l-88 4l-44 -216h-31l52 216l-90 -4l6 27l88 -3l22 114h31l-30 -114l90 3z" />
    <glyph glyph-name="daggerdbl" unicode="&#x2021;" horiz-adv-x="251" 
d="M297 566l-6 -27l-88 4l-51 -229l90 4l-6 -27l-88 3l-22 -114h-31l30 114l-90 -3l6 27l88 -4l51 229l-90 -4l6 27l88 -3l22 114h31l-30 -114z" />
    <glyph glyph-name="bullet" unicode="&#x2022;" horiz-adv-x="358" 
d="M278 252q0 -43 -33 -75t-77 -32q-38 0 -63 25.5t-25 62.5q0 43 33 75t77 32q38 0 63 -25t25 -63z" />
    <glyph glyph-name="ellipsis" unicode="&#x2026;" horiz-adv-x="624" 
d="M52 -9q-13 0 -21.5 8.5t-8.5 21.5q0 15 10.5 25t25.5 10q13 0 21.5 -8.5t8.5 -21.5q0 -15 -10.5 -25t-25.5 -10zM260 -9q-13 0 -21.5 8.5t-8.5 21.5q0 15 10.5 25t25.5 10q13 0 21.5 -8.5t8.5 -21.5q0 -15 -10.5 -25t-25.5 -10zM468 -9q-13 0 -21.5 8.5t-8.5 21.5
q0 15 10.5 25t25.5 10q13 0 21.5 -8.5t8.5 -21.5q0 -15 -10.5 -25t-25.5 -10z" />
    <glyph glyph-name="perthousand" unicode="&#x2030;" horiz-adv-x="817" 
d="M105 0h-32l416 667h33zM362 -12q-48 0 -71.5 34t-23.5 84q0 85 44 146.5t97 61.5q48 0 71.5 -34t23.5 -84q0 -85 -44 -146.5t-97 -61.5zM362 15q41 0 74.5 52.5t33.5 126.5q0 93 -62 93q-41 0 -74.5 -52.5t-33.5 -126.5q0 -93 62 -93zM186 351q-48 0 -71.5 34t-23.5 84
q0 85 44 146.5t97 61.5q48 0 71.5 -34t23.5 -84q0 -85 -44 -146.5t-97 -61.5zM186 378q41 0 74.5 52.5t33.5 126.5q0 93 -62 93q-41 0 -74.5 -52.5t-33.5 -126.5q0 -93 62 -93zM624 -12q-48 0 -71.5 34t-23.5 84q0 85 44 146.5t97 61.5q48 0 71.5 -34t23.5 -84
q0 -85 -44 -146.5t-97 -61.5zM624 15q41 0 74.5 52.5t33.5 126.5q0 93 -62 93q-41 0 -74.5 -52.5t-33.5 -126.5q0 -93 62 -93z" />
    <glyph glyph-name="guilsinglleft" unicode="&#x2039;" horiz-adv-x="183" 
d="M110 63h-31l-50 180l130 177h35l-133 -181z" />
    <glyph glyph-name="guilsinglright" unicode="&#x203a;" horiz-adv-x="183" 
d="M73 420h31l50 -180l-130 -177h-35l133 181z" />
    <glyph glyph-name="uni203E" unicode="&#x203e;" horiz-adv-x="240" 
d="M313 581h-239l6 27h239z" />
    <glyph glyph-name="fraction" unicode="&#x2044;" horiz-adv-x="100" 
d="M294 667l-417 -667h-32l416 667h33z" />
    <glyph glyph-name="zerosuperior" unicode="&#x2070;" horiz-adv-x="240" 
d="M307 710q0 -54 -15.5 -120t-51.5 -121t-82 -55q-38 0 -57 27t-19 90q0 54 15.5 120t51.5 121t82 55q38 0 57 -27t19 -90zM278 718q0 83 -50 83q-35 0 -63.5 -56.5t-41 -119t-12.5 -102.5q0 -83 50 -83q35 0 63.5 56.5t41 119t12.5 102.5z" />
    <glyph glyph-name="foursuperior" unicode="&#x2074;" horiz-adv-x="240" 
d="M277 534h-38l-25 -113h-29l25 113h-135l6 27l184 260h37l-58 -261h38zM215 560l49 218l-156 -218h107z" />
    <glyph glyph-name="fivesuperior" unicode="&#x2075;" horiz-adv-x="240" 
d="M273 583q0 -63 -33.5 -116t-84.5 -53q-68 0 -83 69l26 12q4 -26 21 -40.5t40 -14.5q36 0 60 45.5t24 97.5q0 61 -47 61q-34 0 -66 -41l-21 11l46 207h159l-6 -26h-130l-34 -157q26 31 60 31q30 0 49.5 -22t19.5 -64z" />
    <glyph glyph-name="sixsuperior" unicode="&#x2076;" horiz-adv-x="240" 
d="M275 582q0 -32 -10.5 -68.5t-38.5 -68t-67 -31.5q-74 0 -74 107q0 34 8.5 82t25.5 100t48 88t70 36q28 0 48 -15.5t27 -42.5l-24 -15q-10 47 -51 47q-22 0 -40 -15.5t-31 -45.5t-20.5 -54t-16.5 -61q-3 -12 -3 -15q33 58 80 58q31 0 50 -21.5t19 -64.5zM244 582
q0 60 -48 60q-44 0 -78 -72q-6 -28 -6 -50q0 -34 12.5 -57t38.5 -23q36 0 58.5 47.5t22.5 94.5z" />
    <glyph glyph-name="sevensuperior" unicode="&#x2077;" horiz-adv-x="213" 
d="M307 801l-189 -380h-31l187 374h-142l6 26h173z" />
    <glyph glyph-name="eightsuperior" unicode="&#x2078;" horiz-adv-x="240" 
d="M265 536q0 -52 -30 -87t-74 -35q-39 0 -63 21t-24 61q0 49 29.5 84.5t67.5 48.5q-44 30 -44 80q0 49 30 83.5t70 34.5q35 0 58 -20.5t23 -61.5q0 -39 -25 -73t-65 -48q18 -11 32.5 -35.5t14.5 -52.5zM277 746q0 55 -50 55q-32 0 -51.5 -29t-19.5 -64q0 -26 14.5 -45.5
t27.5 -24.5q34 12 56.5 39.5t22.5 68.5zM235 536q0 29 -14 51t-28 28q-31 -4 -59 -39t-28 -80q0 -25 15 -41t39 -16q29 0 52 28.5t23 68.5z" />
    <glyph glyph-name="ninesuperior" unicode="&#x2079;" horiz-adv-x="240" 
d="M115 660q0 32 10.5 68.5t38.5 68t67 31.5q74 0 74 -107q0 -34 -8.5 -82t-25.5 -100t-48 -88t-70 -36q-28 0 -48 15.5t-27 42.5l24 15q10 -47 51 -47q22 0 40 15.5t31 45.5t20.5 54t16.5 61q3 12 3 15q-33 -58 -80 -58q-31 0 -50 21.5t-19 64.5zM146 660q0 -60 48 -60
q44 0 78 72q6 28 6 50q0 34 -12.5 57t-38.5 23q-36 0 -58.5 -47.5t-22.5 -94.5z" />
    <glyph glyph-name="parenleftsuperior" unicode="&#x207d;" horiz-adv-x="109" 
d="M124 361l-14 -5q-16 51 -16 137q0 199 133 393l12 -5q-123 -215 -123 -401q0 -80 8 -119z" />
    <glyph glyph-name="parenrightsuperior" unicode="&#x207e;" horiz-adv-x="109" 
d="M149 881l14 5q16 -51 16 -137q0 -199 -133 -393l-12 5q123 215 123 401q0 80 -8 119z" />
    <glyph glyph-name="nsuperior" unicode="&#x207f;" horiz-adv-x="267" 
d="M233 326h-28l54 246q3 12 3 20q0 33 -34 33q-37 0 -78 -63l-52 -236h-28l69 314h28l-10 -46q37 54 81 54q53 0 53 -45q0 -12 -4 -34z" />
    <glyph glyph-name="zeroinferior" unicode="&#x2080;" horiz-adv-x="240" 
d="M191 143q0 -54 -15.5 -120t-51.5 -121t-82 -55q-38 0 -57 27t-19 90q0 54 15.5 120t51.5 121t82 55q38 0 57 -27t19 -90zM162 151q0 83 -50 83q-35 0 -63.5 -56.5t-41 -119t-12.5 -102.5q0 -83 50 -83q35 0 63.5 56.5t41 119t12.5 102.5z" />
    <glyph glyph-name="oneinferior" unicode="&#x2081;" horiz-adv-x="190" 
d="M44 -146h-30l78 356l-72 -64l-17 20l102 88h27z" />
    <glyph glyph-name="twoinferior" unicode="&#x2082;" horiz-adv-x="240" 
d="M125 -146h-177l5 24q132 151 171 204.5t39 95.5q0 27 -14.5 41.5t-36.5 14.5q-41 0 -75 -52l-21 18q44 60 96 60q34 0 58 -21.5t24 -60.5q0 -46 -40.5 -101t-166.5 -197h143z" />
    <glyph glyph-name="threeinferior" unicode="&#x2083;" horiz-adv-x="240" 
d="M153 -22q0 -46 -29 -88.5t-80 -42.5q-35 0 -58.5 19.5t-30.5 51.5l26 13q5 -26 22 -42t41 -16q38 0 58.5 36.5t20.5 79.5q0 29 -14.5 44t-35.5 15q-20 0 -25 -1l6 27q5 -1 28 -1q32 0 56 28.5t24 74.5q0 26 -13.5 42t-37.5 16q-39 0 -75 -51l-20 17q40 60 97 60
q38 0 58.5 -21.5t20.5 -62.5q0 -38 -22.5 -74t-60.5 -44q44 -15 44 -80z" />
    <glyph glyph-name="fourinferior" unicode="&#x2084;" horiz-adv-x="240" 
d="M161 -33h-38l-25 -113h-29l25 113h-135l6 27l184 260h37l-58 -261h38zM99 -7l49 218l-156 -218h107z" />
    <glyph glyph-name="fiveinferior" unicode="&#x2085;" horiz-adv-x="240" 
d="M157 16q0 -63 -33.5 -116t-84.5 -53q-68 0 -83 69l26 12q4 -26 21 -40.5t40 -14.5q36 0 60 45.5t24 97.5q0 61 -47 61q-34 0 -66 -41l-21 11l46 207h159l-6 -26h-130l-34 -157q26 31 60 31q30 0 49.5 -22t19.5 -64z" />
    <glyph glyph-name="sixinferior" unicode="&#x2086;" horiz-adv-x="240" 
d="M159 15q0 -32 -10.5 -68.5t-38.5 -68t-67 -31.5q-74 0 -74 107q0 34 8.5 82t25.5 100t48 88t70 36q28 0 48 -15.5t27 -42.5l-24 -15q-10 47 -51 47q-22 0 -40 -15.5t-31 -45.5t-20.5 -54t-16.5 -61q-3 -12 -3 -15q33 58 80 58q31 0 50 -21.5t19 -64.5zM128 15
q0 60 -48 60q-44 0 -78 -72q-6 -28 -6 -50q0 -34 12.5 -57t38.5 -23q36 0 58.5 47.5t22.5 94.5z" />
    <glyph glyph-name="seveninferior" unicode="&#x2087;" horiz-adv-x="213" 
d="M191 234l-189 -380h-31l187 374h-142l6 26h173z" />
    <glyph glyph-name="eightinferior" unicode="&#x2088;" horiz-adv-x="240" 
d="M149 -31q0 -52 -30 -87t-74 -35q-39 0 -63 21t-24 61q0 49 29.5 84.5t67.5 48.5q-44 30 -44 80q0 49 30 83.5t70 34.5q35 0 58 -20.5t23 -61.5q0 -39 -25 -73t-65 -48q18 -11 32.5 -35.5t14.5 -52.5zM161 179q0 55 -50 55q-32 0 -51.5 -29t-19.5 -64q0 -26 14.5 -45.5
t27.5 -24.5q34 12 56.5 39.5t22.5 68.5zM119 -31q0 29 -14 51t-28 28q-31 -4 -59 -39t-28 -80q0 -25 15 -41t39 -16q29 0 52 28.5t23 68.5z" />
    <glyph glyph-name="nineinferior" unicode="&#x2089;" horiz-adv-x="240" 
d="M-1 93q0 32 10.5 68.5t38.5 68t67 31.5q74 0 74 -107q0 -34 -8.5 -82t-25.5 -100t-48 -88t-70 -36q-28 0 -48 15.5t-27 42.5l24 15q10 -47 51 -47q22 0 40 15.5t31 45.5t20.5 54t16.5 61q3 12 3 15q-33 -58 -80 -58q-31 0 -50 21.5t-19 64.5zM30 93q0 -60 48 -60
q44 0 78 72q6 28 6 50q0 34 -12.5 57t-38.5 23q-36 0 -58.5 -47.5t-22.5 -94.5z" />
    <glyph glyph-name="parenleftinferior" unicode="&#x208d;" horiz-adv-x="109" 
d="M-1 -206l-14 -5q-16 51 -16 137q0 199 133 393l12 -5q-123 -215 -123 -401q0 -80 8 -119z" />
    <glyph glyph-name="parenrightinferior" unicode="&#x208e;" horiz-adv-x="109" 
d="M24 314l14 5q16 -51 16 -137q0 -199 -133 -393l-12 5q123 215 123 401q0 80 -8 119z" />
    <glyph glyph-name="colonmonetary" unicode="&#x20a1;" horiz-adv-x="322" 
d="M142 -12q-31 0 -53 16l-45 -104h-32l55 127q-15 21 -22 52l-77 -179h-31l101 236v22q0 58 14 140.5t40 169.5t73.5 148t105.5 62l39 90h32l-41 -94q20 -6 35 -21l50 115h32l-62 -144q13 -27 19 -69l-31 -6l-6 33l-236 -548q16 -16 44 -16t51.5 22t50.5 66l26 -16
q-61 -102 -132 -102zM289 645l-216 -501q0 -46 10 -78l239 555q-12 18 -33 24zM78 228l180 419q-52 -7 -95 -92q-64 -125 -85 -327z" />
    <glyph glyph-name="frenchfranc" unicode="&#x20a3;" horiz-adv-x="350" 
d="M70 0h-32l35 161h-66l6 27h66l106 479h210l-6 -30h-178l-62 -279h171l-7 -30h-171l-31 -140h117l-6 -27h-117z" />
    <glyph glyph-name="lira" unicode="&#x20a4;" 
d="M47 323l7 30h57q-13 45 -13 82q0 96 48 169t115 73q45 0 74.5 -27.5t33.5 -73.5l-29 -13q-10 84 -79 84q-48 0 -88.5 -60.5t-40.5 -149.5q0 -40 14 -84h107l-7 -30h-90q12 -44 12 -70q0 -10 -1 -15h60l-6 -30h-58q-12 -51 -43.5 -95.5t-65.5 -69.5q22 11 35 11
q23 0 56 -18t49 -18q39 0 69 38l14 -24q-15 -19 -40 -31.5t-49 -12.5q-32 0 -60.5 20t-46.5 20q-30 0 -74 -35l-13 29q46 26 85.5 78.5t51.5 107.5h-109l6 30h107v8q0 29 -14 77h-74z" />
    <glyph glyph-name="uni20A6" unicode="&#x20a6;" horiz-adv-x="435" 
d="M289 0h-32l-26 251h-106l-55 -251h-32l55 251h-66l6 27h66l26 119h-65l5 27h66l54 243h32l25 -243h108l54 243h32l-54 -243h64l-5 -27h-65l-26 -119h64l-6 -27h-64zM245 397l12 -119h60l27 119h-99zM158 397l-27 -119h97l-12 119h-58zM260 251l17 -156l34 156h-51z
M198 579l-34 -155h50z" />
    <glyph glyph-name="peseta" unicode="&#x20a7;" horiz-adv-x="401" 
d="M70 0h-32l102 463h-66l7 30h65l39 174h90q47 0 77 -37t30 -99q0 -19 -3 -38h65l-7 -30h-63q-15 -74 -60.5 -124t-114.5 -50h-65zM207 319q52 1 86 42t47 102h-168l-32 -144h67zM211 637l-32 -144h166q2 26 2 38q0 53 -21.5 79.5t-57.5 26.5h-57z" />
    <glyph glyph-name="rupee" unicode="&#x20a8;" horiz-adv-x="604" 
d="M259 0h-33l-35 289h-77l-64 -289h-32l147 667h87q50 0 81 -37.5t31 -95.5q0 -90 -41 -157.5t-103 -83.5zM181 319h4q68 0 105.5 65.5t37.5 149.5q0 51 -20 77t-56 26h-61l-71 -318h61zM417 -12q-74 0 -102 63l25 19q24 -55 81 -55q38 0 66 32.5t28 75.5q0 28 -12.5 54
t-30 46t-35 40.5t-30 47.5t-12.5 57q0 52 34 89.5t87 37.5q63 0 90 -54l-24 -19q-18 46 -69 46q-38 0 -62.5 -27t-24.5 -68q0 -31 19 -62.5t41 -53.5t41 -56.5t19 -70.5q0 -59 -37 -100.5t-92 -41.5z" />
    <glyph glyph-name="uni20A9" unicode="&#x20a9;" horiz-adv-x="516" 
d="M325 0h-38l20 251h-95l-91 -251h-38l17 251h-69l6 27h65l9 119h-47l5 27h44l17 243h35l-21 -243h102l88 243h34l-20 -243h101l88 243h35l-90 -243h41l-5 -27h-46l-44 -119h63l-6 -27h-67zM142 397l-10 -119h61l43 119h-94zM439 397h-93l-10 -119h60zM265 397l-43 -119h87
l9 119h-53zM334 251l-15 -188l68 188h-53zM183 251h-53l-15 -188zM334 587l-59 -163h45z" />
    <glyph glyph-name="afii57636" unicode="&#x20aa;" horiz-adv-x="444" 
d="M241 0h-137l88 399h32l-82 -370h92q35 0 55.5 25.5t34.5 89.5l90 406h32l-87 -389q-18 -81 -44 -121t-74 -40zM132 550h97q51 0 74 -21.5t23 -65.5q0 -27 -10 -75l-51 -238h-32l57 256q6 28 6 49q0 66 -66 66h-72l-115 -521h-32z" />
    <glyph glyph-name="dong" unicode="&#x20ab;" horiz-adv-x="366" 
d="M212 495q26 0 48.5 -22.5t32.5 -65.5l29 134h-132l5 27h133l22 99h30l-22 -99h41l-5 -27h-42l-120 -541h-30l15 66q-43 -78 -100 -78q-42 0 -64.5 35.5t-22.5 97.5q0 46 11.5 107t33 122t58 103t79.5 42zM210 468q-34 0 -63.5 -40t-47 -97t-27.5 -114t-10 -98
q0 -104 62 -104q27 0 56.5 29.5t47.5 70.5l56 251q-3 42 -24.5 72t-49.5 30zM210 -119h-239l6 27h239z" />
    <glyph glyph-name="Euro" unicode="&#x20ac;" horiz-adv-x="366" 
d="M161 -12q-104 0 -104 170q0 36 6 89h-45l7 30h42q7 47 22 114h-39l7 30h40q30 112 79.5 184.5t115.5 72.5q87 0 102 -123l-31 -6q-10 99 -76 99q-93 0 -154 -227h143l-7 -30h-144q-13 -52 -22 -114h141l-7 -30h-138q-7 -52 -7 -93q0 -72 17.5 -104t55.5 -32q28 0 51.5 22
t50.5 66l26 -16q-61 -102 -132 -102z" />
    <glyph glyph-name="afii61289" unicode="&#x2113;" horiz-adv-x="328" 
d="M174 544l-44 -197l118 97q55 44 80 74.5t25 60.5t-21.5 50.5t-53.5 20.5q-42 0 -67 -26t-37 -80zM264 424l-143 -119l-51 -229q-4 -22 -4 -28q0 -33 31 -33q19 0 36 19l17 -20q-26 -26 -57 -26q-57 0 -57 56q0 16 4 32l104 468q30 133 134 133q40 0 72 -23.5t32 -68.5
q0 -38 -26 -72t-92 -89z" />
    <glyph glyph-name="afii61352" unicode="&#x2116;" horiz-adv-x="667" 
d="M269 0h-32l-59 579l-128 -579h-32l147 667h32l60 -572l127 572h32zM558 350q-80 0 -80 104q0 29 7.5 65.5t22.5 73.5t41.5 62t59.5 25q80 0 80 -104q0 -29 -7.5 -65.5t-22.5 -73.5t-41.5 -62t-59.5 -25zM558 376q33 0 57.5 39.5t34.5 83.5t10 77q0 77 -52 77
q-33 0 -57.5 -39t-34 -82.5t-9.5 -77.5q0 -78 51 -78z" />
    <glyph glyph-name="published" unicode="&#x2117;" horiz-adv-x="778" 
d="M754 334q0 -142 -101.5 -243.5t-244.5 -101.5q-142 0 -243 101t-101 244t101 244t243 101q143 0 244.5 -101.5t101.5 -243.5zM728 334q0 131 -94.5 225t-225.5 94t-224.5 -94t-93.5 -225t93.5 -225t224.5 -94t225.5 94t94.5 225zM587 436q0 -56 -40 -91t-101 -35h-124
l-39 -179h-29l89 405h125q53 0 86 -27.5t33 -72.5zM558 433q0 35 -26 54.5t-68 19.5h-98l-37 -168h122q49 0 78 26t29 68z" />
    <glyph glyph-name="servicemark" unicode="&#x2120;" horiz-adv-x="374" 
d="M382 447h-28l40 182l-95 -182h-8l-15 182l-40 -182h-28l48 220h42l10 -157l78 157h44zM181 513q0 -29 -19.5 -50.5t-47.5 -21.5q-33 0 -50 24l18 22q12 -19 33 -19q12 0 24 13t12 28q0 18 -25 44.5t-25 48.5q0 29 17.5 50t44.5 21q29 0 45 -18l-18 -24q-10 15 -29 15
q-11 0 -20.5 -10.5t-9.5 -26.5q0 -13 25 -42.5t25 -53.5z" />
    <glyph glyph-name="trademark" unicode="&#x2122;" horiz-adv-x="374" 
d="M384 447h-28l40 182l-95 -182h-8l-15 182l-40 -182h-28l48 220h43l10 -157l78 157h43zM217 641h-42l-43 -194h-28l43 194h-42l5 26h112z" />
    <glyph glyph-name="Omega" unicode="&#x2126;" horiz-adv-x="376" 
d="M4 30h74q-34 62 -34 157q0 58 14.5 137.5t41 160.5t72 137t99.5 56q51 0 78 -37.5t27 -131.5q0 -153 -53 -286t-116 -193h69l-6 -30h-100l6 30q66 50 116 204.5t50 274.5q0 75 -16.5 106.5t-54.5 31.5q-45 0 -84 -55.5t-62.5 -134t-36.5 -155t-13 -128.5q0 -98 29 -144
l-6 -30h-100z" />
    <glyph glyph-name="estimated" unicode="&#x212e;" horiz-adv-x="842" 
d="M829 324h-632q-4 0 -4 -5v-190q0 -15 9 -23q98 -103 240 -103q151 0 250 115h57q-54 -63 -135 -99.5t-174 -36.5q-161 0 -275.5 103t-114.5 248t114.5 248t275.5 103t275.5 -103t114.5 -248zM687 349v191q0 14 -10 24q-97 99 -236 99t-238 -102q-10 -10 -10 -24v-188
q0 -6 5 -6h485q4 0 4 6z" />
    <glyph glyph-name="onethird" unicode="&#x2153;" horiz-adv-x="544" 
d="M498 667l-417 -667h-32l416 667h33zM489 124q0 -46 -29 -88.5t-80 -42.5q-35 0 -58.5 19.5t-30.5 51.5l26 13q5 -26 22 -42t41 -16q38 0 58.5 36.5t20.5 79.5q0 29 -14.5 44t-35.5 15q-20 0 -25 -1l6 27q5 -1 28 -1q32 0 56 28.5t24 74.5q0 26 -13.5 42t-37.5 16
q-39 0 -75 -51l-20 17q40 60 97 60q38 0 58.5 -21.5t20.5 -62.5q0 -38 -22.5 -74t-60.5 -44q44 -15 44 -80zM135 267h-30l78 356l-72 -64l-17 20l102 88h27z" />
    <glyph glyph-name="twothirds" unicode="&#x2154;" horiz-adv-x="580" 
d="M534 667l-417 -667h-32l416 667h33zM525 124q0 -46 -29 -88.5t-80 -42.5q-35 0 -58.5 19.5t-30.5 51.5l26 13q5 -26 22 -42t41 -16q38 0 58.5 36.5t20.5 79.5q0 29 -14.5 44t-35.5 15q-20 0 -25 -1l6 27q5 -1 28 -1q32 0 56 28.5t24 74.5q0 26 -13.5 42t-37.5 16
q-39 0 -75 -51l-20 17q40 60 97 60q38 0 58.5 -21.5t20.5 -62.5q0 -38 -22.5 -74t-60.5 -44q44 -15 44 -80zM216 267h-177l5 24q132 151 171 204.5t39 95.5q0 27 -14.5 41.5t-36.5 14.5q-41 0 -75 -52l-21 18q44 60 96 60q34 0 58 -21.5t24 -60.5q0 -46 -40.5 -101
t-166.5 -197h143z" />
    </font>
</defs>
</svg>
